<svg width="240" height="120" viewBox="0 0 240 120" fill="none" xmlns="http://www.w3.org/2000/svg">
<path fill-rule="evenodd" clip-rule="evenodd" d="M70.9038 80C81.8965 80 90.8077 71.0457 90.8077 60C90.8077 48.9543 81.8965 40 70.9038 40C59.9113 40 51 48.9543 51 60C51 71.0457 59.9113 80 70.9038 80ZM81.5192 68C85.9163 68 89.4808 64.4183 89.4808 60C89.4808 55.5817 85.9163 52 81.5192 52C77.1222 52 73.5577 55.5817 73.5577 60C73.5577 64.4183 77.1222 68 81.5192 68Z" fill="black"/>
<path d="M99.7739 53.4972C99.8057 52.9212 99.9809 52.4572 100.299 52.1052C100.634 51.7532 101.103 51.6572 101.709 51.8172C101.995 51.8972 102.202 52.0172 102.33 52.1772C102.473 52.3372 102.568 52.5292 102.616 52.7532C102.68 52.9612 102.712 53.1932 102.712 53.4492C102.712 53.6892 102.712 53.9292 102.712 54.1692V57.4812C102.696 57.6092 102.688 57.7372 102.688 57.8652C102.704 57.9772 102.712 58.0812 102.712 58.1772V58.4892H103.309C103.484 58.4892 103.651 58.4892 103.81 58.4892C103.986 58.4892 104.137 58.4812 104.264 58.4652C105.14 58.4652 105.888 58.5932 106.509 58.8492C107.146 59.1052 107.656 59.4652 108.038 59.9292C108.436 60.3772 108.723 60.9212 108.898 61.5612C109.089 62.1852 109.176 62.8732 109.161 63.6252C109.145 64.5212 109.001 65.2892 108.731 65.9292C108.46 66.5692 108.078 67.0972 107.584 67.5132C107.091 67.9292 106.493 68.2412 105.793 68.4492C105.108 68.6412 104.336 68.7372 103.476 68.7372C102.489 68.7372 101.74 68.7292 101.231 68.7132C100.721 68.6972 100.355 68.5532 100.132 68.2812C99.9252 68.0092 99.8137 67.5372 99.7978 66.8652C99.7818 66.1932 99.7739 65.2092 99.7739 63.9132C99.7739 62.6652 99.7739 61.4332 99.7739 60.2172C99.7898 59.0012 99.7898 57.7772 99.7739 56.5452C99.7739 56.3852 99.7659 56.2172 99.75 56.0412C99.75 55.8652 99.75 55.6652 99.75 55.4412C99.75 55.2172 99.75 54.9532 99.75 54.6492C99.75 54.3292 99.758 53.9452 99.7739 53.4972ZM104.24 66.0492C105.116 66.0012 105.721 65.7612 106.056 65.3292C106.231 65.0892 106.366 64.8012 106.462 64.4652C106.557 64.1292 106.597 63.7932 106.581 63.4572C106.565 63.1212 106.493 62.8012 106.366 62.4972C106.255 62.1772 106.071 61.9132 105.817 61.7052C105.594 61.5132 105.371 61.3772 105.148 61.2972C104.925 61.2012 104.694 61.1452 104.455 61.1292C104.216 61.0972 103.962 61.0892 103.691 61.1052C103.42 61.1052 103.11 61.1132 102.759 61.1292V64.0092L102.712 66.0012C102.871 66.0172 103.038 66.0332 103.213 66.0492C103.516 66.0812 103.858 66.0812 104.24 66.0492ZM121.618 62.9532C121.587 63.4812 121.555 64.0172 121.523 64.5612C121.491 65.0892 121.403 65.6012 121.26 66.0972C121.133 66.5932 120.926 67.0412 120.639 67.4412C120.368 67.8412 119.978 68.1612 119.469 68.4012C119.023 68.6252 118.545 68.7772 118.036 68.8572C117.526 68.9532 117.017 68.9932 116.507 68.9772C115.998 68.9612 115.504 68.8812 115.026 68.7372C114.549 68.6092 114.119 68.4252 113.736 68.1852C113.354 67.9452 113.044 67.6332 112.805 67.2492C112.566 66.8652 112.375 66.4492 112.232 66.0012C112.104 65.5532 112.017 65.0892 111.969 64.6092C111.921 64.1292 111.889 63.6812 111.873 63.2652C111.81 62.1612 111.81 61.0732 111.873 60.0012C111.873 59.7932 111.873 59.5612 111.873 59.3052C111.873 59.0332 111.889 58.7692 111.921 58.5132C111.969 58.2572 112.041 58.0252 112.136 57.8172C112.232 57.5932 112.391 57.4252 112.614 57.3132C113.092 57.0572 113.529 57.0412 113.928 57.2652C114.342 57.4892 114.588 57.9532 114.668 58.6572C114.716 59.0252 114.732 59.4332 114.716 59.8812C114.716 60.3292 114.732 60.7372 114.763 61.1052C114.779 61.6492 114.795 62.2412 114.811 62.8812C114.827 63.5052 114.915 64.0652 115.074 64.5612C115.249 65.0572 115.528 65.4332 115.91 65.6892C116.308 65.9292 116.897 65.9372 117.677 65.7132C118.044 65.6012 118.282 65.3212 118.394 64.8732C118.521 64.4252 118.585 63.7612 118.585 62.8812C118.585 62.4972 118.577 62.0732 118.561 61.6092C118.545 61.1452 118.537 60.6892 118.537 60.2412C118.537 59.7772 118.545 59.3532 118.561 58.9692C118.593 58.5692 118.641 58.2652 118.704 58.0572C118.784 57.7692 118.951 57.5532 119.206 57.4092C119.461 57.2652 119.731 57.1932 120.018 57.1932C120.305 57.1772 120.575 57.2332 120.83 57.3612C121.085 57.4892 121.26 57.6972 121.356 57.9852C121.451 58.2412 121.515 58.5692 121.547 58.9692C121.594 59.3532 121.626 59.7772 121.642 60.2412C121.658 60.6892 121.658 61.1532 121.642 61.6332C121.642 62.0972 121.634 62.5372 121.618 62.9532ZM130.006 64.4412C129.703 64.2492 129.361 64.0972 128.979 63.9852C128.613 63.8732 128.23 63.7692 127.832 63.6732C127.45 63.5772 127.076 63.4732 126.71 63.3612C126.344 63.2332 126.009 63.0572 125.707 62.8332C125.054 62.3372 124.672 61.7292 124.56 61.0092C124.465 60.2732 124.624 59.5372 125.038 58.8012C125.261 58.4172 125.555 58.1052 125.922 57.8652C126.288 57.6092 126.686 57.4172 127.116 57.2892C127.562 57.1452 128.015 57.0652 128.477 57.0492C128.939 57.0332 129.377 57.0572 129.791 57.1212C130.062 57.1692 130.348 57.2412 130.651 57.3372C130.953 57.4172 131.232 57.5292 131.487 57.6732C131.757 57.8172 131.996 58.0012 132.203 58.2252C132.426 58.4332 132.585 58.6972 132.681 59.0172C132.745 59.2252 132.753 59.4252 132.705 59.6172C132.673 59.8092 132.593 59.9692 132.466 60.0972C132.354 60.2252 132.203 60.3212 132.012 60.3852C131.837 60.4492 131.646 60.4652 131.439 60.4332C131.2 60.3852 130.977 60.3132 130.77 60.2172C130.563 60.1212 130.356 60.0172 130.149 59.9052C129.942 59.7932 129.727 59.6972 129.504 59.6172C129.297 59.5372 129.074 59.4972 128.835 59.4972C128.469 59.4812 128.167 59.5452 127.928 59.6892C127.689 59.8332 127.522 60.0092 127.426 60.2172C127.347 60.4252 127.355 60.6492 127.45 60.8892C127.562 61.1292 127.785 61.3372 128.119 61.5132C128.421 61.6732 128.756 61.8012 129.122 61.8972C129.488 61.9932 129.847 62.0892 130.197 62.1852C130.563 62.2812 130.913 62.3932 131.248 62.5212C131.598 62.6492 131.909 62.8252 132.179 63.0492C132.705 63.4812 133.023 63.9852 133.135 64.5612C133.262 65.1372 133.23 65.7052 133.039 66.2652C132.848 66.8252 132.514 67.3212 132.036 67.7532C131.574 68.1852 131.025 68.4732 130.388 68.6172C129.926 68.7132 129.425 68.7612 128.883 68.7612C128.358 68.7612 127.832 68.7052 127.307 68.5932C126.797 68.4812 126.304 68.3052 125.826 68.0652C125.364 67.8252 124.974 67.5212 124.656 67.1532C124.433 66.8972 124.313 66.6092 124.297 66.2892C124.297 65.9532 124.361 65.6652 124.488 65.4252C124.632 65.1692 124.831 64.9932 125.086 64.8972C125.34 64.8012 125.627 64.8572 125.945 65.0652C126.2 65.2412 126.503 65.4172 126.853 65.5932C127.203 65.7532 127.554 65.8812 127.904 65.9772C128.254 66.0732 128.589 66.1212 128.907 66.1212C129.242 66.1212 129.528 66.0492 129.767 65.9052C130.117 65.6812 130.3 65.4252 130.316 65.1372C130.332 64.8332 130.229 64.6012 130.006 64.4412ZM138.869 59.5692C138.869 60.0172 138.869 60.5212 138.869 61.0812C138.885 61.6412 138.893 62.2252 138.893 62.8332C138.893 63.4252 138.893 64.0172 138.893 64.6092C138.893 65.1852 138.885 65.7212 138.869 66.2172C138.853 66.4572 138.83 66.7212 138.798 67.0092C138.766 67.2812 138.702 67.5372 138.607 67.7772C138.511 68.0172 138.36 68.2172 138.153 68.3772C137.962 68.5212 137.699 68.5852 137.365 68.5692C136.871 68.5372 136.513 68.3212 136.29 67.9212C136.083 67.5212 135.963 66.9612 135.932 66.2412C135.932 65.8732 135.924 65.4492 135.908 64.9692C135.908 64.4892 135.9 64.0012 135.884 63.5052C135.884 63.0092 135.884 62.5292 135.884 62.0652C135.884 61.5852 135.884 61.1532 135.884 60.7692C135.884 60.5452 135.876 60.2732 135.86 59.9532C135.86 59.6332 135.868 59.3052 135.884 58.9692C135.9 58.6332 135.94 58.3132 136.003 58.0092C136.067 57.6892 136.17 57.4252 136.314 57.2172C136.425 57.0892 136.584 56.9932 136.791 56.9292C136.998 56.8492 137.213 56.8092 137.436 56.8092C137.675 56.8092 137.898 56.8492 138.105 56.9292C138.328 57.0092 138.487 57.1212 138.583 57.2652C138.646 57.3612 138.694 57.4972 138.726 57.6732C138.758 57.8492 138.782 58.0492 138.798 58.2732C138.83 58.4812 138.846 58.7052 138.846 58.9452C138.861 59.1692 138.869 59.3772 138.869 59.5692ZM137.962 54.7212C137.468 54.8492 137.054 54.8012 136.72 54.5772C136.401 54.3372 136.202 53.9852 136.123 53.5212C136.059 53.1852 136.083 52.8892 136.194 52.6332C136.306 52.3772 136.473 52.1852 136.696 52.0572C136.919 51.9132 137.174 51.8492 137.46 51.8652C137.747 51.8812 138.033 51.9932 138.32 52.2012C138.591 52.3932 138.782 52.6172 138.893 52.8732C139.021 53.1292 139.06 53.3772 139.013 53.6172C138.981 53.8572 138.877 54.0812 138.702 54.2892C138.527 54.4812 138.28 54.6252 137.962 54.7212ZM141.965 60.0972C141.965 59.7292 141.957 59.3372 141.941 58.9212C141.941 58.5052 142.013 58.1292 142.156 57.7932C142.284 57.4892 142.491 57.2732 142.777 57.1452C143.08 57.0012 143.374 56.9692 143.661 57.0492C143.948 57.0972 144.17 57.1852 144.33 57.3132C144.489 57.4412 144.6 57.5932 144.664 57.7692C144.744 57.9292 144.791 58.1212 144.807 58.3452C144.823 58.5532 144.839 58.7612 144.855 58.9692C145.014 58.6812 145.213 58.4492 145.452 58.2732C145.691 58.0972 145.938 57.9532 146.193 57.8412C146.447 57.7292 146.686 57.6492 146.909 57.6012C147.148 57.5532 147.331 57.5292 147.459 57.5292C148.064 57.5292 148.661 57.6652 149.25 57.9372C149.855 58.1932 150.357 58.5612 150.755 59.0412C150.978 59.3292 151.145 59.6332 151.256 59.9532C151.384 60.2572 151.471 60.5772 151.519 60.9132C151.583 61.2492 151.622 61.5932 151.638 61.9452C151.654 62.2812 151.67 62.6252 151.686 62.9772C151.766 64.0012 151.766 65.0172 151.686 66.0252C151.67 66.2332 151.662 66.4732 151.662 66.7452C151.662 67.0172 151.638 67.2892 151.591 67.5612C151.559 67.8172 151.487 68.0492 151.376 68.2572C151.28 68.4492 151.113 68.5692 150.874 68.6172C150.54 68.6972 150.261 68.7132 150.038 68.6652C149.831 68.6332 149.664 68.5612 149.537 68.4492C149.409 68.3372 149.314 68.1932 149.25 68.0172C149.186 67.8412 149.131 67.6412 149.083 67.4172C149.051 67.2412 149.019 67.0412 148.987 66.8172C148.971 66.5772 148.955 66.3372 148.939 66.0972C148.939 65.8572 148.931 65.6252 148.916 65.4012C148.916 65.1612 148.916 64.9452 148.916 64.7532C148.916 64.4492 148.908 64.1132 148.892 63.7452C148.876 63.3772 148.876 63.0332 148.892 62.7132C148.892 61.9612 148.693 61.3932 148.295 61.0092C147.912 60.6092 147.387 60.4412 146.718 60.5052C146.209 60.5692 145.763 60.7772 145.381 61.1292C144.998 61.4652 144.815 61.9052 144.831 62.4492C144.831 62.6572 144.831 62.8492 144.831 63.0252C144.831 63.2012 144.823 63.3772 144.807 63.5532C144.807 63.7292 144.807 63.9212 144.807 64.1292C144.807 64.3372 144.807 64.5692 144.807 64.8252C144.807 65.3532 144.807 65.9132 144.807 66.5052C144.807 67.0812 144.736 67.5532 144.592 67.9212C144.465 68.3052 144.25 68.5692 143.948 68.7132C143.645 68.8572 143.287 68.8172 142.873 68.5932C142.698 68.4972 142.554 68.3692 142.443 68.2092C142.347 68.0332 142.268 67.8492 142.204 67.6572C142.156 67.4652 142.124 67.2732 142.108 67.0812C142.093 66.8732 142.077 66.6812 142.061 66.5052C142.013 65.9772 141.981 65.4892 141.965 65.0412C141.965 64.5772 141.965 64.0812 141.965 63.5532V60.0972ZM162.654 65.3772C162.845 65.3292 163.036 65.2972 163.227 65.2812C163.434 65.2652 163.618 65.2892 163.777 65.3532C163.952 65.4172 164.095 65.5292 164.207 65.6892C164.318 65.8332 164.374 66.0412 164.374 66.3132C164.374 66.5052 164.326 66.6892 164.231 66.8652C164.135 67.0412 164.016 67.2012 163.872 67.3452C163.729 67.4892 163.57 67.6172 163.395 67.7292C163.22 67.8252 163.052 67.9052 162.893 67.9692C162.431 68.1772 161.898 68.3372 161.293 68.4492C160.704 68.5612 160.091 68.6012 159.454 68.5692C158.594 68.5372 157.766 68.3692 156.97 68.0652C156.189 67.7452 155.576 67.2252 155.131 66.5052C154.717 65.8012 154.47 65.0172 154.39 64.1532C154.311 63.2892 154.35 62.4732 154.51 61.7052C154.685 60.7772 154.979 60.0252 155.393 59.4492C155.823 58.8572 156.333 58.3852 156.922 58.0332C157.638 57.6172 158.443 57.4012 159.334 57.3852C160.226 57.3692 161.078 57.5452 161.89 57.9132C162.431 58.1532 162.917 58.4812 163.347 58.8972C163.777 59.2972 164.103 59.7852 164.326 60.3612C164.39 60.5052 164.438 60.6812 164.469 60.8892C164.517 61.0972 164.549 61.3212 164.565 61.5612C164.581 61.7852 164.581 62.0092 164.565 62.2332C164.549 62.4572 164.509 62.6572 164.446 62.8332C164.35 63.1212 164.231 63.3452 164.087 63.5052C163.944 63.6652 163.761 63.7852 163.538 63.8652C163.315 63.9452 163.044 64.0012 162.726 64.0332C162.423 64.0492 162.057 64.0652 161.627 64.0812C161.245 64.0972 160.887 64.1052 160.552 64.1052C160.218 64.1052 159.876 64.1052 159.525 64.1052C159.175 64.0892 158.809 64.0812 158.427 64.0812C158.06 64.0652 157.646 64.0492 157.185 64.0332C157.137 64.3532 157.177 64.6332 157.304 64.8732C157.447 65.0972 157.638 65.2892 157.877 65.4492C158.116 65.5932 158.387 65.7052 158.689 65.7852C158.992 65.8652 159.287 65.9132 159.573 65.9292C160.115 65.9612 160.632 65.9212 161.126 65.8092C161.619 65.6812 162.129 65.5372 162.654 65.3772ZM161.627 60.7212C161.325 60.3692 161.006 60.1132 160.672 59.9532C160.417 59.8412 160.146 59.7932 159.86 59.8092C159.589 59.8092 159.326 59.8492 159.072 59.9292C158.61 60.0412 158.22 60.2812 157.901 60.6492C157.869 60.6812 157.814 60.7612 157.734 60.8892C157.654 61.0012 157.575 61.1212 157.495 61.2492C157.431 61.3772 157.384 61.4972 157.352 61.6092C157.32 61.7212 157.336 61.7772 157.4 61.7772H162.081C162.065 61.5532 162.025 61.3692 161.962 61.2252C161.898 61.0652 161.786 60.8972 161.627 60.7212ZM172.921 64.4412C172.618 64.2492 172.276 64.0972 171.894 63.9852C171.527 63.8732 171.145 63.7692 170.747 63.6732C170.365 63.5772 169.991 63.4732 169.625 63.3612C169.258 63.2332 168.924 63.0572 168.621 62.8332C167.969 62.3372 167.586 61.7292 167.475 61.0092C167.379 60.2732 167.539 59.5372 167.953 58.8012C168.176 58.4172 168.47 58.1052 168.836 57.8652C169.203 57.6092 169.601 57.4172 170.031 57.2892C170.476 57.1452 170.93 57.0652 171.392 57.0492C171.854 57.0332 172.292 57.0572 172.706 57.1212C172.976 57.1692 173.263 57.2412 173.566 57.3372C173.868 57.4172 174.147 57.5292 174.401 57.6732C174.672 57.8172 174.911 58.0012 175.118 58.2252C175.341 58.4332 175.5 58.6972 175.596 59.0172C175.659 59.2252 175.667 59.4252 175.62 59.6172C175.588 59.8092 175.508 59.9692 175.381 60.0972C175.269 60.2252 175.118 60.3212 174.927 60.3852C174.752 60.4492 174.561 60.4652 174.354 60.4332C174.115 60.3852 173.892 60.3132 173.685 60.2172C173.478 60.1212 173.271 60.0172 173.064 59.9052C172.857 59.7932 172.642 59.6972 172.419 59.6172C172.212 59.5372 171.989 59.4972 171.75 59.4972C171.384 59.4812 171.082 59.5452 170.843 59.6892C170.604 59.8332 170.437 60.0092 170.341 60.2172C170.261 60.4252 170.269 60.6492 170.365 60.8892C170.476 61.1292 170.699 61.3372 171.034 61.5132C171.336 61.6732 171.671 61.8012 172.037 61.8972C172.403 61.9932 172.761 62.0892 173.112 62.1852C173.478 62.2812 173.828 62.3932 174.163 62.5212C174.513 62.6492 174.823 62.8252 175.094 63.0492C175.62 63.4812 175.938 63.9852 176.05 64.5612C176.177 65.1372 176.145 65.7052 175.954 66.2652C175.763 66.8252 175.429 67.3212 174.951 67.7532C174.489 68.1852 173.94 68.4732 173.303 68.6172C172.841 68.7132 172.339 68.7612 171.798 68.7612C171.273 68.7612 170.747 68.7052 170.222 68.5932C169.712 68.4812 169.219 68.3052 168.741 68.0652C168.279 67.8252 167.889 67.5212 167.57 67.1532C167.348 66.8972 167.228 66.6092 167.212 66.2892C167.212 65.9532 167.276 65.6652 167.403 65.4252C167.547 65.1692 167.746 64.9932 168 64.8972C168.255 64.8012 168.542 64.8572 168.86 65.0652C169.115 65.2412 169.418 65.4172 169.768 65.5932C170.118 65.7532 170.468 65.8812 170.819 65.9772C171.169 66.0732 171.503 66.1212 171.822 66.1212C172.156 66.1212 172.443 66.0492 172.682 65.9052C173.032 65.6812 173.215 65.4252 173.231 65.1372C173.247 64.8332 173.144 64.6012 172.921 64.4412ZM184.483 64.4412C184.181 64.2492 183.838 64.0972 183.456 63.9852C183.09 63.8732 182.708 63.7692 182.31 63.6732C181.928 63.5772 181.553 63.4732 181.187 63.3612C180.821 63.2332 180.487 63.0572 180.184 62.8332C179.531 62.3372 179.149 61.7292 179.038 61.0092C178.942 60.2732 179.101 59.5372 179.515 58.8012C179.738 58.4172 180.033 58.1052 180.399 57.8652C180.765 57.6092 181.163 57.4172 181.593 57.2892C182.039 57.1452 182.493 57.0652 182.955 57.0492C183.416 57.0332 183.854 57.0572 184.268 57.1212C184.539 57.1692 184.826 57.2412 185.128 57.3372C185.431 57.4172 185.709 57.5292 185.964 57.6732C186.235 57.8172 186.474 58.0012 186.681 58.2252C186.904 58.4332 187.063 58.6972 187.158 59.0172C187.222 59.2252 187.23 59.4252 187.182 59.6172C187.15 59.8092 187.071 59.9692 186.943 60.0972C186.832 60.2252 186.681 60.3212 186.49 60.3852C186.314 60.4492 186.123 60.4652 185.916 60.4332C185.678 60.3852 185.455 60.3132 185.248 60.2172C185.041 60.1212 184.834 60.0172 184.627 59.9052C184.42 59.7932 184.205 59.6972 183.982 59.6172C183.775 59.5372 183.552 59.4972 183.313 59.4972C182.947 59.4812 182.644 59.5452 182.405 59.6892C182.167 59.8332 181.999 60.0092 181.904 60.2172C181.824 60.4252 181.832 60.6492 181.928 60.8892C182.039 61.1292 182.262 61.3372 182.596 61.5132C182.899 61.6732 183.233 61.8012 183.6 61.8972C183.966 61.9932 184.324 62.0892 184.674 62.1852C185.041 62.2812 185.391 62.3932 185.725 62.5212C186.076 62.6492 186.386 62.8252 186.657 63.0492C187.182 63.4812 187.501 63.9852 187.612 64.5612C187.74 65.1372 187.708 65.7052 187.517 66.2652C187.326 66.8252 186.991 67.3212 186.514 67.7532C186.052 68.1852 185.502 68.4732 184.865 68.6172C184.404 68.7132 183.902 68.7612 183.361 68.7612C182.835 68.7612 182.31 68.7052 181.784 68.5932C181.275 68.4812 180.781 68.3052 180.304 68.0652C179.842 67.8252 179.452 67.5212 179.133 67.1532C178.91 66.8972 178.791 66.6092 178.775 66.2892C178.775 65.9532 178.839 65.6652 178.966 65.4252C179.109 65.1692 179.308 64.9932 179.563 64.8972C179.818 64.8012 180.104 64.8572 180.423 65.0652C180.678 65.2412 180.98 65.4172 181.331 65.5932C181.681 65.7532 182.031 65.8812 182.381 65.9772C182.732 66.0732 183.066 66.1212 183.385 66.1212C183.719 66.1212 184.006 66.0492 184.244 65.9052C184.595 65.6812 184.778 65.4252 184.794 65.1372C184.81 64.8332 184.706 64.6012 184.483 64.4412Z" fill="black"/>
</svg>
