<svg width="240" height="120" viewBox="0 0 240 120" fill="none" xmlns="http://www.w3.org/2000/svg">
<g clip-path="url(#clip0_12145_1007)">
<path d="M61.9221 66.5195V54.8695L57.8602 63.5445H56.1417L52.0799 54.8695V66.5195H49V48.7695H52.3031L56.9898 58.8695L61.7212 48.7695H65.0019V66.5195H61.9221ZM135.532 66.5195V54.8695L131.47 63.5445H129.752L125.69 54.8695V66.5195H122.61V48.7695H125.913L130.6 58.8695L135.332 48.7695H138.612V66.5195H135.532Z" fill="black"/>
<path d="M73.6687 66.7703C72.7164 66.7703 71.8609 66.5953 71.1021 66.2453C70.3433 65.8786 69.6961 65.3786 69.1605 64.7453C68.6397 64.112 68.238 63.387 67.9553 62.5703C67.6726 61.7536 67.5312 60.8953 67.5312 59.9953C67.5312 59.0786 67.6726 58.212 67.9553 57.3953C68.238 56.5786 68.6397 55.8536 69.1605 55.2203C69.6961 54.587 70.3433 54.0953 71.1021 53.7453C71.8609 53.3786 72.7164 53.1953 73.6687 53.1953C74.6209 53.1953 75.469 53.3786 76.2129 53.7453C76.9717 54.0953 77.6189 54.587 78.1546 55.2203C78.6902 55.8536 79.0919 56.5786 79.3597 57.3953C79.6424 58.212 79.7838 59.0786 79.7838 59.9953C79.7838 60.8953 79.6424 61.7536 79.3597 62.5703C79.0919 63.387 78.6902 64.112 78.1546 64.7453C77.6338 65.3786 76.994 65.8786 76.2352 66.2453C75.4764 66.5953 74.6209 66.7703 73.6687 66.7703ZM70.6111 59.9953C70.6111 60.762 70.745 61.4453 71.0128 62.0453C71.2807 62.6286 71.6452 63.087 72.1064 63.4203C72.5677 63.7536 73.0884 63.9203 73.6687 63.9203C74.2341 63.9203 74.7474 63.7536 75.2086 63.4203C75.6699 63.0703 76.0344 62.6036 76.3022 62.0203C76.5849 61.4203 76.7262 60.737 76.7262 59.9703C76.7262 59.2203 76.5849 58.5453 76.3022 57.9453C76.0344 57.3453 75.6699 56.8786 75.2086 56.5453C74.7474 56.212 74.2341 56.0453 73.6687 56.0453C73.0884 56.0453 72.5677 56.2203 72.1064 56.5703C71.6452 56.9036 71.2807 57.3703 71.0128 57.9703C70.745 58.5536 70.6111 59.2286 70.6111 59.9953ZM93.1175 66.5203H90.1269V59.1703C90.1269 58.1203 89.9632 57.3536 89.6359 56.8703C89.3086 56.387 88.8548 56.1453 88.2745 56.1453C87.8728 56.1453 87.4636 56.262 87.047 56.4953C86.6453 56.7286 86.2808 57.0536 85.9535 57.4703C85.6261 57.8703 85.3881 58.337 85.2393 58.8703V66.5203H82.2487V53.4203H84.9491V55.8453C85.2467 55.2786 85.6261 54.8036 86.0874 54.4203C86.5486 54.0203 87.0768 53.7203 87.6719 53.5203C88.282 53.3036 88.9217 53.1953 89.5913 53.1953C90.3203 53.1953 90.9155 53.3453 91.3767 53.6453C91.8528 53.9286 92.2099 54.3203 92.448 54.8203C92.7009 55.3036 92.872 55.8536 92.9613 56.4703C93.0654 57.087 93.1175 57.712 93.1175 58.3453V66.5203ZM101.588 66.7703C100.65 66.7703 99.8021 66.5953 99.0433 66.2453C98.2845 65.8786 97.6373 65.387 97.1017 64.7703C96.566 64.137 96.1494 63.4203 95.8519 62.6203C95.5692 61.8036 95.4278 60.9453 95.4278 60.0453C95.4278 58.7953 95.6733 57.6536 96.1643 56.6203C96.6702 55.587 97.3844 54.762 98.3068 54.1453C99.2442 53.512 100.345 53.1953 101.61 53.1953C102.889 53.1953 103.983 53.512 104.891 54.1453C105.798 54.762 106.49 55.587 106.966 56.6203C107.457 57.637 107.703 58.737 107.703 59.9203C107.703 60.1203 107.695 60.3286 107.68 60.5453C107.665 60.7453 107.651 60.912 107.636 61.0453H98.597C98.6565 61.712 98.8276 62.2953 99.1103 62.7953C99.4079 63.2953 99.7798 63.6786 100.226 63.9453C100.687 64.1953 101.178 64.3203 101.699 64.3203C102.294 64.3203 102.852 64.162 103.373 63.8453C103.909 63.512 104.273 63.0786 104.467 62.5453L107.033 63.3453C106.75 64.012 106.341 64.6036 105.806 65.1203C105.285 65.637 104.667 66.0453 103.953 66.3453C103.239 66.6286 102.451 66.7703 101.588 66.7703ZM98.53 58.9203H104.645C104.586 58.2536 104.415 57.6786 104.132 57.1953C103.864 56.6953 103.507 56.312 103.061 56.0453C102.614 55.762 102.116 55.6203 101.565 55.6203C101.03 55.6203 100.539 55.762 100.092 56.0453C99.6608 56.312 99.3037 56.6953 99.021 57.1953C98.7532 57.6786 98.5895 58.2536 98.53 58.9203ZM109.846 69.0703C110.114 69.137 110.359 69.1953 110.582 69.2453C110.82 69.2953 111.021 69.3203 111.185 69.3203C111.468 69.3203 111.698 69.237 111.877 69.0703C112.07 68.9203 112.256 68.637 112.435 68.2203C112.613 67.8203 112.799 67.2536 112.993 66.5203L108.373 53.4203H111.475L114.622 63.0953L117.389 53.4203H120.246L115.336 69.1203C115.158 69.7036 114.882 70.2286 114.51 70.6953C114.153 71.1786 113.699 71.5536 113.149 71.8203C112.613 72.1036 112.011 72.2453 111.341 72.2453C111.103 72.2453 110.865 72.2203 110.627 72.1703C110.389 72.137 110.129 72.0703 109.846 71.9703V69.0703ZM141.14 62.6453C141.14 61.7953 141.348 61.0536 141.765 60.4203C142.196 59.7703 142.791 59.2703 143.55 58.9203C144.309 58.5703 145.179 58.3953 146.161 58.3953C146.652 58.3953 147.151 58.437 147.657 58.5203C148.163 58.6036 148.602 58.737 148.973 58.9203V58.2203C148.973 57.387 148.75 56.7453 148.304 56.2953C147.872 55.8453 147.225 55.6203 146.362 55.6203C145.722 55.6203 145.112 55.7453 144.532 55.9953C143.952 56.2453 143.342 56.612 142.702 57.0953L141.742 54.8953C142.516 54.3286 143.305 53.9036 144.108 53.6203C144.926 53.337 145.782 53.1953 146.675 53.1953C148.341 53.1953 149.636 53.662 150.558 54.5953C151.495 55.5286 151.964 56.862 151.964 58.5953V62.7703C151.964 63.1203 152.016 63.3703 152.12 63.5203C152.239 63.6703 152.425 63.762 152.678 63.7953V66.5203C152.41 66.5703 152.165 66.612 151.942 66.6453C151.733 66.6786 151.555 66.6953 151.406 66.6953C150.811 66.6953 150.357 66.5453 150.045 66.2453C149.747 65.9453 149.561 65.5786 149.487 65.1453L149.42 64.4703C148.914 65.2036 148.282 65.7703 147.523 66.1703C146.764 66.5703 145.99 66.7703 145.202 66.7703C144.428 66.7703 143.729 66.5953 143.104 66.2453C142.494 65.8786 142.01 65.387 141.653 64.7703C141.311 64.137 141.14 63.4286 141.14 62.6453ZM148.416 63.3203C148.579 63.1203 148.713 62.9203 148.817 62.7203C148.921 62.5203 148.973 62.337 148.973 62.1703V60.8453C148.616 60.6786 148.23 60.5536 147.813 60.4703C147.396 60.3703 147.002 60.3203 146.63 60.3203C145.856 60.3203 145.217 60.512 144.711 60.8953C144.22 61.262 143.974 61.7536 143.974 62.3703C143.974 62.7036 144.056 63.0203 144.22 63.3203C144.383 63.6203 144.621 63.862 144.934 64.0453C145.246 64.2286 145.618 64.3203 146.05 64.3203C146.496 64.3203 146.935 64.2286 147.367 64.0453C147.798 63.8453 148.148 63.6036 148.416 63.3203ZM157.938 66.5203L153.63 53.4203H156.733L159.679 63.4703L162.647 53.4203H165.481L161.196 66.5203H157.938ZM172.539 66.7703C171.601 66.7703 170.753 66.5953 169.994 66.2453C169.236 65.8786 168.588 65.387 168.053 64.7703C167.517 64.137 167.101 63.4203 166.803 62.6203C166.52 61.8036 166.379 60.9453 166.379 60.0453C166.379 58.7953 166.624 57.6536 167.115 56.6203C167.621 55.587 168.336 54.762 169.258 54.1453C170.195 53.512 171.296 53.1953 172.561 53.1953C173.841 53.1953 174.934 53.512 175.842 54.1453C176.749 54.762 177.441 55.587 177.917 56.6203C178.408 57.637 178.654 58.737 178.654 59.9203C178.654 60.1203 178.646 60.3286 178.632 60.5453C178.617 60.7453 178.602 60.912 178.587 61.0453H169.548C169.608 61.712 169.779 62.2953 170.061 62.7953C170.359 63.2953 170.731 63.6786 171.177 63.9453C171.639 64.1953 172.13 64.3203 172.65 64.3203C173.245 64.3203 173.803 64.162 174.324 63.8453C174.86 63.512 175.224 63.0786 175.418 62.5453L177.984 63.3453C177.702 64.012 177.292 64.6036 176.757 65.1203C176.236 65.637 175.619 66.0453 174.904 66.3453C174.19 66.6286 173.402 66.7703 172.539 66.7703ZM169.481 58.9203H175.596C175.537 58.2536 175.366 57.6786 175.083 57.1953C174.815 56.6953 174.458 56.312 174.012 56.0453C173.565 55.762 173.067 55.6203 172.516 55.6203C171.981 55.6203 171.49 55.762 171.043 56.0453C170.612 56.312 170.255 56.6953 169.972 57.1953C169.704 57.6786 169.541 58.2536 169.481 58.9203ZM191.791 66.5203H188.8V59.1703C188.8 58.1203 188.637 57.3536 188.309 56.8703C187.982 56.387 187.528 56.1453 186.948 56.1453C186.546 56.1453 186.137 56.262 185.72 56.4953C185.319 56.7286 184.954 57.0536 184.627 57.4703C184.299 57.8703 184.061 58.337 183.913 58.8703V66.5203H180.922V53.4203H183.622V55.8453C183.92 55.2786 184.299 54.8036 184.761 54.4203C185.222 54.0203 185.75 53.7203 186.345 53.5203C186.955 53.3036 187.595 53.1953 188.265 53.1953C188.994 53.1953 189.589 53.3453 190.05 53.6453C190.526 53.9286 190.883 54.3203 191.121 54.8203C191.374 55.3036 191.545 55.8536 191.635 56.4703C191.739 57.087 191.791 57.712 191.791 58.3453V66.5203Z" fill="black"/>
</g>
<defs>
<clipPath id="clip0_12145_1007">
<rect width="143" height="25" fill="white" transform="translate(49 48)"/>
</clipPath>
</defs>
</svg>
