<svg width="240" height="120" viewBox="0 0 240 120" fill="none" xmlns="http://www.w3.org/2000/svg">
<path d="M47.9961 40.1318L47.5 39.8482L47.0039 40.1318L29.5039 50.1318L29 50.4197V51V71V71.5803L29.5039 71.8682L47.0039 81.8682L47.5 82.1518L47.9961 81.8682L65.4961 71.8682L66 71.5803V71V51V50.4197L65.4961 50.1318L47.9961 40.1318Z" stroke="black" stroke-width="2"/>
<path d="M47.9856 45.1258L47.5 44.856L47.0143 45.1258L33.5144 52.6258L33 52.9116V53.5V68.5V69.0884L33.5144 69.3742L47.0143 76.8742L47.5 77.144L47.9856 76.8742L61.4856 69.3742L62 69.0884V68.5V53.5V52.9116L61.4856 52.6258L47.9856 45.1258Z" stroke="black" stroke-width="2"/>
<path d="M87.7617 68.6157V54.1205H91.7516V65.046H97.9606V68.6157H87.7617ZM105.962 68.9402C105.207 68.9402 104.475 68.796 103.764 68.5075C103.053 68.2191 102.413 67.8152 101.843 67.296C101.275 66.7768 100.819 66.1637 100.478 65.457C100.151 64.7359 99.9877 63.9498 99.9877 63.0988C99.9877 62.2479 100.151 61.4691 100.478 60.7623C100.819 60.0412 101.275 59.421 101.843 58.9018C102.413 58.3825 103.053 57.9787 103.764 57.6902C104.475 57.4018 105.207 57.2575 105.962 57.2575C106.716 57.2575 107.448 57.4018 108.159 57.6902C108.87 57.9787 109.51 58.3825 110.08 58.9018C110.648 59.421 111.096 60.0412 111.424 60.7623C111.765 61.4691 111.936 62.2479 111.936 63.0988C111.936 63.9498 111.765 64.7359 111.424 65.457C111.096 66.1637 110.648 66.7768 110.08 67.296C109.51 67.8152 108.87 68.2191 108.159 68.5075C107.448 68.796 106.716 68.9402 105.962 68.9402ZM105.962 65.3705C106.232 65.3705 106.523 65.3128 106.836 65.1974C107.149 65.082 107.42 64.8585 107.647 64.5268C107.875 64.195 107.988 63.7191 107.988 63.0988C107.988 62.4643 107.875 61.9883 107.647 61.671C107.42 61.3393 107.149 61.1157 106.836 61.0003C106.523 60.8849 106.232 60.8272 105.962 60.8272C105.705 60.8272 105.414 60.8849 105.087 61.0003C104.774 61.1157 104.504 61.3393 104.276 61.671C104.048 61.9883 103.935 62.4643 103.935 63.0988C103.935 63.7191 104.048 64.195 104.276 64.5268C104.504 64.8585 104.774 65.082 105.087 65.1974C105.414 65.3128 105.705 65.3705 105.962 65.3705ZM114.176 68.6157V57.582H117.846V68.6157H114.176ZM117.846 62.9474V59.5507C118.187 58.9594 118.564 58.4474 118.977 58.0147C119.403 57.582 119.958 57.3657 120.641 57.3657C121.011 57.3657 121.331 57.4306 121.601 57.5604V61.671C121.387 61.5556 121.16 61.4691 120.918 61.4114C120.69 61.3393 120.421 61.3032 120.107 61.3032C119.61 61.3032 119.168 61.4546 118.785 61.7575C118.4 62.0604 118.088 62.4571 117.846 62.9474ZM128.77 68.9402C128.002 68.9402 127.255 68.8104 126.529 68.5507C125.819 68.2911 125.178 67.9162 124.609 67.4257C124.041 66.9354 123.592 66.3441 123.265 65.6518C122.938 64.945 122.774 64.1518 122.774 63.2719C122.774 62.1758 123.023 61.1734 123.521 60.2647C124.033 59.3561 124.723 58.6277 125.591 58.0796C126.473 57.5316 127.461 57.2575 128.556 57.2575C129.581 57.2575 130.491 57.4883 131.287 57.9499C132.084 58.4113 132.703 59.0604 133.144 59.8969C133.599 60.7191 133.827 61.6998 133.827 62.8392V64.1157H126.124V61.8657H130.349C130.349 61.5195 130.256 61.231 130.071 61.0003C129.886 60.7696 129.652 60.6037 129.368 60.5027C129.083 60.3873 128.777 60.3296 128.45 60.3296C128.023 60.3296 127.646 60.4378 127.319 60.6541C127.006 60.8561 126.757 61.1734 126.572 61.6061C126.387 62.0388 126.295 62.5941 126.295 63.2719C126.295 63.82 126.408 64.2744 126.636 64.6349C126.878 64.9955 127.205 65.2623 127.618 65.4354C128.03 65.6084 128.485 65.695 128.983 65.695C129.809 65.695 130.519 65.5796 131.117 65.3488C131.729 65.1037 132.184 64.8945 132.482 64.7215V67.9018C132.241 68.0604 131.928 68.2191 131.543 68.3777C131.174 68.5363 130.754 68.6662 130.284 68.7672C129.815 68.8825 129.31 68.9402 128.77 68.9402ZM148.89 68.6157V62.3849C148.89 61.8368 148.748 61.4546 148.464 61.2383C148.193 61.0075 147.873 60.8922 147.503 60.8922C147.176 60.8922 146.891 61.0003 146.65 61.2166C146.422 61.4186 146.208 61.6637 146.01 61.9522L145.476 59.3993C145.817 58.7936 146.273 58.2887 146.841 57.8849C147.425 57.4666 148.079 57.2575 148.805 57.2575C149.544 57.2575 150.198 57.4306 150.767 57.7768C151.337 58.1085 151.778 58.6133 152.09 59.2911C152.417 59.969 152.581 60.8056 152.581 61.8007V68.6157H148.89ZM135.854 68.6157V57.582H139.524V68.6157H135.854ZM142.361 68.6157V62.3849C142.361 61.8368 142.219 61.4546 141.934 61.2383C141.664 61.0075 141.344 60.8922 140.974 60.8922C140.647 60.8922 140.37 61.0003 140.142 61.2166C139.929 61.4186 139.722 61.6637 139.524 61.9522V59.0099C139.751 58.6926 139.986 58.4041 140.227 58.1445C140.469 57.8705 140.746 57.6542 141.06 57.4955C141.387 57.3368 141.792 57.2575 142.276 57.2575C143.129 57.2575 143.869 57.4883 144.495 57.9499C145.121 58.4113 145.562 59.0893 145.817 59.9834L146.052 61.5195V68.6157H142.361ZM159.409 68.9402C158.598 68.9402 157.837 68.7311 157.126 68.3128C156.414 67.8945 155.831 67.2527 155.376 66.3873C154.935 65.5075 154.715 64.4042 154.715 63.0772C154.715 61.8368 154.935 60.784 155.376 59.9186C155.831 59.0532 156.429 58.3969 157.169 57.9499C157.923 57.4883 158.74 57.2575 159.622 57.2575C160.191 57.2575 160.746 57.3873 161.286 57.6469C161.841 57.8921 162.296 58.2095 162.652 58.5988V57.582H166.322V68.6157H162.652V66.7768C162.382 67.3825 161.969 67.8945 161.414 68.3128C160.86 68.7311 160.191 68.9402 159.409 68.9402ZM160.497 65.1757C160.81 65.1757 161.13 65.0965 161.457 64.9378C161.784 64.7647 162.061 64.5123 162.289 64.1806C162.531 63.8345 162.652 63.3945 162.652 62.8609V61.8007C162.339 61.5411 161.984 61.3249 161.585 61.1518C161.201 60.9787 160.802 60.8922 160.39 60.8922C160.034 60.8922 159.715 60.9931 159.43 61.195C159.16 61.3969 158.947 61.6637 158.79 61.9955C158.633 62.3272 158.555 62.6878 158.555 63.0772C158.555 63.4666 158.633 63.82 158.79 64.1373C158.96 64.4546 159.188 64.7071 159.472 64.8945C159.771 65.082 160.113 65.1757 160.497 65.1757ZM172.061 55.8945C171.435 55.8945 170.895 55.6782 170.44 55.2455C169.984 54.7984 169.757 54.2647 169.757 53.6445C169.757 53.0099 169.984 52.4763 170.44 52.0436C170.895 51.6109 171.435 51.3945 172.061 51.3945C172.459 51.3945 172.829 51.4955 173.171 51.6974C173.526 51.8994 173.81 52.1734 174.024 52.5195C174.238 52.8513 174.344 53.2262 174.344 53.6445C174.344 54.0484 174.238 54.4234 174.024 54.7695C173.81 55.1157 173.526 55.3897 173.171 55.5916C172.829 55.7936 172.459 55.8945 172.061 55.8945ZM170.546 68.6157V57.582H174.216V68.6157H170.546ZM168.776 60.6109V57.582H174.216V60.6109H168.776ZM177.118 73.808V57.582H180.787V59.421C181.058 58.8152 181.47 58.3032 182.025 57.8849C182.58 57.4666 183.248 57.2575 184.031 57.2575C184.842 57.2575 185.602 57.4666 186.314 57.8849C187.039 58.3032 187.623 58.945 188.064 59.8104C188.504 60.6757 188.725 61.7791 188.725 63.1205C188.725 64.3609 188.497 65.4138 188.042 66.2791C187.601 67.1445 187.003 67.808 186.25 68.2695C185.51 68.7166 184.699 68.9402 183.818 68.9402C183.248 68.9402 182.686 68.8176 182.132 68.5724C181.591 68.3128 181.143 67.9883 180.787 67.5988V73.808H177.118ZM183.049 65.3056C183.405 65.3056 183.718 65.2046 183.988 65.0027C184.272 64.8008 184.493 64.534 184.65 64.2022C184.806 63.8705 184.884 63.5099 184.884 63.1205C184.884 62.7167 184.799 62.3633 184.628 62.0604C184.472 61.7431 184.251 61.4907 183.967 61.3032C183.682 61.1157 183.341 61.0219 182.943 61.0219C182.644 61.0219 182.324 61.1084 181.982 61.2815C181.655 61.4402 181.371 61.6926 181.129 62.0388C180.901 62.3705 180.787 62.8032 180.787 63.3368V64.3969C181.115 64.6565 181.47 64.8729 181.855 65.046C182.253 65.2191 182.651 65.3056 183.049 65.3056ZM194.315 68.9402C193.774 68.9402 193.255 68.8825 192.757 68.7672C192.273 68.6662 191.819 68.5219 191.391 68.3345C190.965 68.1469 190.588 67.9378 190.261 67.707V64.808C190.602 65.0243 190.979 65.2191 191.391 65.3922C191.804 65.5508 192.209 65.6806 192.608 65.7815C193.02 65.8825 193.397 65.933 193.739 65.933C194.151 65.933 194.45 65.8825 194.634 65.7815C194.834 65.6806 194.934 65.5003 194.934 65.2407C194.934 65.0387 194.82 64.8873 194.592 64.7864C194.365 64.671 194.038 64.5412 193.61 64.3969L192.523 64.0507C191.726 63.8056 191.143 63.4234 190.773 62.9041C190.403 62.3705 190.218 61.7215 190.218 60.957C190.218 60.1926 190.417 59.5363 190.816 58.9883C191.214 58.4402 191.755 58.0147 192.437 57.7118C193.134 57.409 193.909 57.2575 194.763 57.2575C195.474 57.2575 196.128 57.3657 196.726 57.582C197.338 57.784 197.828 58.0652 198.198 58.4257V61.3465C197.828 61.1157 197.409 60.8994 196.939 60.6974C196.47 60.4811 195.964 60.3729 195.424 60.3729C195.083 60.3729 194.777 60.445 194.507 60.5892C194.251 60.7191 194.122 60.9282 194.122 61.2166C194.122 61.4186 194.201 61.57 194.357 61.671C194.514 61.7719 194.82 61.8801 195.275 61.9955L195.937 62.1686C196.903 62.4138 197.615 62.796 198.07 63.3152C198.539 63.82 198.774 64.469 198.774 65.2623C198.774 65.9835 198.56 66.6253 198.134 67.1878C197.721 67.7359 197.174 68.1686 196.491 68.4859C195.822 68.7888 195.097 68.9402 194.315 68.9402ZM213.731 68.6157V62.3849C213.731 61.8368 213.589 61.4546 213.304 61.2383C213.033 61.0075 212.714 60.8922 212.344 60.8922C212.017 60.8922 211.732 61.0003 211.49 61.2166C211.263 61.4186 211.049 61.6637 210.85 61.9522L210.317 59.3993C210.658 58.7936 211.114 58.2887 211.682 57.8849C212.265 57.4666 212.92 57.2575 213.645 57.2575C214.385 57.2575 215.039 57.4306 215.608 57.7768C216.178 58.1085 216.618 58.6133 216.931 59.2911C217.258 59.969 217.422 60.8056 217.422 61.8007V68.6157H213.731ZM200.695 68.6157V57.582H204.364V68.6157H200.695ZM207.202 68.6157V62.3849C207.202 61.8368 207.059 61.4546 206.775 61.2383C206.505 61.0075 206.185 60.8922 205.815 60.8922C205.488 60.8922 205.21 61.0003 204.983 61.2166C204.769 61.4186 204.563 61.6637 204.364 61.9522V59.0099C204.592 58.6926 204.827 58.4041 205.068 58.1445C205.31 57.8705 205.587 57.6542 205.9 57.4955C206.228 57.3368 206.633 57.2575 207.117 57.2575C207.97 57.2575 208.71 57.4883 209.336 57.9499C209.961 58.4113 210.402 59.0893 210.658 59.9834L210.893 61.5195V68.6157H207.202Z" fill="black"/>
</svg>
