<svg width="240" height="120" viewBox="0 0 240 120" fill="none" xmlns="http://www.w3.org/2000/svg">
<mask id="mask0_12145_986" style="mask-type:luminance" maskUnits="userSpaceOnUse" x="25" y="42" width="44" height="38">
<path d="M68.4763 42.6094H25.8047V79.3952H68.4763V42.6094Z" fill="white"/>
</mask>
<g mask="url(#mask0_12145_986)">
<path d="M45.4565 44.5808C46.2043 43.2856 48.0738 43.2856 48.8216 44.5808L66.6618 75.4809C67.4096 76.7762 66.4749 78.3952 64.9792 78.3952H29.2988C27.8032 78.3952 26.8684 76.7762 27.6163 75.4809L45.4565 44.5808Z" stroke="black" stroke-width="2"/>
<path d="M46.2623 58.3968C46.5817 57.8677 47.4183 57.8677 47.7378 58.3968L58.8946 76.8768C59.1598 77.3162 58.8753 78 58.1569 78H35.8431C35.1247 78 34.8402 77.3162 35.1054 76.8768L46.2623 58.3968L45.4062 57.88L46.2623 58.3968Z" stroke="black" stroke-width="2"/>
</g>
<path d="M82.9141 69.8287V53.3957H85.9746V67.1212H92.4725V69.8287H82.9141ZM99.6005 70.1112C98.439 70.1112 97.4346 69.8522 96.587 69.3343C95.7395 68.8007 95.0803 68.0551 94.6094 67.0977C94.1542 66.1246 93.9266 64.9867 93.9266 63.684C93.9266 62.3656 94.1542 61.2276 94.6094 60.2702C95.0803 59.3128 95.7395 58.5751 96.587 58.0572C97.4346 57.5236 98.439 57.2567 99.6005 57.2567C100.778 57.2567 101.79 57.5236 102.638 58.0572C103.485 58.5751 104.136 59.3128 104.592 60.2702C105.062 61.2276 105.298 62.3656 105.298 63.684C105.298 64.9867 105.062 66.1246 104.592 67.0977C104.136 68.0551 103.485 68.8007 102.638 69.3343C101.79 69.8522 100.778 70.1112 99.6005 70.1112ZM99.6005 67.7098C100.401 67.7098 101.037 67.4665 101.507 66.98C101.978 66.4777 102.214 65.7557 102.214 64.814V62.5539C102.214 61.5965 101.978 60.8745 101.507 60.3879C101.037 59.9014 100.401 59.6581 99.6005 59.6581C98.8157 59.6581 98.1879 59.9014 97.7171 60.3879C97.2462 60.8745 97.0108 61.5965 97.0108 62.5539V64.814C97.0108 65.7557 97.2462 66.4777 97.7171 66.98C98.1879 67.4665 98.8157 67.7098 99.6005 67.7098ZM107.993 69.8287V57.5392H110.96V60.0819H111.077C111.187 59.6424 111.375 59.2343 111.642 58.8577C111.909 58.4653 112.262 58.1514 112.702 57.9159C113.141 57.6648 113.691 57.5392 114.35 57.5392H114.985V60.3409H114.044C113.368 60.3409 112.796 60.4115 112.325 60.5527C111.87 60.6783 111.525 60.8823 111.289 61.1649C111.069 61.4474 110.96 61.8162 110.96 62.2714V69.8287H107.993ZM122.065 70.1112C120.856 70.1112 119.821 69.8522 118.958 69.3343C118.094 68.8007 117.435 68.0551 116.98 67.0977C116.525 66.1246 116.297 64.9867 116.297 63.684C116.297 62.3812 116.516 61.2512 116.956 60.2938C117.411 59.3364 118.063 58.5908 118.911 58.0572C119.758 57.5236 120.778 57.2567 121.971 57.2567C123.242 57.2567 124.286 57.5392 125.102 58.1043C125.934 58.6693 126.546 59.4227 126.939 60.3644C127.346 61.2904 127.551 62.3185 127.551 63.4485V64.4373H119.358V64.7434C119.358 65.638 119.609 66.36 120.111 66.9093C120.629 67.4587 121.383 67.7333 122.371 67.7333C123.125 67.7333 123.744 67.5764 124.231 67.2625C124.718 66.9486 125.141 66.5483 125.503 66.0618L127.127 67.8275C126.625 68.5181 125.934 69.0753 125.055 69.4991C124.191 69.9072 123.195 70.1112 122.065 70.1112ZM119.358 62.601H124.467V62.3656C124.467 61.7849 124.372 61.2826 124.184 60.8588C123.996 60.435 123.721 60.1054 123.36 59.87C122.999 59.6189 122.552 59.4933 122.018 59.4933C121.484 59.4933 121.013 59.6189 120.606 59.87C120.213 60.1054 119.907 60.4429 119.687 60.8823C119.467 61.3218 119.358 61.8319 119.358 62.4126V62.601ZM130.226 69.8287V57.5392H133.192V59.5875H133.31C133.545 58.944 133.922 58.3947 134.44 57.9395C134.973 57.4843 135.695 57.2567 136.606 57.2567C137.437 57.2567 138.167 57.4607 138.795 57.8688C139.423 58.277 139.878 58.9047 140.161 59.7523H140.232C140.451 59.0617 140.883 58.4731 141.526 57.9866C142.186 57.5 143.002 57.2567 143.975 57.2567C145.183 57.2567 146.109 57.6805 146.753 58.5281C147.412 59.3599 147.742 60.5371 147.742 62.0595V69.8287H144.799V62.3656C144.799 61.4709 144.634 60.8038 144.305 60.3644C143.99 59.925 143.481 59.7052 142.774 59.7052C142.381 59.7052 142.005 59.7758 141.644 59.9171C141.298 60.0583 141.016 60.2781 140.797 60.5763C140.577 60.8745 140.467 61.2434 140.467 61.6828V69.8287H137.524V62.3656C137.524 61.4709 137.359 60.8038 137.03 60.3644C136.7 59.925 136.198 59.7052 135.523 59.7052C135.13 59.7052 134.753 59.7758 134.393 59.9171C134.047 60.0583 133.757 60.2781 133.522 60.5763C133.302 60.8745 133.192 61.2434 133.192 61.6828V69.8287H130.226ZM154.162 70.1112C152.907 70.1112 151.933 69.7816 151.243 69.1224C150.568 68.4475 150.231 67.5685 150.231 66.4856C150.231 65.638 150.435 64.9396 150.843 64.3902C151.267 63.8409 151.871 63.425 152.656 63.1425C153.44 62.86 154.39 62.7187 155.504 62.7187H157.6V61.8005C157.6 61.1256 157.411 60.592 157.035 60.1996C156.673 59.8072 156.085 59.611 155.269 59.611C154.578 59.611 154.013 59.768 153.574 60.0819C153.134 60.3958 152.765 60.7646 152.467 61.1884L150.725 59.611C151.164 58.9047 151.761 58.3397 152.514 57.9159C153.268 57.4765 154.257 57.2567 155.481 57.2567C157.129 57.2567 158.384 57.6413 159.248 58.4103C160.111 59.1637 160.543 60.2388 160.543 61.6357V67.4744H161.79V69.8287H160.142C159.53 69.8287 159.036 69.6639 158.659 69.3343C158.298 68.989 158.054 68.5338 157.929 67.9688L157.882 67.7333H157.741C157.536 68.5024 157.113 69.091 156.47 69.4991C155.841 69.9072 155.073 70.1112 154.162 70.1112ZM155.128 67.9688C155.599 67.9688 156.014 67.8981 156.375 67.7569C156.752 67.6156 157.05 67.4116 157.27 67.1448C157.489 66.8779 157.6 66.5483 157.6 66.156V64.508H155.646C154.829 64.508 154.225 64.6413 153.833 64.9082C153.44 65.175 153.244 65.5595 153.244 66.0618V66.462C153.244 66.9486 153.409 67.3252 153.739 67.5921C154.068 67.8432 154.531 67.9688 155.128 67.9688ZM164.206 69.8287V57.5392H167.173V69.8287H164.206ZM165.69 55.7029C165.093 55.7029 164.654 55.5616 164.371 55.2791C164.089 54.9966 163.947 54.6435 163.947 54.2197V53.7724C163.947 53.3329 164.089 52.9719 164.371 52.6894C164.654 52.4069 165.093 52.2656 165.69 52.2656C166.302 52.2656 166.741 52.4069 167.008 52.6894C167.291 52.9719 167.432 53.3329 167.432 53.7724V54.2197C167.432 54.6435 167.291 54.9966 167.008 55.2791C166.741 55.5616 166.302 55.7029 165.69 55.7029ZM170.667 74.5373V57.5392H173.633V59.5875H173.727C173.947 58.8655 174.363 58.3005 174.975 57.8924C175.603 57.4686 176.325 57.2567 177.141 57.2567C178.177 57.2567 179.048 57.5078 179.754 58.0101C180.477 58.5124 181.018 59.2422 181.379 60.1996C181.755 61.157 181.944 62.3185 181.944 63.684C181.944 65.0338 181.755 66.1952 181.379 67.1683C181.018 68.1257 180.477 68.8555 179.754 69.3578C179.048 69.8601 178.177 70.1112 177.141 70.1112C176.325 70.1112 175.611 69.8993 174.999 69.4755C174.387 69.0518 173.963 68.4867 173.727 67.7804H173.633V74.5373H170.667ZM176.199 67.6627C176.984 67.6627 177.62 67.3959 178.106 66.8623C178.609 66.3286 178.86 65.6224 178.86 64.7434V62.6245C178.86 61.7456 178.609 61.0393 178.106 60.5057C177.62 59.972 176.984 59.7052 176.199 59.7052C175.713 59.7052 175.274 59.7915 174.881 59.9642C174.489 60.1211 174.183 60.3487 173.963 60.6469C173.744 60.9451 173.633 61.2904 173.633 61.6828V65.638C173.633 66.0618 173.744 66.4306 173.963 66.7445C174.183 67.0427 174.489 67.2704 174.881 67.4273C175.274 67.5842 175.713 67.6627 176.199 67.6627ZM188.787 70.1112C187.61 70.1112 186.621 69.915 185.82 69.5226C185.02 69.1145 184.314 68.5574 183.701 67.8511L185.514 66.1089C185.969 66.6268 186.471 67.0349 187.021 67.3331C187.57 67.6313 188.198 67.7804 188.904 67.7804C189.626 67.7804 190.152 67.6548 190.482 67.4037C190.811 67.1369 190.976 66.776 190.976 66.3208C190.976 65.9598 190.859 65.6694 190.623 65.4497C190.388 65.2299 189.995 65.0809 189.446 65.0024L188.222 64.8376C187.358 64.7277 186.621 64.5236 186.009 64.2254C185.397 63.9273 184.933 63.527 184.62 63.0248C184.305 62.5068 184.149 61.879 184.149 61.1413C184.149 59.9328 184.573 58.9832 185.42 58.2926C186.268 57.602 187.39 57.2567 188.787 57.2567C189.587 57.2567 190.27 57.3352 190.835 57.4922C191.4 57.6334 191.894 57.8532 192.318 58.1514C192.757 58.4339 193.173 58.7792 193.566 59.1873L191.8 60.9294C191.454 60.5527 191.031 60.2388 190.529 59.9877C190.026 59.7209 189.469 59.5875 188.857 59.5875C188.214 59.5875 187.735 59.7131 187.421 59.9642C187.123 60.1996 186.974 60.5135 186.974 60.9059C186.974 61.3297 187.099 61.6514 187.351 61.8712C187.602 62.0752 188.025 62.2243 188.622 62.3185L189.846 62.4833C191.195 62.6716 192.192 63.0718 192.836 63.684C193.479 64.2804 193.801 65.0887 193.801 66.1089C193.801 66.8937 193.597 67.5921 193.189 68.2042C192.781 68.8007 192.2 69.2715 191.447 69.6168C190.694 69.9464 189.806 70.1112 188.787 70.1112ZM196.486 69.8287V57.5392H199.452V59.5875H199.57C199.806 58.944 200.182 58.3947 200.7 57.9395C201.234 57.4843 201.956 57.2567 202.866 57.2567C203.698 57.2567 204.428 57.4607 205.056 57.8688C205.683 58.277 206.139 58.9047 206.421 59.7523H206.492C206.712 59.0617 207.143 58.4731 207.787 57.9866C208.446 57.5 209.262 57.2567 210.235 57.2567C211.444 57.2567 212.369 57.6805 213.013 58.5281C213.672 59.3599 214.002 60.5371 214.002 62.0595V69.8287H211.059V62.3656C211.059 61.4709 210.894 60.8038 210.565 60.3644C210.251 59.925 209.741 59.7052 209.034 59.7052C208.642 59.7052 208.266 59.7758 207.904 59.9171C207.559 60.0583 207.277 60.2781 207.057 60.5763C206.837 60.8745 206.727 61.2434 206.727 61.6828V69.8287H203.784V62.3656C203.784 61.4709 203.62 60.8038 203.29 60.3644C202.96 59.925 202.458 59.7052 201.783 59.7052C201.391 59.7052 201.014 59.7758 200.653 59.9171C200.308 60.0583 200.017 60.2781 199.782 60.5763C199.562 60.8745 199.452 61.2434 199.452 61.6828V69.8287H196.486Z" fill="black"/>
</svg>
