<svg width="240" height="120" viewBox="0 0 240 120" fill="none" xmlns="http://www.w3.org/2000/svg">
<path d="M56.0352 49.195V57.39L59.487 53.6992C61.3503 51.666 63.0305 49.7268 63.1831 49.414C63.397 48.9448 62.786 48.1316 59.8535 44.9098C57.868 42.7516 56.1879 41 56.1574 41C56.0963 41 56.0352 44.6909 56.0352 49.195Z" fill="black"/>
<path d="M43.2253 46.6284C43.5003 47.1601 53.2448 57.0442 53.8251 57.3883C54.1307 57.576 54.1612 56.5125 54.0085 52.196C53.8863 49.2245 53.7336 46.6909 53.6114 46.5658C53.5197 46.472 51.076 46.3156 48.174 46.253C43.5919 46.1592 42.981 46.2217 43.2253 46.6284Z" fill="black"/>
<path d="M63.4253 52.6366C60.3705 55.7644 57.9268 58.3606 57.9573 58.4231C58.0184 58.4544 60.4622 58.4231 63.4253 58.298L68.771 58.1103L68.9849 52.6366C69.1071 49.6338 69.1375 47.1315 69.0765 47.069C69.0154 46.9751 66.4494 49.4774 63.4253 52.6366Z" fill="black"/>
<path d="M43.7509 53.0088C43.14 53.5718 41.3682 55.2609 39.8409 56.7309L37 59.4522H45.0339H53.0372L50.3491 56.856C47.05 53.697 45.1561 51.9453 45.0033 51.9453C44.9422 51.9453 44.3924 52.4145 43.7509 53.0088Z" fill="black"/>
<path d="M54.8123 58.9821C54.3541 59.545 54.6289 60.8901 55.301 61.1403C56.0341 61.4219 56.9506 60.765 56.9506 59.9831C56.9506 58.638 55.6066 58.0124 54.8123 58.9821Z" fill="black"/>
<path d="M62.0435 64.1479C64.1818 66.2123 66.0758 67.9014 66.2284 67.9014C66.4118 67.9014 68.2751 66.2123 70.3829 64.1479L74.2013 60.4258H66.1979L58.1641 60.3945L62.0435 64.1479Z" fill="black"/>
<path d="M47.5694 61.5511C42.7124 61.6449 42.5902 61.6762 42.4375 62.3643C42.2236 63.3028 42.1014 72.9052 42.2847 72.9052C42.5291 72.9052 53.2817 61.8327 53.2817 61.5511C53.2817 61.4259 53.0984 61.3635 52.9151 61.3946C52.7013 61.4259 50.2881 61.5198 47.5694 61.5511Z" fill="black"/>
<path d="M57.2523 67.712C57.3439 70.7148 57.4661 73.2171 57.5578 73.3109C57.8328 73.5612 68.2492 73.8427 68.2492 73.6237C68.2492 73.3422 57.4967 62.2695 57.2523 62.2695C57.1607 62.2695 57.1607 64.7093 57.2523 67.712Z" fill="black"/>
<path d="M51.386 66.6754C49.4921 68.7398 47.9036 70.554 47.8426 70.7104C47.7814 70.8668 48.759 72.0866 50.0114 73.4317C51.2333 74.7766 52.8828 76.5595 53.677 77.4354L55.1127 78.9993V70.9294C55.1127 66.519 55.0516 62.8906 54.9905 62.8906C54.9295 62.8906 53.3105 64.5797 51.386 66.6754Z" fill="black"/>
<path d="M89.0039 66.3332V53.9199H91.3419V64.4712H96.6587V66.3332H89.0039ZM102.325 66.546C101.494 66.546 100.743 66.351 100.074 65.9608C99.4154 65.5589 98.8902 65.0092 98.4975 64.3116C98.1165 63.6023 97.926 62.7925 97.926 61.8822C97.926 60.9482 98.1165 60.1325 98.4975 59.435C98.8902 58.7256 99.4212 58.1759 100.091 57.7858C100.761 57.3838 101.511 57.1828 102.342 57.1828C103.185 57.1828 103.936 57.3838 104.594 57.7858C105.263 58.1759 105.789 58.7256 106.17 59.435C106.562 60.1325 106.758 60.9423 106.758 61.8644C106.758 62.7866 106.562 63.6023 106.17 64.3116C105.789 65.0092 105.263 65.5589 104.594 65.9608C103.924 66.351 103.168 66.546 102.325 66.546ZM102.325 64.4712C102.718 64.4712 103.064 64.3766 103.364 64.1875C103.676 63.9984 103.918 63.7087 104.091 63.3186C104.276 62.9284 104.369 62.4437 104.369 61.8644C104.369 61.2852 104.276 60.8064 104.091 60.428C103.918 60.0379 103.676 59.7482 103.364 59.5591C103.064 59.3581 102.723 59.2576 102.342 59.2576C101.973 59.2576 101.632 59.3581 101.32 59.5591C101.009 59.7482 100.761 60.0379 100.576 60.428C100.403 60.8064 100.316 61.2852 100.316 61.8644C100.316 62.4437 100.403 62.9284 100.576 63.3186C100.761 63.7087 101.003 63.9984 101.303 64.1875C101.615 64.3766 101.956 64.4712 102.325 64.4712ZM108.774 66.3332V57.3956H110.852L111.077 59.0448C111.285 58.6547 111.545 58.3237 111.856 58.0518C112.18 57.7798 112.543 57.567 112.947 57.4134C113.363 57.2597 113.819 57.1828 114.316 57.1828V59.7187H113.519C113.173 59.7187 112.849 59.7601 112.549 59.8428C112.26 59.9255 112.006 60.0616 111.787 60.2507C111.568 60.428 111.4 60.6763 111.285 60.9955C111.169 61.3147 111.112 61.7166 111.112 62.2014V66.3332H108.774ZM119.916 66.546C119.038 66.546 118.259 66.3569 117.578 65.9786C116.908 65.5884 116.383 65.0505 116.002 64.3648C115.632 63.6673 115.448 62.8634 115.448 61.9531C115.448 61.0192 115.632 60.1975 116.002 59.4882C116.383 58.767 116.908 58.2054 117.578 57.8035C118.247 57.3897 119.027 57.1828 119.916 57.1828C120.782 57.1828 121.538 57.3779 122.184 57.768C122.831 58.1582 123.333 58.6842 123.691 59.3463C124.049 60.0084 124.228 60.759 124.228 61.5984C124.228 61.7166 124.228 61.8526 124.228 62.0063C124.228 62.1482 124.217 62.296 124.193 62.4496H117.11V60.9955H121.873C121.838 60.4162 121.636 59.961 121.267 59.63C120.909 59.299 120.458 59.1335 119.916 59.1335C119.523 59.1335 119.16 59.2281 118.825 59.4172C118.49 59.5946 118.224 59.8723 118.028 60.2507C117.843 60.629 117.751 61.1078 117.751 61.6871V62.2014C117.751 62.6861 117.838 63.1117 118.011 63.4782C118.195 63.8328 118.449 64.1106 118.773 64.3116C119.096 64.5007 119.471 64.5954 119.898 64.5954C120.326 64.5954 120.678 64.5007 120.955 64.3116C121.243 64.1225 121.457 63.8801 121.596 63.5846H123.986C123.824 64.1402 123.553 64.6426 123.172 65.0919C122.791 65.5412 122.323 65.8958 121.769 66.1559C121.215 66.4159 120.597 66.546 119.916 66.546ZM126.143 66.3332V57.3956H128.204L128.394 58.5838C128.671 58.1582 129.035 57.8212 129.485 57.573C129.947 57.3129 130.472 57.1828 131.061 57.1828C131.5 57.1828 131.893 57.242 132.239 57.3602C132.585 57.4783 132.891 57.6498 133.157 57.8744C133.434 58.099 133.659 58.3827 133.832 58.7256C134.156 58.2409 134.577 57.8626 135.097 57.5907C135.616 57.3187 136.182 57.1828 136.794 57.1828C137.556 57.1828 138.191 57.3424 138.699 57.6616C139.207 57.969 139.588 58.4182 139.842 59.0094C140.107 59.6005 140.24 60.3276 140.24 61.1906V66.3332H137.919V61.4034C137.919 60.694 137.781 60.1502 137.504 59.7719C137.238 59.3935 136.823 59.2044 136.257 59.2044C135.887 59.2044 135.558 59.299 135.27 59.4882C134.981 59.6773 134.756 59.9492 134.594 60.3039C134.444 60.6586 134.369 61.0842 134.369 61.5807V66.3332H132.031V61.4034C132.031 60.694 131.893 60.1502 131.616 59.7719C131.338 59.3935 130.911 59.2044 130.334 59.2044C129.976 59.2044 129.653 59.299 129.364 59.4882C129.087 59.6773 128.868 59.9492 128.706 60.3039C128.556 60.6586 128.481 61.0842 128.481 61.5807V66.3332H126.143ZM147.937 66.546C146.724 66.546 145.679 66.28 144.802 65.748C143.936 65.2042 143.266 64.4535 142.793 63.4959C142.331 62.5265 142.1 61.4093 142.1 60.1443C142.1 58.8793 142.331 57.7621 142.793 56.7927C143.266 55.8233 143.936 55.0666 144.802 54.5228C145.679 53.979 146.724 53.7071 147.937 53.7071C149.403 53.7071 150.604 54.0795 151.539 54.8243C152.474 55.5691 153.057 56.6213 153.288 57.9808H150.742C150.592 57.3187 150.275 56.8045 149.79 56.438C149.316 56.0597 148.693 55.8706 147.919 55.8706C147.203 55.8706 146.586 56.0479 146.066 56.4026C145.558 56.7454 145.166 57.236 144.889 57.8744C144.611 58.501 144.473 59.2576 144.473 60.1443C144.473 61.0192 144.611 61.7758 144.889 62.4142C145.166 63.0526 145.558 63.5431 146.066 63.886C146.586 64.2289 147.203 64.4003 147.919 64.4003C148.693 64.4003 149.316 64.2289 149.79 63.886C150.263 63.5314 150.575 63.0408 150.725 62.4142H153.288C153.057 63.7027 152.474 64.7135 151.539 65.4466C150.604 66.1796 149.403 66.546 147.937 66.546ZM158.177 66.546C157.449 66.546 156.849 66.4278 156.376 66.1914C155.902 65.9431 155.55 65.6179 155.319 65.216C155.1 64.8022 154.99 64.3471 154.99 63.8506C154.99 63.3068 155.123 62.828 155.388 62.4142C155.665 62.0003 156.075 61.6753 156.618 61.4388C157.172 61.2023 157.865 61.0842 158.696 61.0842H160.861C160.861 60.6468 160.804 60.2862 160.688 60.0024C160.572 59.7069 160.393 59.4882 160.151 59.3463C159.909 59.2044 159.585 59.1335 159.181 59.1335C158.742 59.1335 158.367 59.2339 158.055 59.435C157.755 59.6241 157.571 59.9197 157.501 60.3216H155.233C155.29 59.6832 155.492 59.1335 155.839 58.6724C156.197 58.1996 156.664 57.833 157.241 57.573C157.83 57.3129 158.483 57.1828 159.198 57.1828C160.018 57.1828 160.728 57.3247 161.328 57.6084C161.929 57.8922 162.391 58.3 162.714 58.832C163.038 59.364 163.199 60.0202 163.199 60.8004V66.3332H161.224L160.965 64.9678C160.838 65.2042 160.688 65.417 160.515 65.6062C160.341 65.7953 160.139 65.9608 159.909 66.1027C159.678 66.2446 159.418 66.351 159.129 66.4219C158.841 66.5046 158.523 66.546 158.177 66.546ZM158.731 64.7018C159.031 64.7018 159.297 64.6486 159.528 64.5422C159.77 64.424 159.978 64.2702 160.151 64.0811C160.324 63.8801 160.457 63.6555 160.549 63.4072C160.653 63.1472 160.722 62.8693 160.757 62.5738V62.556H158.973C158.615 62.556 158.321 62.6033 158.09 62.6979C157.871 62.7806 157.709 62.9047 157.605 63.0703C157.501 63.2358 157.449 63.425 157.449 63.6378C157.449 63.8742 157.501 64.0693 157.605 64.223C157.709 64.3766 157.859 64.4949 158.055 64.5776C158.252 64.6603 158.477 64.7018 158.731 64.7018ZM165.38 70.2346V57.3956H167.458L167.718 58.637C167.903 58.3769 168.122 58.1404 168.376 57.9276C168.631 57.703 168.93 57.5257 169.276 57.3956C169.635 57.2538 170.051 57.1828 170.523 57.1828C171.343 57.1828 172.065 57.3897 172.688 57.8035C173.311 58.2173 173.803 58.7788 174.16 59.4882C174.53 60.1857 174.714 60.9837 174.714 61.8822C174.714 62.7806 174.53 63.5846 174.16 64.2939C173.791 64.9914 173.294 65.5412 172.671 65.9431C172.047 66.345 171.337 66.546 170.54 66.546C169.895 66.546 169.334 66.4278 168.861 66.1914C168.399 65.9431 168.018 65.6062 167.718 65.1806V70.2346H165.38ZM169.986 64.4535C170.449 64.4535 170.852 64.3471 171.199 64.1343C171.557 63.9215 171.834 63.62 172.03 63.2299C172.227 62.8398 172.324 62.3905 172.324 61.8822C172.324 61.3738 172.227 60.9246 172.03 60.5344C171.834 60.1325 171.557 59.8251 171.199 59.6123C170.852 59.3877 170.449 59.2754 169.986 59.2754C169.536 59.2754 169.133 59.3877 168.774 59.6123C168.428 59.8251 168.151 60.1266 167.943 60.5167C167.747 60.9068 167.648 61.3561 167.648 61.8644C167.648 62.3727 167.747 62.828 167.943 63.2299C168.151 63.62 168.428 63.9215 168.774 64.1343C169.133 64.3471 169.536 64.4535 169.986 64.4535ZM176.78 66.3332V57.3956H179.118V66.3332H176.78ZM177.958 56.172C177.542 56.172 177.196 56.0479 176.919 55.7996C176.654 55.5396 176.52 55.2144 176.52 54.8243C176.52 54.4342 176.654 54.115 176.919 53.8667C177.196 53.6066 177.542 53.4766 177.958 53.4766C178.386 53.4766 178.732 53.6066 178.997 53.8667C179.274 54.115 179.413 54.4342 179.413 54.8243C179.413 55.2144 179.274 55.5396 178.997 55.7996C178.732 56.0479 178.386 56.172 177.958 56.172ZM185.412 66.3332C184.8 66.3332 184.263 66.2386 183.802 66.0495C183.351 65.8485 182.999 65.5234 182.745 65.0742C182.492 64.6131 182.364 63.9865 182.364 63.1944V59.3995H180.875V57.3956H182.364L182.624 54.9662H184.702V57.3956H187.005V59.3995H184.702V63.2299C184.702 63.6318 184.789 63.9097 184.962 64.0634C185.135 64.217 185.429 64.2939 185.845 64.2939H186.988V66.3332H185.412ZM191.918 66.546C191.19 66.546 190.589 66.4278 190.117 66.1914C189.643 65.9431 189.29 65.6179 189.06 65.216C188.84 64.8022 188.731 64.3471 188.731 63.8506C188.731 63.3068 188.863 62.828 189.129 62.4142C189.407 62.0003 189.816 61.6753 190.359 61.4388C190.913 61.2023 191.606 61.0842 192.437 61.0842H194.602C194.602 60.6468 194.544 60.2862 194.429 60.0024C194.313 59.7069 194.134 59.4882 193.892 59.3463C193.65 59.2044 193.325 59.1335 192.922 59.1335C192.483 59.1335 192.108 59.2339 191.796 59.435C191.496 59.6241 191.312 59.9197 191.242 60.3216H188.974C189.03 59.6832 189.233 59.1335 189.58 58.6724C189.937 58.1996 190.405 57.833 190.983 57.573C191.571 57.3129 192.223 57.1828 192.94 57.1828C193.758 57.1828 194.468 57.3247 195.07 57.6084C195.67 57.8922 196.131 58.3 196.455 58.832C196.778 59.364 196.94 60.0202 196.94 60.8004V66.3332H194.966L194.706 64.9678C194.579 65.2042 194.429 65.417 194.256 65.6062C194.083 65.7953 193.88 65.9608 193.65 66.1027C193.418 66.2446 193.158 66.351 192.87 66.4219C192.581 66.5046 192.264 66.546 191.918 66.546ZM192.472 64.7018C192.771 64.7018 193.037 64.6486 193.269 64.5422C193.511 64.424 193.719 64.2702 193.892 64.0811C194.065 63.8801 194.198 63.6555 194.29 63.4072C194.394 63.1472 194.464 62.8693 194.498 62.5738V62.556H192.714C192.356 62.556 192.061 62.6033 191.831 62.6979C191.611 62.7806 191.45 62.9047 191.346 63.0703C191.242 63.2358 191.19 63.425 191.19 63.6378C191.19 63.8742 191.242 64.0693 191.346 64.223C191.45 64.3766 191.6 64.4949 191.796 64.5776C191.992 64.6603 192.217 64.7018 192.472 64.7018ZM199.121 66.3332V53.5652H201.459V66.3332H199.121Z" fill="black"/>
</svg>
