<svg width="50" height="50" viewBox="0 0 50 50" fill="none" xmlns="http://www.w3.org/2000/svg">
<path d="M43.1066 11.2023C44.4216 11.2023 45.4916 10.1347 45.4916 8.82202C45.4916 7.50698 44.4216 6.4375 43.1066 6.4375C41.7941 6.4375 40.7266 7.50698 40.7266 8.82202C40.7266 10.1347 41.7941 11.2023 43.1066 11.2023ZM43.1066 7.40837C43.8864 7.40837 44.5207 8.04267 44.5207 8.82202C44.5207 9.599 43.8864 10.2314 43.1066 10.2314C42.3296 10.2314 41.6974 9.599 41.6974 8.82202C41.6974 8.04267 42.3296 7.40837 43.1066 7.40837Z" fill="black"/>
<path d="M3.59743 5.36575C3.70789 5.36575 3.81882 5.3283 3.90984 5.25151C4.11487 5.07895 4.14118 4.77271 3.96862 4.56791L3.35685 3.84118C3.18382 3.63544 2.87734 3.60936 2.67278 3.7824C2.46775 3.95495 2.44144 4.2612 2.614 4.46599L3.22577 5.19272C3.32177 5.30697 3.45925 5.36575 3.59743 5.36575Z" fill="black"/>
<path d="M4.65716 6.89213L5.26894 7.61839C5.36493 7.73216 5.50217 7.79095 5.64036 7.79095C5.75082 7.79095 5.86175 7.7535 5.95277 7.6767C6.1578 7.50414 6.18411 7.1979 6.01131 6.99263L5.39954 6.26637C5.22675 6.06158 4.92003 6.03503 4.71571 6.20806C4.51068 6.38062 4.48437 6.68686 4.65716 6.89213Z" fill="black"/>
<path d="M5.16144 5.50044C5.2719 5.50044 5.38283 5.46299 5.47385 5.3862L6.20011 4.77466C6.40514 4.6021 6.43145 4.29586 6.25889 4.09059C6.08562 3.8858 5.77962 3.85925 5.57482 4.03228L4.84856 4.64382C4.64353 4.81638 4.61722 5.12262 4.78978 5.32789C4.88601 5.44166 5.02325 5.50044 5.16144 5.50044Z" fill="black"/>
<path d="M2.364 7.37105C2.46023 7.48482 2.59747 7.54361 2.73566 7.54361C2.84612 7.54361 2.95705 7.50616 3.04807 7.42936L3.77433 6.81782C3.97936 6.64526 4.00567 6.33902 3.83311 6.13375C3.65984 5.92896 3.35383 5.90194 3.14904 6.07545L2.42278 6.68698C2.21775 6.85954 2.19144 7.16578 2.364 7.37105Z" fill="black"/>
<path d="M38.9216 17.7675C39.0321 17.7675 39.143 17.7301 39.234 17.6533C39.439 17.4807 39.4654 17.1745 39.2926 16.9692L38.6808 16.2429C38.508 16.0381 38.2015 16.0116 37.997 16.1846C37.7919 16.3572 37.7656 16.6634 37.9384 16.8687L38.5502 17.595C38.6462 17.7087 38.7834 17.7675 38.9216 17.7675Z" fill="black"/>
<path d="M39.9814 19.2947L40.5932 20.0209C40.6892 20.1347 40.8264 20.1935 40.9646 20.1935C41.075 20.1935 41.186 20.156 41.277 20.0792C41.482 19.9067 41.5083 19.6004 41.3355 19.3952L40.7238 18.6689C40.5505 18.4641 40.2445 18.4371 40.0399 18.6106C39.8349 18.7832 39.8086 19.0894 39.9814 19.2947Z" fill="black"/>
<path d="M40.1143 17.7268C40.2103 17.8406 40.3475 17.8994 40.4857 17.8994C40.5962 17.8994 40.7073 17.8619 40.7984 17.7851L41.5246 17.1731C41.7297 17.0005 41.7557 16.6943 41.5829 16.489C41.4101 16.2842 41.1034 16.2577 40.8989 16.4307L40.1726 17.0427C39.9676 17.2153 39.9415 17.5215 40.1143 17.7268Z" fill="black"/>
<path d="M37.6885 19.7698C37.7845 19.8835 37.9217 19.9423 38.0599 19.9423C38.1704 19.9423 38.2813 19.9049 38.3723 19.8281L39.0988 19.2161C39.3041 19.0435 39.3302 18.7373 39.1574 18.532C38.9843 18.3272 38.6783 18.3007 38.4735 18.4737L37.747 19.0857C37.5418 19.2583 37.5157 19.5645 37.6885 19.7698Z" fill="black"/>
<path d="M48.0037 45.3594H47.0401C46.772 45.3594 46.5547 45.5765 46.5547 45.8448C46.5547 46.1131 46.772 46.3302 47.0401 46.3302H48.0037C48.2717 46.3302 48.4891 46.1131 48.4891 45.8448C48.4891 45.5765 48.2717 45.3594 48.0037 45.3594Z" fill="black"/>
<path d="M45.7633 45.8469C45.7633 45.5786 45.546 45.3615 45.2779 45.3615H44.4877C45.1042 44.7729 45.4907 43.9454 45.4907 43.0277V26.5541C45.4907 24.7731 44.042 23.3243 42.2612 23.3243H34.9121V15.043C34.9121 15.032 34.9066 15.0228 34.9058 15.0119C34.903 14.9679 34.8946 14.9255 34.88 14.8839C34.8741 14.8671 34.8689 14.851 34.8612 14.8351C34.8419 14.7944 34.8163 14.7574 34.7856 14.7229C34.7779 14.7143 34.7727 14.704 34.7644 14.6959C34.7624 14.694 34.7613 14.6913 34.7592 14.6893L27.8827 8.22554C27.8433 8.18841 27.798 8.16092 27.7503 8.13938C27.7367 8.13316 27.7221 8.13049 27.7079 8.12554C27.6662 8.1112 27.6239 8.10252 27.5801 8.09976C27.5696 8.09908 27.5608 8.09375 27.5502 8.09375H7.65747C5.92028 8.09375 4.50687 9.5074 4.50687 11.2448V45.3615H4.49716C4.22908 45.3615 4.01172 45.5786 4.01172 45.8469C4.01172 46.1152 4.22908 46.3323 4.49716 46.3323H45.2779C45.546 46.3323 45.7633 46.1152 45.7633 45.8469ZM28.0356 9.70176L33.2015 14.5576H28.883C28.4158 14.5576 28.0356 14.1774 28.0356 13.7099V9.70176ZM5.47775 45.3615V11.2448C5.47775 10.0426 6.4555 9.06462 7.65747 9.06462H27.0648V13.7099C27.0648 14.7126 27.8804 15.5284 28.883 15.5284H33.9412V23.3243H29.0714C27.6721 23.3243 26.4812 24.2206 26.0338 25.468H8.09171C7.82363 25.468 7.60627 25.6852 7.60627 25.9535C7.60627 26.2218 7.82363 26.4389 8.09171 26.4389H25.8478C25.8464 26.4775 25.8419 26.5152 25.8419 26.5541V29.6668H8.09171C7.82363 29.6668 7.60627 29.8839 7.60627 30.1522C7.60627 30.4205 7.82363 30.6376 8.09171 30.6376H25.8419V33.865H8.09171C7.82363 33.865 7.60627 34.0822 7.60627 34.3505C7.60627 34.6188 7.82363 34.8359 8.09171 34.8359H25.8419V38.0638H8.09171C7.82363 38.0638 7.60627 38.2809 7.60627 38.5492C7.60627 38.8175 7.82363 39.0347 8.09171 39.0347H25.8419V42.2625H8.09171C7.82363 42.2625 7.60627 42.4797 7.60627 42.748C7.60627 43.0163 7.82363 43.2334 8.09171 43.2334H25.8523C25.9054 44.0686 26.2751 44.8175 26.845 45.3615H5.47775ZM42.2612 45.2866H29.0714C27.8261 45.2866 26.8128 44.273 26.8128 43.0277V26.5541C26.8128 25.3087 27.8261 24.2952 29.0714 24.2952H42.2612C43.5066 24.2952 44.5199 25.3087 44.5199 26.5541V43.0277C44.5199 44.273 43.5066 45.2866 42.2612 45.2866Z" fill="black"/>
<path d="M1.99325 46.3302H2.81029C3.07837 46.3302 3.29573 46.1131 3.29573 45.8448C3.29573 45.5765 3.07837 45.3594 2.81029 45.3594H1.99325C1.72517 45.3594 1.50781 45.5765 1.50781 45.8448C1.50781 46.1131 1.72517 46.3302 1.99325 46.3302Z" fill="black"/>
<path d="M8.09091 22.2404H31.3265C31.5945 22.2404 31.8119 22.0233 31.8119 21.755C31.8119 21.4867 31.5945 21.2695 31.3265 21.2695H8.09091C7.82283 21.2695 7.60547 21.4867 7.60547 21.755C7.60547 22.0233 7.82283 22.2404 8.09091 22.2404Z" fill="black"/>
<path d="M14.5206 18.0412H25.3038C25.5719 18.0412 25.7892 17.8241 25.7892 17.5557C25.7892 17.2874 25.5719 17.0703 25.3038 17.0703H14.5206C14.2525 17.0703 14.0352 17.2874 14.0352 17.5557C14.0352 17.8241 14.2525 18.0412 14.5206 18.0412Z" fill="black"/>
<path d="M14.5206 13.842H25.3038C25.5719 13.842 25.7892 13.6248 25.7892 13.3565C25.7892 13.0882 25.5719 12.8711 25.3038 12.8711H14.5206C14.2525 12.8711 14.0352 13.0882 14.0352 13.3565C14.0352 13.6248 14.2525 13.842 14.5206 13.842Z" fill="black"/>
<path d="M9.20885 16.9719C9.15978 16.9515 9.11048 16.9444 9.05572 16.9425C8.95854 16.9434 8.868 16.9823 8.80803 17.0473C8.74522 17.1146 8.71369 17.1961 8.71488 17.2909C8.71606 17.3649 8.73976 17.4317 8.78551 17.4891C8.82984 17.5455 8.88506 17.5872 8.94859 17.6119C9.34846 17.7792 9.78459 17.8797 10.2451 17.9096L10.3324 17.9148L10.3388 18.3647C10.3397 18.4282 10.3615 18.4808 10.4023 18.5202C10.4409 18.559 10.4928 18.5789 10.5564 18.5789H10.5594C10.6215 18.5775 10.6763 18.5567 10.7173 18.5183C10.7604 18.477 10.7818 18.423 10.7808 18.358L10.7742 17.9081L10.8583 17.8972C11.1193 17.8645 11.354 17.7958 11.5559 17.6929C11.7991 17.5697 11.9894 17.4061 12.1212 17.2061C12.2547 17.0046 12.3206 16.7747 12.317 16.5215C12.3125 16.2129 12.2296 15.9631 12.0703 15.7782C11.915 15.5971 11.7225 15.4596 11.4988 15.37C11.3122 15.2956 11.0795 15.225 10.8071 15.161L10.7348 15.1439L10.7142 13.6914L10.8157 13.6971C11.0894 13.7122 11.3589 13.7649 11.6154 13.8526C11.6768 13.8753 11.7304 13.8805 11.7804 13.8862C11.8612 13.8848 11.9252 13.8507 11.9944 13.7715C12.0534 13.7018 12.0826 13.6217 12.0812 13.5331C12.0788 13.37 11.9966 13.2557 11.8437 13.2036C11.5189 13.0903 11.1653 13.0225 10.7927 13.0026L10.7043 12.9978L10.6979 12.556C10.6972 12.4925 10.6749 12.4389 10.6313 12.3963C10.5919 12.3583 10.5348 12.3365 10.4741 12.3365C10.4096 12.3313 10.3506 12.3612 10.3132 12.4029C10.2748 12.4456 10.2551 12.5006 10.256 12.5622L10.2624 13.0125L10.1781 13.023C9.90074 13.0566 9.65683 13.1301 9.45299 13.242C9.20979 13.3747 9.02396 13.5496 8.90071 13.7616C8.77769 13.9735 8.71725 14.2081 8.72104 14.4589C8.72507 14.7504 8.80827 14.9894 8.96802 15.17C9.12328 15.3463 9.31504 15.4819 9.53808 15.5729C9.72439 15.6497 9.9581 15.7246 10.2326 15.7962L10.3025 15.8142L10.3224 17.2084L10.2203 17.2023C9.85049 17.179 9.51058 17.1013 9.20885 16.9719ZM10.8692 15.9541C11.0774 16.0157 11.2433 16.0816 11.3623 16.1508C11.5054 16.2338 11.5732 16.3423 11.5756 16.4921C11.5808 16.8719 11.3511 17.0956 10.873 17.1753L10.7642 17.1933L10.746 15.9176L10.8692 15.9541ZM10.1679 15.0074C9.96379 14.9472 9.79952 14.8789 9.68006 14.804C9.53547 14.7125 9.46389 14.5807 9.46128 14.4015C9.45844 14.211 9.53381 14.0607 9.69168 13.9412C9.81517 13.8469 9.97232 13.7786 10.1593 13.7388L10.2724 13.7151L10.2914 15.0439L10.1679 15.0074Z" fill="black"/>
<path d="M32.051 34.3047H29.7904C29.29 34.3047 28.8828 34.7119 28.8828 35.2125V37.0277C28.8828 37.5283 29.29 37.9355 29.7904 37.9355H32.051C32.5513 37.9355 32.9583 37.5283 32.9583 37.0277V35.2125C32.9583 34.7119 32.5513 34.3047 32.051 34.3047ZM31.9874 36.9646H29.8537V35.2756H31.9874V36.9646Z" fill="black"/>
<path d="M36.797 34.3047H34.5365C34.0361 34.3047 33.6289 34.7119 33.6289 35.2125V37.0277C33.6289 37.5283 34.0361 37.9355 34.5365 37.9355H36.797C37.2974 37.9355 37.7044 37.5283 37.7044 37.0277V35.2125C37.7044 34.7119 37.2974 34.3047 36.797 34.3047ZM36.7335 36.9646H34.5998V35.2756H36.7335V36.9646Z" fill="black"/>
<path d="M32.051 39.3867H29.7904C29.29 39.3867 28.8828 39.7939 28.8828 40.2945V42.1097C28.8828 42.6103 29.29 43.0175 29.7904 43.0175H32.051C32.5513 43.0175 32.9583 42.6103 32.9583 42.1097V40.2945C32.9583 39.7939 32.5513 39.3867 32.051 39.3867ZM31.9874 42.0467H29.8537V40.3576H31.9874V42.0467Z" fill="black"/>
<path d="M36.797 39.3867H34.5365C34.0361 39.3867 33.6289 39.7939 33.6289 40.2945V42.1097C33.6289 42.6103 34.0361 43.0175 34.5365 43.0175H36.797C37.2974 43.0175 37.7044 42.6103 37.7044 42.1097V40.2945C37.7044 39.7939 37.2974 39.3867 36.797 39.3867ZM36.7335 42.0467H34.5998V40.3576H36.7335V42.0467Z" fill="black"/>
<path d="M41.5431 34.3477H39.2826C38.7822 34.3477 38.375 34.7549 38.375 35.255V42.1132C38.375 42.6138 38.7822 43.021 39.2826 43.021H41.5431C42.0435 43.021 42.4505 42.6138 42.4505 42.1132V35.255C42.4505 34.7549 42.0435 34.3477 41.5431 34.3477ZM41.4796 42.0502H39.3459V35.3185H41.4796V42.0502Z" fill="black"/>
<path d="M30.0787 32.4695H40.8235C41.638 32.4695 42.3005 31.8068 42.3005 30.9923V27.8673C42.3005 27.0529 41.638 26.3906 40.8235 26.3906H30.0787C29.2643 26.3906 28.6016 27.0529 28.6016 27.8673V30.9923C28.6016 31.8068 29.2643 32.4695 30.0787 32.4695ZM29.5724 27.8673C29.5724 27.5886 29.7995 27.3615 30.0787 27.3615H40.8235C41.1025 27.3615 41.3296 27.5886 41.3296 27.8673V30.9923C41.3296 31.2715 41.1025 31.4986 40.8235 31.4986H30.0787C29.7995 31.4986 29.5724 31.2715 29.5724 30.9923V27.8673Z" fill="black"/>
</svg>
