<svg width="439" height="439" viewBox="0 0 439 439" fill="none" xmlns="http://www.w3.org/2000/svg">
<path d="M282.351 118.783H158.029C135.681 118.783 117.499 136.965 117.499 159.313V279.285C117.499 301.633 135.681 319.815 158.029 319.815H282.351C304.698 319.815 322.881 301.633 322.881 279.285V159.313C322.881 136.965 304.699 118.783 282.351 118.783ZM307.521 279.285C307.521 293.163 296.23 304.455 282.351 304.455H158.029C144.15 304.455 132.859 293.163 132.859 279.285V159.313C132.859 145.435 144.15 134.143 158.029 134.143H282.351C296.23 134.143 307.521 145.435 307.521 159.313V279.285ZM165.606 62.0513V91.1678C165.606 93.2046 166.416 95.1581 167.856 96.5983C169.296 98.0386 171.25 98.8477 173.286 98.8477C175.323 98.8477 177.277 98.0386 178.717 96.5983C180.157 95.1581 180.966 93.2046 180.966 91.1678V62.0513C194.637 58.6138 204.788 46.2223 204.788 31.5013C204.788 14.1312 190.657 0 173.286 0C155.916 0 141.785 14.1312 141.785 31.5013C141.785 46.2223 151.937 58.6138 165.606 62.0513ZM173.286 15.36C182.187 15.36 189.428 22.6007 189.428 31.5013C189.428 40.4009 182.187 47.6426 173.286 47.6426C164.386 47.6426 157.145 40.4009 157.145 31.5013C157.145 22.6007 164.386 15.36 173.286 15.36ZM255.854 62.0513V91.1678C255.854 93.2046 256.663 95.1581 258.103 96.5983C259.543 98.0386 261.497 98.8477 263.534 98.8477C265.57 98.8477 267.524 98.0386 268.964 96.5983C270.404 95.1581 271.214 93.2046 271.214 91.1678V62.0513C284.884 58.6138 295.035 46.2223 295.035 31.5013C295.035 14.1312 280.904 0 263.534 0C246.163 0 232.032 14.1312 232.032 31.5013C232.032 46.2223 242.184 58.6138 255.854 62.0513ZM263.534 15.36C272.434 15.36 279.675 22.6007 279.675 31.5013C279.675 40.4009 272.434 47.6426 263.534 47.6426C254.633 47.6426 247.392 40.4009 247.392 31.5013C247.392 22.6007 254.632 15.36 263.534 15.36ZM272.993 376.546V347.43C272.993 345.393 272.184 343.44 270.744 341.999C269.304 340.559 267.35 339.75 265.313 339.75C263.276 339.75 261.323 340.559 259.883 341.999C258.442 343.44 257.633 345.393 257.633 347.43V376.546C243.963 379.984 233.812 392.375 233.812 407.096C233.812 424.466 247.943 438.598 265.313 438.598C282.683 438.598 296.815 424.466 296.815 407.096C296.815 392.375 286.663 379.984 272.993 376.546ZM265.313 423.238C256.413 423.238 249.172 415.997 249.172 407.096C249.172 398.197 256.413 390.955 265.313 390.955C274.214 390.955 281.455 398.197 281.455 407.096C281.455 415.997 274.214 423.238 265.313 423.238ZM182.746 376.546V347.43C182.746 345.393 181.937 343.44 180.497 341.999C179.056 340.559 177.103 339.75 175.066 339.75C173.029 339.75 171.076 340.559 169.636 341.999C168.195 343.44 167.386 345.393 167.386 347.43V376.546C153.716 379.984 143.565 392.375 143.565 407.096C143.565 424.466 157.696 438.598 175.066 438.598C192.436 438.598 206.567 424.466 206.567 407.096C206.567 392.375 196.415 379.984 182.746 376.546ZM175.066 423.238C166.166 423.238 158.925 415.997 158.925 407.096C158.925 398.197 166.166 390.955 175.066 390.955C183.967 390.955 191.207 398.197 191.207 407.096C191.207 415.997 183.968 423.238 175.066 423.238ZM347.431 180.965H376.547C379.985 194.636 392.376 204.787 407.098 204.787C424.467 204.787 438.599 190.655 438.599 173.285C438.599 155.915 424.467 141.784 407.098 141.784C392.377 141.784 379.985 151.936 376.547 165.605H347.431C345.394 165.605 343.441 166.415 342 167.855C340.56 169.295 339.751 171.249 339.751 173.285C339.751 175.322 340.56 177.276 342 178.716C343.441 180.156 345.394 180.965 347.431 180.965ZM407.098 157.144C415.997 157.144 423.239 164.386 423.239 173.285C423.239 182.186 415.998 189.427 407.098 189.427C398.197 189.427 390.956 182.186 390.956 173.285C390.956 164.385 398.197 157.144 407.097 157.144H407.098ZM407.098 232.031C392.376 232.031 379.985 242.182 376.547 255.853H347.431C345.394 255.853 343.441 256.662 342 258.102C340.56 259.542 339.751 261.496 339.751 263.533C339.751 265.569 340.56 267.523 342 268.963C343.441 270.403 345.394 271.213 347.431 271.213H376.547C379.985 284.882 392.376 295.034 407.098 295.034C424.467 295.034 438.599 280.903 438.599 263.533C438.599 246.162 424.467 232.031 407.098 232.031ZM407.098 279.674C398.197 279.674 390.956 272.433 390.956 263.533C390.956 254.632 398.197 247.391 407.097 247.391C415.998 247.391 423.239 254.631 423.239 263.533C423.239 272.434 415.998 279.674 407.097 279.674H407.098ZM91.1688 257.632H62.0544C58.6158 243.962 46.2244 233.811 31.5034 233.811C14.1333 233.811 0.00204688 247.942 0.00204688 265.312C0.00204688 282.681 14.1332 296.814 31.5023 296.814C46.2244 296.814 58.6158 286.662 62.0544 272.992H91.1698C93.2067 272.992 95.1601 272.183 96.6004 270.743C98.0407 269.303 98.8498 267.349 98.8498 265.312C98.8498 263.275 98.0407 261.322 96.6004 259.882C95.1601 258.441 93.2067 257.632 91.1698 257.632H91.1688ZM31.5023 281.454C22.6017 281.454 15.361 274.212 15.361 265.312C15.361 256.412 22.6017 249.171 31.5013 249.171C40.4029 249.171 47.6436 256.412 47.6436 265.312C47.6436 274.212 40.404 281.454 31.5023 281.454ZM91.1688 167.385H62.0544C58.6138 153.716 46.2234 143.564 31.5013 143.564C14.1312 143.564 0 157.695 0 175.065C0 192.435 14.1312 206.566 31.5003 206.566C46.2223 206.566 58.6138 196.415 62.0524 182.745H91.1678C93.2046 182.745 95.1581 181.936 96.5983 180.496C98.0386 179.055 98.8478 177.102 98.8478 175.065C98.8478 173.028 98.0386 171.075 96.5983 169.635C95.1581 168.194 93.2056 167.385 91.1688 167.385ZM31.5023 191.206C22.6017 191.206 15.361 183.967 15.361 175.065C15.361 166.163 22.6017 158.924 31.5013 158.924C40.4029 158.924 47.6436 166.164 47.6436 175.065C47.6436 183.966 40.404 191.206 31.5023 191.206Z" fill="white"/>
<path d="M211.685 178.073C210.66 175.758 208.984 173.79 206.862 172.409C204.741 171.028 202.263 170.293 199.731 170.293C197.2 170.293 194.722 171.028 192.6 172.409C190.478 173.79 188.803 175.758 187.778 178.073L154.641 252.907C152.298 258.197 156.171 264.148 161.957 264.148C163.516 264.148 165.041 263.693 166.344 262.838C167.648 261.984 168.673 260.767 169.295 259.338L175.596 244.851C175.766 244.459 176.048 244.125 176.405 243.891C176.763 243.657 177.181 243.532 177.609 243.532H221.789C222.663 243.532 223.453 244.05 223.802 244.851L230.094 259.32C230.718 260.755 231.747 261.976 233.056 262.834C234.365 263.692 235.895 264.149 237.46 264.148C243.267 264.148 247.155 258.175 244.804 252.864L211.685 178.073ZM213.992 229.721H185.602C185.238 229.722 184.88 229.631 184.56 229.458C184.239 229.285 183.967 229.035 183.767 228.731C183.568 228.427 183.447 228.077 183.416 227.715C183.385 227.352 183.444 226.987 183.589 226.654L197.785 193.974C198.549 192.213 201.045 192.213 201.81 193.974L216.005 226.654C216.15 226.987 216.209 227.352 216.178 227.715C216.147 228.077 216.026 228.427 215.826 228.731C215.627 229.035 215.354 229.285 215.034 229.458C214.714 229.631 214.356 229.722 213.992 229.721ZM269.303 170.294C267.099 170.294 264.984 171.169 263.426 172.728C261.867 174.287 260.991 176.401 260.991 178.605V255.836C260.991 258.04 261.867 260.154 263.426 261.713C264.984 263.272 267.099 264.147 269.303 264.147C271.507 264.147 273.622 263.272 275.18 261.713C276.739 260.154 277.615 258.04 277.615 255.836V178.605C277.615 176.401 276.739 174.287 275.18 172.728C273.622 171.169 271.507 170.294 269.303 170.294Z" fill="white"/>
</svg>
