<svg width="50" height="50" viewBox="0 0 50 50" fill="none" xmlns="http://www.w3.org/2000/svg">
<path d="M5.60104 19.645L4.9895 18.9188C4.81742 18.7144 4.5107 18.6869 4.30544 18.8604C4.10064 19.033 4.07409 19.3392 4.24713 19.5445L4.85866 20.2708C5.03104 20.4756 5.33794 20.5019 5.54273 20.3291C5.74753 20.1565 5.77407 19.8503 5.60104 19.645Z" fill="black"/>
<path d="M6.29009 21.9703L6.90163 22.6966C7.07401 22.9013 7.3809 22.9277 7.5857 22.7549C7.79049 22.5823 7.81704 22.2761 7.64401 22.0708L7.03247 21.3445C6.86039 21.1402 6.55367 21.1127 6.3484 21.2862C6.14361 21.4588 6.11706 21.765 6.29009 21.9703Z" fill="black"/>
<path d="M7.89135 19.1687C7.71832 18.9639 7.41255 18.9374 7.20728 19.1104L6.48102 19.7224C6.27623 19.895 6.25015 20.2012 6.42271 20.4065C6.59702 20.6126 6.90314 20.6366 7.10678 20.4648L7.83304 19.8528C8.03783 19.6802 8.06391 19.374 7.89135 19.1687Z" fill="black"/>
<path d="M3.99713 22.4498C4.16951 22.6546 4.4764 22.6809 4.68119 22.5082L5.40792 21.8961C5.61272 21.7236 5.63927 21.4173 5.46624 21.2121C5.29415 21.0073 4.98791 20.9798 4.78217 21.1538L4.05543 21.7658C3.85064 21.9383 3.82409 22.2446 3.99713 22.4498Z" fill="black"/>
<path d="M4.30544 36.4545C4.10064 36.6271 4.07409 36.9333 4.24713 37.1386L4.85866 37.8649C5.03104 38.0697 5.33794 38.096 5.54273 37.9232C5.74753 37.7506 5.77407 37.4444 5.60104 37.2391L4.9895 36.5129C4.81742 36.3081 4.5107 36.2806 4.30544 36.4545Z" fill="black"/>
<path d="M6.29009 39.5644L6.90163 40.2907C7.07401 40.4954 7.3809 40.5218 7.5857 40.349C7.79049 40.1764 7.81704 39.8702 7.64401 39.6649L7.03247 38.9386C6.86039 38.7338 6.55367 38.7063 6.3484 38.8803C6.14361 39.0529 6.11706 39.3591 6.29009 39.5644Z" fill="black"/>
<path d="M7.20728 36.7045L6.48102 37.3166C6.27623 37.4891 6.25015 37.7954 6.42271 38.0006C6.59666 38.2062 6.90273 38.2311 7.10678 38.0589L7.83304 37.4469C8.03783 37.2744 8.06391 36.9681 7.89135 36.7629C7.71832 36.5581 7.41255 36.5306 7.20728 36.7045Z" fill="black"/>
<path d="M3.99713 40.0432C4.16951 40.248 4.4764 40.2743 4.68119 40.1016L5.40792 39.4895C5.61272 39.317 5.63927 39.0107 5.46624 38.8055C5.29415 38.6012 4.98791 38.5737 4.78217 38.7472L4.05543 39.3592C3.85064 39.5317 3.82409 39.838 3.99713 40.0432Z" fill="black"/>
<path d="M44.4112 4.48512C44.2386 4.28033 43.9324 4.25378 43.7271 4.42681C43.5223 4.59937 43.4962 4.90561 43.6688 5.11088L44.2808 5.83714C44.4548 6.04276 44.7608 6.06765 44.9649 5.89545C45.1697 5.72289 45.1958 5.41665 45.0232 5.21138L44.4112 4.48512Z" fill="black"/>
<path d="M45.7118 7.53647L46.3238 8.26273C46.4977 8.46835 46.8038 8.49324 47.0079 8.32104C47.2126 8.14848 47.2387 7.84224 47.0662 7.63697L46.4542 6.91071C46.2811 6.70591 45.9749 6.67984 45.7701 6.8524C45.5653 7.02496 45.5392 7.3312 45.7118 7.53647Z" fill="black"/>
<path d="M46.5288 6.03077L47.2551 5.41923C47.4599 5.24667 47.4864 4.94043 47.3134 4.73516C47.1413 4.53084 46.8346 4.50335 46.6293 4.67685L45.9031 5.28839C45.6983 5.46095 45.6717 5.76719 45.8448 5.97246C46.0172 6.17725 46.3241 6.20356 46.5288 6.03077Z" fill="black"/>
<path d="M44.1031 8.07409L44.8293 7.46255C45.0341 7.28999 45.0607 6.98375 44.8876 6.77848C44.7156 6.57369 44.4088 6.54619 44.2036 6.72017L43.4773 7.33171C43.2725 7.50427 43.246 7.81051 43.419 8.01578C43.5914 8.22057 43.8983 8.24688 44.1031 8.07409Z" fill="black"/>
<path d="M48.0054 45.5195H45.3682C45.0999 45.5195 44.8828 45.7367 44.8828 46.005C44.8828 46.2733 45.0999 46.4904 45.3682 46.4904H48.0054C48.2738 46.4904 48.4909 46.2733 48.4909 46.005C48.4909 45.7367 48.2738 45.5195 48.0054 45.5195Z" fill="black"/>
<path d="M1.99325 46.4904H3.48796C3.75628 46.4904 3.9734 46.2733 3.9734 46.005C3.9734 45.7367 3.75628 45.5195 3.48796 45.5195H1.99325C1.72493 45.5195 1.50781 45.7367 1.50781 46.005C1.50781 46.2733 1.72493 46.4904 1.99325 46.4904Z" fill="black"/>
<path d="M13.9347 14.2912H38.6327C38.901 14.2912 39.1181 14.0741 39.1181 13.8057C39.1181 13.5374 38.901 13.3203 38.6327 13.3203H13.9347C13.6663 13.3203 13.4492 13.5374 13.4492 13.8057C13.4492 14.0741 13.6663 14.2912 13.9347 14.2912Z" fill="black"/>
<path d="M13.9347 8.66619H38.6327C38.901 8.66619 39.1181 8.44907 39.1181 8.18075C39.1181 7.91243 38.901 7.69531 38.6327 7.69531H13.9347C13.6663 7.69531 13.4492 7.91243 13.4492 8.18075C13.4492 8.44907 13.6663 8.66619 13.9347 8.66619Z" fill="black"/>
<path d="M27.0195 36.3956C27.0111 36.4059 27.0027 36.4164 26.9961 36.4244C27.0095 36.4079 27.0234 36.3908 27.0363 36.375C27.0311 36.3813 27.0261 36.3874 27.0195 36.3956Z" fill="black"/>
<path d="M43.0644 15.8806V7.62821C43.0644 5.35628 41.2149 3.51172 38.943 3.51172H6.85562C4.85076 3.51172 3.21484 5.14272 3.21484 7.1525V14.4535C3.21484 15.5602 4.11292 16.4583 5.21484 16.4583H9.52552L9.4964 44.0942C9.4964 44.6278 9.67106 45.1228 9.96684 45.5207H5.36989C5.10157 45.5207 4.88445 45.7379 4.88445 46.0062C4.88445 46.2745 5.10157 46.4916 5.36989 46.4916C6.9099 46.4916 44.0148 46.4916 43.6919 46.4916C43.9602 46.4916 44.1773 46.2745 44.1773 46.0062C44.1773 45.7379 43.9602 45.5207 43.6919 45.5207H42.5891C42.8897 45.1228 43.0644 44.6278 43.0644 44.0942V24.2447L45.1372 21.6962L45.1381 21.695L45.573 22.0491C45.7062 22.1577 45.7896 22.3122 45.8072 22.4833C45.8247 22.6545 45.7744 22.8218 45.6659 22.955L43.526 25.5832C43.3567 25.7913 43.388 26.0971 43.5957 26.2663C43.6857 26.3398 43.7943 26.3754 43.9019 26.3754C44.0432 26.3754 44.183 26.3142 44.2788 26.1966L46.4187 23.5685C46.6913 23.2338 46.8169 22.8133 46.7728 22.3843C46.7287 21.9548 46.5201 21.5684 46.1859 21.2963L45.7535 20.944L45.9381 20.7156C46.3216 20.2399 46.2488 19.5456 45.7828 19.1622L46.2586 18.5844C46.6178 18.1525 46.7828 17.6088 46.7294 17.0505C46.6712 16.4923 46.4042 15.9923 45.9721 15.6379C45.0817 14.8977 43.786 15.0386 43.0644 15.8806ZM9.52552 15.4874H5.21484C4.64689 15.4874 4.18572 15.0214 4.18572 14.4535V7.1525C4.18572 5.67236 5.3914 4.48259 6.85562 4.48259C8.34067 4.48259 9.53038 5.69002 9.53038 7.1525C9.53038 15.2423 9.52769 11.8281 9.52552 15.4874ZM42.0935 44.0942C42.0935 44.8783 41.4613 45.5168 40.6782 45.5207H11.8826C11.0995 45.5168 10.4673 44.8783 10.4673 44.099C10.4673 44.0234 10.5006 7.86228 10.5013 7.1525C10.5013 6.09416 10.0498 5.14272 9.32651 4.48259H38.943C40.6809 4.48259 42.0935 5.89517 42.0935 7.62821V16.3564C42.0013 16.3418 41.909 16.3369 41.8119 16.3466C41.5158 16.3758 41.2537 16.5213 41.0644 16.7496C41.0235 16.7998 39.0158 19.2645 39.0567 19.2142C38.976 19.058 38.8179 18.9483 38.6299 18.9483H13.9319C13.6636 18.9483 13.4464 19.1654 13.4464 19.4337C13.4464 19.702 13.6636 19.9192 13.9319 19.9192H38.4869L34.6954 24.5748H13.9333C13.6615 24.5748 13.4479 24.7932 13.4479 25.0602C13.4479 25.3272 13.6615 25.5456 13.9333 25.5456H33.909L33.7051 25.7932C33.5158 26.0214 33.4284 26.3078 33.4576 26.6039C33.4673 26.6962 33.4867 26.7835 33.5207 26.866L30.8071 30.201H13.9333C13.6615 30.201 13.4479 30.4195 13.4479 30.6865C13.4479 30.9534 13.6615 31.1719 13.9333 31.1719H30.0158L25.9139 36.2107C25.909 36.2204 25.8993 36.2253 25.8945 36.235C25.875 36.2593 25.8556 36.2884 25.8411 36.3176C25.8216 36.3515 25.8071 36.3952 25.7974 36.434L25.7877 36.4826L24.8168 40.7301C24.7294 40.7301 24.6323 40.7204 24.5886 40.6961C24.4089 40.5766 24.1771 40.3247 23.6906 40.2447C23.2682 40.1671 21.8896 40.5893 21.3119 40.8321C21.0401 40.3418 20.4042 39.5554 19.9187 39.3709C19.4576 39.1913 19.0013 39.2787 18.5935 39.3516C18.477 39.3757 18.3605 39.4 18.244 39.4098C18.1615 39.4195 18.0789 39.4292 18.0013 39.434C18.0013 39.4195 18.0061 39.4049 18.0061 39.3903C18.0401 39.0214 18.0838 38.5943 17.977 38.1621C17.7974 37.4534 17.176 36.8223 16.3265 37.002C15.8556 37.0991 15.4576 37.4486 15.2925 37.9194C14.9479 38.9049 15.6129 39.8176 16.4187 40.1767C16.5692 40.2447 16.7246 40.2933 16.8799 40.332C16.778 40.7155 16.6178 41.0506 16.3362 41.2642C16.1275 41.4243 15.8313 41.4874 15.5304 41.4388C15.2294 41.3903 14.9673 41.2301 14.8217 41.0117C14.6712 40.7884 14.3702 40.7301 14.1469 40.8806C13.9236 41.0262 13.8653 41.3272 14.0158 41.5505C14.312 41.9923 14.8071 42.3029 15.3702 42.3951C15.4916 42.4146 15.6081 42.4243 15.7294 42.4243C16.1712 42.4243 16.5935 42.2932 16.9236 42.0359C17.4576 41.633 17.7148 41.0409 17.8556 40.4146C18.0401 40.4098 18.21 40.3952 18.3556 40.3758C18.4916 40.3612 18.6323 40.332 18.7731 40.3077C19.0789 40.2495 19.3653 40.1961 19.5692 40.2738C19.7294 40.3418 20.21 40.8466 20.4576 41.298C20.6906 41.7204 21.2051 41.9048 21.6614 41.7253C22.3847 41.4388 23.3653 41.201 23.5255 41.201C23.676 41.2253 23.7488 41.2836 23.875 41.3758C23.943 41.4291 24.011 41.4777 24.0838 41.5213C24.3022 41.6524 24.7246 41.7447 25.1032 41.6816C25.1372 41.6864 25.1712 41.6913 25.2051 41.6913C25.2731 41.6913 25.3411 41.6767 25.409 41.6477L29.7585 39.6573C29.8362 39.6233 29.8993 39.5699 29.9479 39.502L37.5546 30.1524C37.6081 30.1622 37.6615 30.167 37.7148 30.167C37.7537 30.167 37.7877 30.167 37.8265 30.1622C38.1226 30.133 38.3896 29.9875 38.5741 29.7592L42.0935 25.4389V44.0942ZM26.9583 36.466C26.9568 36.4677 26.9555 36.4694 26.9545 36.4707C26.9584 36.4657 26.9607 36.463 26.9645 36.4584C26.971 36.4503 26.9806 36.4386 26.9935 36.4228C26.9917 36.425 26.99 36.427 26.9883 36.4291C26.9986 36.4165 27.0089 36.4039 27.0169 36.394C27.025 36.3841 27.0331 36.374 27.043 36.3619C27.0401 36.3655 27.0369 36.3695 27.0337 36.3734C27.0545 36.3478 27.0651 36.3348 27.0676 36.3317C27.4519 35.8595 28.9756 33.9875 34.1712 27.6039L36.7051 29.667L29.4867 38.5311L26.9527 36.4728C26.9498 36.4764 26.9521 36.4737 26.9583 36.466ZM28.642 39.0991L25.8993 40.3563L26.5692 37.4098L28.642 39.0991ZM17.0401 39.2981C17.0352 39.3224 17.0352 39.3466 17.0352 39.366C16.9576 39.3466 16.8799 39.3175 16.8119 39.2884C16.3993 39.1039 16.0595 38.6622 16.21 38.2446C16.2585 38.0991 16.3896 37.9777 16.5255 37.9486C16.5498 37.9437 16.5789 37.9437 16.6032 37.9437C16.909 37.9437 17.0207 38.3467 17.0352 38.4C17.0984 38.667 17.0692 38.9875 17.0401 39.2981ZM45.1857 20.1039C45.1462 20.1525 42.9232 22.8842 43.0644 22.7107L42.0935 23.9001L37.8217 29.1477C37.7925 29.1816 37.7537 29.1913 37.7294 29.1961C37.7003 29.1961 37.6712 29.1961 37.6323 29.1718C37.6323 29.167 37.6275 29.167 37.6275 29.167L34.477 26.5991C34.4381 26.57 34.4284 26.5311 34.4236 26.5068C34.4236 26.4778 34.4236 26.4438 34.4576 26.4049C37.2849 22.9329 38.886 20.9628 41.8168 17.3611C41.8459 17.3272 41.8848 17.3127 41.909 17.3127H41.9236C41.9479 17.3127 41.9819 17.3175 42.011 17.3418C42.0602 17.3819 45.2158 19.9498 45.1663 19.9097C45.2246 19.9583 45.2294 20.0457 45.1857 20.1039ZM45.3556 16.3855C45.8258 16.7674 45.9166 17.467 45.511 17.9679L45.0352 18.5505L43.2974 17.1184L43.7731 16.5408C44.1623 16.0619 44.8667 15.988 45.3556 16.3855Z" fill="black"/>
</svg>
