<svg width="422" height="392" viewBox="0 0 422 392" fill="none" xmlns="http://www.w3.org/2000/svg">
<path d="M24.5875 161.174H323.997C324.966 161.21 325.932 161.05 326.838 160.705C327.744 160.359 328.57 159.834 329.268 159.161C329.967 158.489 330.522 157.682 330.901 156.79C331.28 155.898 331.476 154.938 331.476 153.969C331.476 153 331.28 152.04 330.901 151.148C330.522 150.256 329.967 149.449 329.268 148.777C328.57 148.104 327.744 147.579 326.838 147.233C325.932 146.887 324.966 146.728 323.997 146.764H24.5875L54.1875 117.164C54.8559 116.495 55.386 115.701 55.7475 114.827C56.109 113.953 56.2949 113.016 56.2944 112.07C56.2939 111.125 56.1072 110.188 55.7448 109.315C55.3825 108.441 54.8516 107.647 54.1825 106.979C53.5134 106.311 52.7192 105.78 51.8453 105.419C50.9713 105.057 50.0347 104.872 49.089 104.872C48.1432 104.873 47.2068 105.059 46.3332 105.422C45.4596 105.784 44.6659 106.315 43.9975 106.984L2.10751 148.874C1.43426 149.548 0.903694 150.35 0.547512 151.234C0.186051 152.106 0 153.04 0 153.984C0 154.928 0.186051 155.862 0.547512 156.734C0.902668 157.615 1.43344 158.415 2.10751 159.084L43.9975 200.984C45.3644 202.257 47.1719 202.949 49.0393 202.916C50.9067 202.883 52.6884 202.126 54.009 200.805C55.3297 199.485 56.0863 197.703 56.1196 195.836C56.1529 193.968 55.4603 192.161 54.1875 190.794L24.5875 161.174ZM88.8175 51.874C89.1779 52.7493 89.7081 53.5446 90.3775 54.214C91.0469 54.8833 91.8422 55.4135 92.7175 55.774C93.5876 56.1423 94.5227 56.3327 95.4675 56.334H299.128C300.096 56.3701 301.062 56.2104 301.968 55.8646C302.874 55.5188 303.7 54.9939 304.398 54.3213C305.097 53.6486 305.652 52.8422 306.031 51.95C306.41 51.0579 306.606 50.0984 306.606 49.129C306.606 48.1595 306.41 47.2001 306.031 46.3079C305.652 45.4158 305.097 44.6093 304.398 43.9367C303.7 43.2641 302.874 42.7392 301.968 42.3933C301.062 42.0475 300.096 41.8879 299.128 41.924H112.898L142.497 12.314C143.851 10.964 144.614 9.1315 144.616 7.21957C144.619 5.30763 143.862 3.47289 142.513 2.11896C141.163 0.765031 139.33 0.00282086 137.418 7.81398e-06C135.506 -0.00280523 133.671 0.75401 132.318 2.10396L90.4075 44.004C89.7345 44.6742 89.2039 45.4735 88.8475 46.354C88.4786 47.2266 88.286 48.1636 88.2808 49.111C88.2757 50.0583 88.4581 50.9974 88.8175 51.874ZM421.087 240.524C421.449 239.652 421.635 238.718 421.635 237.774C421.635 236.83 421.449 235.896 421.087 235.024C420.732 234.143 420.202 233.343 419.527 232.674L377.638 190.784C376.271 189.511 374.463 188.819 372.596 188.852C370.728 188.885 368.947 189.642 367.626 190.962C366.305 192.283 365.549 194.065 365.515 195.932C365.482 197.8 366.175 199.607 367.448 200.974L397.048 230.574H97.6175C95.7531 230.643 93.9882 231.433 92.6937 232.777C91.3992 234.12 90.676 235.913 90.676 237.779C90.676 239.645 91.3992 241.438 92.6937 242.781C93.9882 244.125 95.7531 244.914 97.6175 244.984H397.048L367.448 274.584C366.175 275.951 365.482 277.758 365.515 279.626C365.549 281.493 366.305 283.275 367.626 284.595C368.947 285.916 370.728 286.673 372.596 286.706C374.463 286.739 376.271 286.047 377.638 284.774L419.527 242.874C420.2 242.203 420.73 241.404 421.087 240.524ZM332.818 339.874C332.272 338.558 331.35 337.434 330.166 336.642C328.983 335.85 327.592 335.426 326.168 335.424H122.508C121.539 335.388 120.573 335.548 119.667 335.893C118.761 336.239 117.935 336.764 117.237 337.437C116.538 338.109 115.983 338.916 115.604 339.808C115.225 340.7 115.029 341.66 115.029 342.629C115.029 343.598 115.225 344.558 115.604 345.45C115.983 346.342 116.538 347.149 117.237 347.821C117.935 348.494 118.761 349.019 119.667 349.365C120.573 349.71 121.539 349.87 122.508 349.834H308.728L279.138 379.434C277.786 380.784 277.027 382.615 277.026 384.525C277.025 386.435 277.783 388.268 279.133 389.619C280.482 390.97 282.314 391.73 284.224 391.731C286.134 391.732 287.966 390.974 289.318 389.624L331.208 347.734C331.878 347.06 332.411 346.262 332.777 345.384C333.52 343.625 333.534 341.643 332.818 339.874Z" fill="white"/>
</svg>
