<svg width="218" height="31" viewBox="0 0 218 31" fill="none" xmlns="http://www.w3.org/2000/svg">
<path d="M26.2917 15.2919L19.8459 7.85547L0 30.3538H13.2872L26.2917 15.2919Z" fill="white"/>
<path d="M13.5749 0H0.0742188L20.3824 22.4984L27.1328 14.9989L13.5749 0Z" fill="white"/>
<path d="M56.8543 29.8516H38.9414V0.653388H43.4002V25.768H56.8543V29.8516ZM72.1395 30.505C70.02 30.505 68.0684 30.1239 66.2849 29.3616C64.5014 28.5993 62.9505 27.5376 61.6322 26.1763C60.3139 24.7879 59.2929 23.168 58.5692 21.3168C57.8454 19.4383 57.4835 17.4101 57.4835 15.2321C57.4835 13.0541 57.8454 11.0395 58.5692 9.18826C59.2929 7.337 60.3139 5.73075 61.6322 4.36953C62.9505 2.98108 64.5014 1.90571 66.2849 1.14343C68.0684 0.381142 70.02 0 72.1395 0C74.2591 0 76.2107 0.381142 77.9942 1.14343C79.7777 1.90571 81.3286 2.98108 82.6469 4.36953C83.9652 5.73075 84.9862 7.337 85.7099 9.18826C86.4337 11.0395 86.7955 13.0541 86.7955 15.2321C86.7955 17.4101 86.4337 19.4383 85.7099 21.3168C84.9862 23.168 83.9652 24.7879 82.6469 26.1763C81.3286 27.5376 79.7777 28.5993 77.9942 29.3616C76.2107 30.1239 74.2591 30.505 72.1395 30.505ZM72.1395 26.3397C74.104 26.3397 75.8359 25.8633 77.3351 24.9104C78.8343 23.9576 80.0104 22.6508 80.8634 20.9901C81.7164 19.3022 82.1428 17.3828 82.1428 15.2321C82.1428 13.0814 81.7164 11.1757 80.8634 9.51496C80.0104 7.85426 78.8343 6.54749 77.3351 5.59463C75.8359 4.64178 74.104 4.16535 72.1395 4.16535C70.2009 4.16535 68.4691 4.64178 66.944 5.59463C65.4448 6.54749 64.2687 7.85426 63.4157 9.51496C62.5627 11.1757 62.1362 13.0814 62.1362 15.2321C62.1362 17.3828 62.5627 19.3022 63.4157 20.9901C64.2687 22.6508 65.4448 23.9576 66.944 24.9104C68.4691 25.8633 70.2009 26.3397 72.1395 26.3397ZM108.372 22.8277H92.3982V18.8257H108.372V22.8277ZM113.878 29.8516H109.148L99.6486 3.83865H101.122L91.6227 29.8516H87.0476L98.0202 0.653388H102.906L113.878 29.8516ZM121.201 29.8516H116.858V0.653388H121.588L137.33 25.2371H135.818V0.653388H140.16V29.8516H135.43L119.65 5.26794H121.201V29.8516ZM162.764 29.8516H144.851V0.653388H149.31V25.768H162.764V29.8516ZM170.335 29.8516H165.876V0.653388H170.335V29.8516ZM179.508 29.8516H175.049V0.653388H193.349V4.65539H179.508V29.8516ZM192.613 17.0289H179.12V13.0269H192.613V17.0289ZM208.312 29.8516H203.854V4.28786H208.312V29.8516ZM217.191 4.69622H195.013V0.653388H217.191V4.69622Z" fill="white"/>
</svg>
