<svg width="144" height="131" viewBox="0 0 144 131" fill="none" xmlns="http://www.w3.org/2000/svg">
<path d="M80.3814 55.3462C80.3814 61.4943 80.3814 67.6425 80.3814 73.8033C80.3814 81.4092 83.9279 86.67 90.9058 89.6997C92.0069 90.1814 92.2502 90.7012 91.6996 91.804C85.4771 104.481 79.2675 117.195 73.0706 129.948C72.8785 130.366 72.4048 130.658 72.0719 131C71.6878 130.632 71.1757 130.328 70.958 129.884C64.7484 117.208 58.5899 104.531 52.3802 91.8547C51.8169 90.7138 51.9961 90.1687 53.2124 89.6363C60.1135 86.632 63.6345 81.3458 63.6601 73.8667C63.6601 60.9366 63.6601 48.0191 63.6601 35.1017C63.6601 33.0734 63.6601 33.0227 61.5731 33.0227H10.5001C8.36196 33.0227 8.36196 33.0227 8.36196 30.8931C8.36196 26.2788 8.36196 21.6645 8.36196 17.0502C8.49528 15.0037 7.85059 12.9818 6.55462 11.382C5.25865 9.78219 3.40516 8.72021 1.35847 8.40481C0.321395 8.18931 -0.0242952 7.75831 0.00131167 6.76953C0.00131167 4.98214 0.00131167 3.18206 0.00131167 1.39467C0.00131167 0.418571 0.436637 0.0129199 1.4097 0.0129199C8.8229 0.0129199 16.2233 0.0129199 23.6237 0.0129199C24.904 0.0129199 25.0705 0.684778 25.0705 1.67355C25.0705 5.89908 25.0705 10.1584 25.0705 14.4515C25.0705 16.5685 25.0705 16.5685 27.2471 16.5685C34.1865 16.5685 54.7617 16.5685 61.7011 16.5685C63.6217 16.5685 63.6857 16.5685 63.6857 14.5656C63.6857 10.3063 63.6857 6.04697 63.6857 1.80032C63.6857 0.469277 64.1338 -0.0124335 65.491 0.000243037C69.8953 0.0636259 74.2997 0.000243037 78.7041 0.000243037C79.9845 0.000243037 80.4454 0.443924 80.4326 1.71158C80.4326 6.07232 80.4326 10.4204 80.4326 14.7811C80.4326 16.0488 80.8295 16.6066 82.1995 16.5939C89.3438 16.5939 109.945 16.5939 117.089 16.5939C118.369 16.5939 118.933 16.2136 118.907 14.8318C118.843 10.5852 118.907 6.32585 118.907 2.06652C118.907 0.139684 119.022 0.0255968 120.879 0.0255968C127.921 0.0255968 134.962 0.0255968 142.004 0.0255968C143.49 0.0255968 144.091 0.431245 143.989 1.93976C143.886 3.44827 143.989 5.22299 143.989 6.87095C143.989 7.77099 143.694 8.13861 142.709 8.41749C140.634 8.71915 138.751 9.78504 137.436 11.402C136.121 13.019 135.471 15.0679 135.615 17.139C135.615 21.7532 135.615 26.3675 135.615 30.9818C135.615 33.0354 135.615 33.0481 133.554 33.0481H82.5579C80.4198 33.0481 80.3814 33.0481 80.3814 35.1904V55.3462Z" fill="white"/>
</svg>
