<svg width="284" height="31" viewBox="0 0 284 31" fill="none" xmlns="http://www.w3.org/2000/svg">
<g clip-path="url(#clip0_2252_30)">
<mask id="mask0_2252_30" style="mask-type:luminance" maskUnits="userSpaceOnUse" x="0" y="0" width="284" height="31">
<path d="M284 0H0V31H284V0Z" fill="white"/>
</mask>
<g mask="url(#mask0_2252_30)">
<path d="M26.2917 15.2919L19.8459 7.85547L0 30.3538H13.2872L26.2917 15.2919Z" fill="black"/>
<path d="M13.5749 0H0.0742188L20.3824 22.4984L27.1328 14.9989L13.5749 0Z" fill="black"/>
<path d="M47.4399 30.4001C45.2532 30.4001 43.1599 30.0934 41.1599 29.4801C39.1599 28.8401 37.5732 28.0268 36.3999 27.0401L38.1999 23.0001C39.3199 23.8801 40.7066 24.6134 42.3599 25.2001C44.0132 25.7868 45.7066 26.0801 47.4399 26.0801C48.9066 26.0801 50.0932 25.9201 50.9999 25.6001C51.9066 25.2801 52.5732 24.8534 52.9999 24.3201C53.4266 23.7601 53.6399 23.1334 53.6399 22.4401C53.6399 21.5868 53.3332 20.9068 52.7199 20.4001C52.1066 19.8668 51.3066 19.4534 50.3199 19.1601C49.3599 18.8401 48.2799 18.5468 47.0799 18.2801C45.9066 18.0134 44.7199 17.7068 43.5199 17.3601C42.3466 16.9868 41.2666 16.5201 40.2799 15.9601C39.3199 15.3734 38.5332 14.6001 37.9199 13.6401C37.3066 12.6801 36.9999 11.4534 36.9999 9.9601C36.9999 8.4401 37.3999 7.05343 38.1999 5.8001C39.0266 4.5201 40.2666 3.50676 41.9199 2.7601C43.5999 1.98676 45.7199 1.6001 48.2799 1.6001C49.9599 1.6001 51.6266 1.81343 53.2799 2.2401C54.9332 2.66677 56.3732 3.2801 57.5999 4.0801L55.9599 8.1201C54.7066 7.37343 53.4132 6.82677 52.0799 6.4801C50.7466 6.10677 49.4666 5.9201 48.2399 5.9201C46.7999 5.9201 45.6266 6.09343 44.7199 6.4401C43.8399 6.78677 43.1866 7.2401 42.7599 7.8001C42.3599 8.3601 42.1599 9.0001 42.1599 9.7201C42.1599 10.5734 42.4532 11.2668 43.0399 11.8001C43.6532 12.3068 44.4399 12.7068 45.3999 13.0001C46.3866 13.2934 47.4799 13.5868 48.6799 13.8801C49.8799 14.1468 51.0666 14.4534 52.2399 14.8001C53.4399 15.1468 54.5199 15.6001 55.4799 16.1601C56.4666 16.7201 57.2532 17.4801 57.8399 18.4401C58.4532 19.4001 58.7599 20.6134 58.7599 22.0801C58.7599 23.5734 58.3466 24.9601 57.5199 26.2401C56.7199 27.4934 55.4799 28.5068 53.7999 29.2801C52.1199 30.0268 49.9999 30.4001 47.4399 30.4001ZM73.2055 30.0001V6.4001H63.9255V2.0001H87.6855V6.4001H78.4055V30.0001H73.2055ZM95.588 30.0001V2.0001H107.108C109.588 2.0001 111.708 2.4001 113.468 3.2001C115.255 4.0001 116.628 5.14676 117.588 6.6401C118.548 8.13343 119.028 9.90677 119.028 11.9601C119.028 14.0134 118.548 15.7868 117.588 17.2801C116.628 18.7468 115.255 19.8801 113.468 20.6801C111.708 21.4534 109.588 21.8401 107.108 21.8401H98.468L100.788 19.4801V30.0001H95.588ZM113.908 30.0001L106.828 19.8401H112.388L119.508 30.0001H113.908ZM100.788 20.0401L98.468 17.5601H106.868C109.161 17.5601 110.881 17.0668 112.028 16.0801C113.201 15.0934 113.788 13.7201 113.788 11.9601C113.788 10.1734 113.201 8.8001 112.028 7.8401C110.881 6.8801 109.161 6.4001 106.868 6.4001H98.468L100.788 3.8401V20.0401ZM135.335 30.0001V18.9201L136.495 22.1201L124.335 2.0001H129.895L139.655 18.2001H136.535L146.375 2.0001H151.495L139.335 22.1201L140.535 18.9201V30.0001H135.335ZM158.549 30.0001V2.0001H170.789C173.829 2.0001 176.496 2.58677 178.789 3.7601C181.082 4.93343 182.869 6.5601 184.149 8.6401C185.429 10.7201 186.069 13.1734 186.069 16.0001C186.069 18.8001 185.429 21.2534 184.149 23.3601C182.869 25.4401 181.082 27.0668 178.789 28.2401C176.496 29.4134 173.829 30.0001 170.789 30.0001H158.549ZM163.749 25.6001H170.549C172.656 25.6001 174.469 25.2001 175.989 24.4001C177.536 23.6001 178.722 22.4801 179.549 21.0401C180.402 19.6001 180.829 17.9201 180.829 16.0001C180.829 14.0534 180.402 12.3734 179.549 10.9601C178.722 9.5201 177.536 8.4001 175.989 7.6001C174.469 6.8001 172.656 6.4001 170.549 6.4001H163.749V25.6001ZM200.396 13.6401H214.316V17.9201H200.396V13.6401ZM200.796 25.6401H216.596V30.0001H195.596V2.0001H216.036V6.3601H200.796V25.6401ZM226.393 30.0001V2.0001H230.673L248.233 23.5601H246.113V2.0001H251.273V30.0001H246.993L229.433 8.4401H231.553V30.0001H226.393ZM268.456 30.0001V6.4001H259.176V2.0001H282.936V6.4001H273.656V30.0001H268.456Z" fill="black"/>
</g>
</g>
<defs>
<clipPath id="clip0_2252_30">
<rect width="284" height="31" fill="white"/>
</clipPath>
</defs>
</svg>
