<svg width="284" height="31" viewBox="0 0 284 31" fill="none" xmlns="http://www.w3.org/2000/svg">
<g clip-path="url(#clip0_2202_2)">
<path d="M26.2917 15.2919L19.8459 7.85547L0 30.3538H13.2872L26.2917 15.2919Z" fill="white"/>
<path d="M13.5749 0H0.0742188L20.3824 22.4984L27.1328 14.9989L13.5749 0Z" fill="white"/>
<path d="M47.44 30.4C45.2533 30.4 43.16 30.0933 41.16 29.48C39.16 28.84 37.5733 28.0267 36.4 27.04L38.2 23C39.32 23.88 40.7067 24.6133 42.36 25.2C44.0133 25.7867 45.7067 26.08 47.44 26.08C48.9067 26.08 50.0933 25.92 51 25.6C51.9067 25.28 52.5733 24.8533 53 24.32C53.4267 23.76 53.64 23.1333 53.64 22.44C53.64 21.5867 53.3333 20.9067 52.72 20.4C52.1067 19.8667 51.3067 19.4533 50.32 19.16C49.36 18.84 48.28 18.5467 47.08 18.28C45.9067 18.0133 44.72 17.7067 43.52 17.36C42.3467 16.9867 41.2667 16.52 40.28 15.96C39.32 15.3733 38.5333 14.6 37.92 13.64C37.3067 12.68 37 11.4533 37 9.96C37 8.44 37.4 7.05333 38.2 5.8C39.0267 4.52 40.2667 3.50666 41.92 2.76C43.6 1.98666 45.72 1.6 48.28 1.6C49.96 1.6 51.6267 1.81333 53.28 2.24C54.9333 2.66667 56.3733 3.28 57.6 4.08L55.96 8.12C54.7067 7.37333 53.4133 6.82667 52.08 6.48C50.7467 6.10667 49.4667 5.92 48.24 5.92C46.8 5.92 45.6267 6.09333 44.72 6.44C43.84 6.78667 43.1867 7.24 42.76 7.8C42.36 8.36 42.16 9 42.16 9.72C42.16 10.5733 42.4533 11.2667 43.04 11.8C43.6533 12.3067 44.44 12.7067 45.4 13C46.3867 13.2933 47.48 13.5867 48.68 13.88C49.88 14.1467 51.0667 14.4533 52.24 14.8C53.44 15.1467 54.52 15.6 55.48 16.16C56.4667 16.72 57.2533 17.48 57.84 18.44C58.4533 19.4 58.76 20.6133 58.76 22.08C58.76 23.5733 58.3467 24.96 57.52 26.24C56.72 27.4933 55.48 28.5067 53.8 29.28C52.12 30.0267 50 30.4 47.44 30.4ZM73.2056 30V6.4H63.9256V2H87.6856V6.4H78.4056V30H73.2056ZM95.5881 30V2H107.108C109.588 2 111.708 2.4 113.468 3.2C115.255 4 116.628 5.14666 117.588 6.64C118.548 8.13333 119.028 9.90667 119.028 11.96C119.028 14.0133 118.548 15.7867 117.588 17.28C116.628 18.7467 115.255 19.88 113.468 20.68C111.708 21.4533 109.588 21.84 107.108 21.84H98.4681L100.788 19.48V30H95.5881ZM113.908 30L106.828 19.84H112.388L119.508 30H113.908ZM100.788 20.04L98.4681 17.56H106.868C109.161 17.56 110.881 17.0667 112.028 16.08C113.201 15.0933 113.788 13.72 113.788 11.96C113.788 10.1733 113.201 8.8 112.028 7.84C110.881 6.88 109.161 6.4 106.868 6.4H98.4681L100.788 3.84V20.04ZM135.335 30V18.92L136.495 22.12L124.335 2H129.895L139.655 18.2H136.535L146.375 2H151.495L139.335 22.12L140.535 18.92V30H135.335ZM158.549 30V2H170.789C173.829 2 176.496 2.58667 178.789 3.76C181.082 4.93333 182.869 6.56 184.149 8.64C185.429 10.72 186.069 13.1733 186.069 16C186.069 18.8 185.429 21.2533 184.149 23.36C182.869 25.44 181.082 27.0667 178.789 28.24C176.496 29.4133 173.829 30 170.789 30H158.549ZM163.749 25.6H170.549C172.656 25.6 174.469 25.2 175.989 24.4C177.536 23.6 178.722 22.48 179.549 21.04C180.402 19.6 180.829 17.92 180.829 16C180.829 14.0533 180.402 12.3733 179.549 10.96C178.722 9.52 177.536 8.4 175.989 7.6C174.469 6.8 172.656 6.4 170.549 6.4H163.749V25.6ZM200.396 13.64H214.316V17.92H200.396V13.64ZM200.796 25.64H216.596V30H195.596V2H216.036V6.36H200.796V25.64ZM226.393 30V2H230.673L248.233 23.56H246.113V2H251.273V30H246.993L229.433 8.44H231.553V30H226.393ZM268.456 30V6.4H259.176V2H282.936V6.4H273.656V30H268.456Z" fill="white"/>
</g>
<defs>
<clipPath id="clip0_2202_2">
<rect width="284" height="31" fill="white"/>
</clipPath>
</defs>
</svg>
