<svg width="927" height="109" viewBox="0 0 927 109" fill="none" xmlns="http://www.w3.org/2000/svg">
<path d="M45.24 34.34C45.24 41.94 110.75 34.34 110.75 73.85C110.75 100.75 86.1 108.19 42.2 108.19C23.46 108.19 5.2 103.63 0 101.35L8.44 72.48C19.4233 75.659 30.806 77.2451 42.24 77.19C58.79 77.19 68.92 75.37 68.92 72.33C68.92 63.52 3.41 72.33 3.41 32.83C3.41 8.97 24.69 0 63.52 0C80.57 0 96.77 2.59 107.41 6.84L98.97 35.71C90.19 32.71 76.97 31 66.89 31C55.37 31 45.24 31.31 45.24 34.34Z" fill="black"/>
<path d="M228.81 2.43994H291.95C325.38 2.43994 342.26 14.7399 342.26 39.2099C342.26 56.8299 333.48 68.2099 315.92 73.0899L345.64 105.76H298.03L271.52 75.9799H269.66V105.76H228.81V2.43994ZM291.95 47.4399C297.52 47.4399 300.39 44.7099 300.39 39.2399C300.39 33.7699 297.52 31.0299 291.95 31.0299H269.66V47.4099L291.95 47.4399Z" fill="black"/>
<path d="M382.9 69.1399L335.46 2.43994H383.07L403.33 32.9799L423.58 2.43994H471.24L423.8 69.1399V105.76H382.9V69.1399Z" fill="black"/>
<path d="M473.64 2.43994H519.24C561.78 2.43994 586.09 19.7599 586.09 54.0999C586.09 88.4399 561.76 105.76 519.24 105.76H473.64V2.43994ZM519.24 77.1899C535.11 77.1899 544.24 68.6799 544.24 54.0999C544.24 39.5199 535.12 30.9999 519.24 30.9999H514.51V77.1899H519.24Z" fill="black"/>
<path d="M593.49 2.43994H692.08V30.9999H634.34V39.8199H681.24V68.3799H634.34V77.1899H692.08V105.76H593.49V2.43994Z" fill="black"/>
<path d="M742.15 31V105.76H701.29V5.32C708.21 2.59 730.16 0 742.15 0C788.07 0 811.36 19.76 811.36 54.1V105.76H770.51V54.1C770.51 38.75 763.24 31 742.15 31Z" fill="black"/>
<path d="M849.84 30.9999H814.04V2.43994H926.48V30.9999H890.69V105.76H849.84V30.9999Z" fill="black"/>
<path d="M174.24 46.0796C174.24 50.9296 174.24 55.7796 174.24 60.6396C174.24 66.6396 177.01 70.7896 182.46 73.1796C183.32 73.5596 183.51 73.9696 183.08 74.8396C178.22 84.8396 173.37 94.8696 168.53 104.93C168.38 105.26 168.01 105.49 167.75 105.76C167.45 105.47 167.05 105.23 166.88 104.88C162.03 94.8796 157.22 84.8796 152.37 74.8796C151.93 73.9796 152.07 73.5496 153.02 73.1296C158.41 70.7596 161.16 66.5896 161.18 60.6896C161.18 50.4896 161.18 40.2996 161.18 30.1096C161.18 28.5096 161.18 28.4696 159.55 28.4696H119.66C117.99 28.4696 117.99 28.4696 117.99 26.7896C117.99 23.1496 117.99 19.5096 117.99 15.8696C118.094 14.2552 117.591 12.6602 116.578 11.3982C115.566 10.1362 114.119 9.29842 112.52 9.04962C111.71 8.87962 111.44 8.53962 111.46 7.75962C111.46 6.34962 111.46 4.92963 111.46 3.51963C111.46 2.74963 111.8 2.42963 112.56 2.42963C118.35 2.42963 124.13 2.42963 129.91 2.42963C130.91 2.42963 131.04 2.95963 131.04 3.73962C131.04 7.07296 131.04 10.433 131.04 13.8196C131.04 15.4896 131.04 15.4896 132.74 15.4896C138.16 15.4896 154.23 15.4896 159.65 15.4896C161.15 15.4896 161.2 15.4896 161.2 13.9096C161.2 10.5496 161.2 7.18963 161.2 3.83963C161.2 2.78963 161.55 2.40963 162.61 2.41963C166.05 2.46963 169.49 2.41963 172.93 2.41963C173.93 2.41963 174.29 2.76963 174.28 3.76963C174.28 7.20963 174.28 10.6396 174.28 14.0796C174.28 15.0796 174.59 15.5196 175.66 15.5096C181.24 15.5096 197.33 15.5096 202.91 15.5096C203.91 15.5096 204.35 15.2096 204.33 14.1196C204.28 10.7696 204.33 7.40962 204.33 4.04962C204.33 2.52962 204.42 2.43963 205.87 2.43963C211.37 2.43963 216.87 2.43963 222.37 2.43963C223.53 2.43963 224 2.75962 223.92 3.94962C223.84 5.13962 223.92 6.53963 223.92 7.83963C223.92 8.54963 223.69 8.83963 222.92 9.05963C221.3 9.29759 219.829 10.1384 218.802 11.414C217.775 12.6896 217.267 14.3058 217.38 15.9396C217.38 19.5796 217.38 23.2196 217.38 26.8596C217.38 28.4796 217.38 28.4896 215.77 28.4896H175.94C174.27 28.4896 174.24 28.4896 174.24 30.1796V46.0796Z" fill="black"/>
</svg>
