<svg width="676" height="79" viewBox="0 0 676 79" fill="none" xmlns="http://www.w3.org/2000/svg">
<path d="M33.696 25.2163C33.696 30.7114 81.3873 25.2163 81.3873 53.7837C81.3873 73.2336 63.4421 78.613 31.4829 78.613C17.8402 78.613 4.54689 75.3159 0.761292 73.6674L6.90561 52.7931C14.9015 55.0917 23.1881 56.2385 31.512 56.1987C43.5604 56.1987 50.9351 54.8827 50.9351 52.6847C50.9351 46.3147 3.24377 52.6847 3.24377 24.1245C3.24377 6.87268 18.7356 0.386986 47.0038 0.386986C59.4162 0.386986 71.2099 2.25967 78.9558 5.3326L72.8114 26.2069C66.4196 24.0377 56.7954 22.8013 49.4572 22.8013C41.0706 22.8013 33.696 23.0255 33.696 25.2163Z" fill="white"/>
<path d="M167.335 2.15121H213.301C237.638 2.15121 249.927 11.0446 249.927 28.7375C249.927 41.4775 243.535 49.7057 230.751 53.2342L252.387 76.856H217.727L198.428 55.3238H197.074V76.856H167.335V2.15121ZM213.301 34.6882C217.356 34.6882 219.445 32.7142 219.445 28.7592C219.445 24.8041 217.356 22.823 213.301 22.823H197.074V34.6665L213.301 34.6882Z" fill="white"/>
<path d="M279.512 50.3782L244.976 2.15121H279.636L294.386 24.2329L309.128 2.15121H343.824L309.288 50.3782V76.856H279.512V50.3782Z" fill="white"/>
<path d="M345.571 2.15121H378.768C409.737 2.15121 427.435 14.6743 427.435 39.5036C427.435 64.3329 409.723 76.856 378.768 76.856H345.571V2.15121ZM378.768 56.1987C390.321 56.1987 396.968 50.0456 396.968 39.5036C396.968 28.9616 390.329 22.8013 378.768 22.8013H375.325V56.1987H378.768Z" fill="white"/>
<path d="M432.822 2.15121H504.596V22.8013H462.561V29.1786H496.704V49.8287H462.561V56.1987H504.596V76.856H432.822V2.15121Z" fill="white"/>
<path d="M541.046 22.8013V76.856H511.3V4.23357C516.338 2.25967 532.318 0.386986 541.046 0.386986C574.476 0.386986 591.431 14.6743 591.431 39.5036V76.856H561.693V39.5036C561.693 28.4049 556.4 22.8013 541.046 22.8013Z" fill="white"/>
<path d="M619.445 22.8013H593.382V2.15121H675.239V22.8013H649.184V76.856H619.445V22.8013Z" fill="white"/>
<path d="M127.608 33.7048C127.608 37.2116 127.608 40.7183 127.608 44.2323C127.608 48.5706 129.625 51.5712 133.592 53.2993C134.218 53.574 134.357 53.8705 134.044 54.4995C130.505 61.73 126.975 68.9821 123.451 76.2559C123.342 76.4945 123.073 76.6608 122.883 76.856C122.665 76.6463 122.374 76.4728 122.25 76.2197C118.719 68.9893 115.217 61.7589 111.687 54.5284C111.366 53.8777 111.468 53.5668 112.16 53.2631C116.084 51.5495 118.086 48.5344 118.1 44.2685C118.1 36.8934 118.1 29.5256 118.1 22.1578C118.1 21.0009 118.1 20.972 116.914 20.972H87.8738C86.658 20.972 86.658 20.972 86.658 19.7573C86.658 17.1254 86.658 14.4936 86.658 11.8617C86.7338 10.6944 86.3673 9.54113 85.6304 8.62864C84.8935 7.71615 83.8396 7.11042 82.6759 6.93053C82.0862 6.80761 81.8896 6.56177 81.9042 5.9978C81.9042 4.97831 81.9042 3.95159 81.9042 2.9321C81.9042 2.37536 82.1517 2.14398 82.705 2.14398C86.9201 2.14398 91.1279 2.14398 95.3358 2.14398C96.0638 2.14398 96.1584 2.52719 96.1584 3.09117C96.1584 5.50131 96.1584 7.93074 96.1584 10.3794C96.1584 11.5869 96.1584 11.5869 97.396 11.5869C101.342 11.5869 113.041 11.5869 116.987 11.5869C118.079 11.5869 118.115 11.5869 118.115 10.4445C118.115 8.01509 118.115 5.58567 118.115 3.16347C118.115 2.40428 118.37 2.12952 119.141 2.13675C121.646 2.1729 124.15 2.13675 126.654 2.13675C127.382 2.13675 127.644 2.38982 127.637 3.11286C127.637 5.60013 127.637 8.08016 127.637 10.5674C127.637 11.2905 127.863 11.6086 128.642 11.6014C132.704 11.6014 144.418 11.6014 148.48 11.6014C149.208 11.6014 149.528 11.3845 149.514 10.5964C149.477 8.17416 149.514 5.74473 149.514 3.31531C149.514 2.21628 149.579 2.15121 150.635 2.15121C154.639 2.15121 158.643 2.15121 162.647 2.15121C163.491 2.15121 163.833 2.38258 163.775 3.24301C163.717 4.10343 163.775 5.11569 163.775 6.05564C163.775 6.569 163.608 6.77869 163.047 6.93776C161.867 7.10982 160.797 7.71777 160.049 8.64006C159.301 9.56235 158.932 10.731 159.014 11.9123C159.014 14.5442 159.014 17.176 159.014 19.8079C159.014 20.9793 159.014 20.9865 157.842 20.9865H128.846C127.63 20.9865 127.608 20.9865 127.608 22.2084V33.7048Z" fill="#4297F3"/>
</svg>
