<svg width="461" height="462" viewBox="0 0 461 462" fill="none" xmlns="http://www.w3.org/2000/svg">
<path d="M354.458 243.354C351.518 271.845 338.893 298.466 318.691 318.771C298.489 339.076 271.932 351.835 243.456 354.918C242.883 354.912 242.314 355.019 241.782 355.236C241.251 355.452 240.769 355.772 240.363 356.178C239.958 356.583 239.638 357.066 239.421 357.597C239.205 358.128 239.097 358.697 239.104 359.27V452.403C239.104 454.712 238.187 456.926 236.555 458.558C234.922 460.19 232.708 461.107 230.4 461.107C228.092 461.107 225.878 460.19 224.245 458.558C222.613 456.926 221.696 454.712 221.696 452.403V418.611C221.613 417.484 221.128 416.425 220.329 415.626C219.53 414.827 218.471 414.342 217.344 414.259C178.632 411.126 141.913 395.792 112.471 370.462C83.0288 345.133 62.3826 311.115 53.504 273.306C53.1735 272.185 53.0719 271.01 53.2051 269.85C53.3383 268.689 53.7037 267.568 54.2796 266.552C54.8554 265.535 55.6298 264.645 56.5568 263.935C57.4837 263.224 58.5442 262.708 59.675 262.415C60.8058 262.123 61.9839 262.062 63.1391 262.234C64.2942 262.407 65.4028 262.81 66.3987 263.42C67.3947 264.031 68.2577 264.835 68.9363 265.785C69.6149 266.736 70.0953 267.813 70.3488 268.954C78.2421 302.892 96.6473 333.473 122.941 356.338C149.235 379.202 182.075 393.183 216.781 396.288C217.907 396.851 218.982 396.288 220.058 395.213C220.626 394.892 221.086 394.409 221.378 393.825C221.669 393.241 221.78 392.583 221.696 391.936V359.27C221.703 358.697 221.595 358.128 221.379 357.597C221.162 357.066 220.842 356.583 220.437 356.178C220.031 355.772 219.549 355.452 219.018 355.236C218.486 355.019 217.917 354.912 217.344 354.918C189.003 351.761 162.557 339.133 142.285 319.078C122.017 298.708 109.364 271.992 106.445 243.405C106.279 242.359 105.753 241.403 104.959 240.702C104.165 240.002 103.151 239.599 102.093 239.565H8.96C6.58366 239.565 4.30465 238.621 2.62432 236.94C0.943998 235.26 0 232.981 0 230.605C0 228.228 0.943998 225.949 2.62432 224.269C4.30465 222.589 6.58366 221.645 8.96 221.645H44.3392C45.3949 221.601 46.4034 221.195 47.1957 220.496C47.988 219.797 48.516 218.847 48.6912 217.805C51.0145 179.151 65.3765 142.193 89.7637 112.113C114.151 82.0331 147.34 60.3395 184.678 50.0736C186.94 49.6444 189.279 50.0967 191.217 51.3376C193.156 52.5785 194.546 54.5141 195.102 56.7472C195.659 58.9804 195.34 61.3419 194.211 63.3474C193.082 65.353 191.228 66.8505 189.03 67.5328C155.626 76.5405 125.868 95.7551 103.911 122.494C81.9553 149.232 68.897 182.159 66.56 216.678C66.4156 217.314 66.4214 217.975 66.5768 218.608C66.7322 219.242 67.033 219.83 67.4553 220.327C67.8776 220.824 68.4099 221.216 69.0099 221.471C69.6099 221.726 70.2611 221.838 70.912 221.798H101.888C102.947 221.764 103.96 221.362 104.754 220.661C105.549 219.96 106.074 219.004 106.24 217.958C109.139 189.414 121.759 162.734 141.986 142.386C162.213 122.038 188.818 109.258 217.344 106.189C217.917 106.196 218.486 106.088 219.018 105.872C219.549 105.655 220.031 105.335 220.437 104.929C220.842 104.524 221.162 104.041 221.379 103.51C221.595 102.979 221.703 102.41 221.696 101.837V8.704C221.696 6.39556 222.613 4.18166 224.245 2.54934C225.878 0.917027 228.092 0 230.4 0C232.708 0 234.922 0.917027 236.555 2.54934C238.187 4.18166 239.104 6.39556 239.104 8.704V114.33C239.162 115.562 238.963 116.793 238.518 117.944C238.073 119.095 237.392 120.14 236.52 121.012C235.647 121.885 234.602 122.565 233.451 123.01C232.3 123.456 231.069 123.655 229.837 123.597C135.168 123.597 87.8592 239.514 154.778 306.483C221.696 373.453 335.923 325.53 337.562 230.554C337.548 229.407 337.764 228.269 338.196 227.207C338.629 226.144 339.269 225.179 340.08 224.368C340.891 223.557 341.856 222.917 342.919 222.484C343.981 222.052 345.119 221.836 346.266 221.85H451.84C454.216 221.85 456.495 222.794 458.176 224.474C459.856 226.154 460.8 228.433 460.8 230.81C460.8 233.186 459.856 235.465 458.176 237.145C456.495 238.826 454.216 239.77 451.84 239.77H417.024C415.944 239.726 414.888 240.101 414.078 240.816C413.267 241.532 412.763 242.532 412.672 243.61C409.846 282.505 394.804 319.513 369.693 349.35C344.582 379.187 310.686 400.328 272.845 409.754C261.427 412.467 257.485 395.059 269.005 392.346C302.799 383.943 333.106 365.15 355.656 338.614C378.205 312.078 391.862 279.136 394.701 244.429C394.845 243.793 394.839 243.132 394.684 242.499C394.529 241.865 394.228 241.277 393.805 240.78C393.383 240.283 392.851 239.892 392.251 239.636C391.651 239.381 391 239.269 390.349 239.309H358.81C357.751 239.343 356.737 239.746 355.943 240.446C355.149 241.147 354.624 242.103 354.458 243.149V243.354ZM424.96 98.56L362.035 161.126C360.498 162.795 358.363 163.789 356.096 163.891H314.163C313.019 163.992 311.914 164.36 310.938 164.966L236.39 240.077C234.714 241.643 232.496 242.498 230.202 242.461C227.908 242.424 225.718 241.499 224.093 239.881C222.467 238.262 221.533 236.076 221.487 233.782C221.442 231.489 222.287 229.267 223.846 227.584L298.394 152.422C298.895 152.171 299.315 151.783 299.605 151.302C299.895 150.822 300.043 150.27 300.032 149.709V107.674C300.021 106.463 300.256 105.262 300.723 104.144C301.189 103.027 301.877 102.015 302.746 101.171L365.312 38.656C366.52 37.3499 368.094 36.4379 369.827 36.0387C371.561 35.6396 373.375 35.7719 375.033 36.4184C376.69 37.0648 378.115 38.1955 379.121 39.6631C380.127 41.1307 380.667 42.8672 380.672 44.6464V78.9504C380.744 80.0809 381.226 81.1463 382.027 81.9473C382.828 82.7483 383.893 83.23 385.024 83.3024H418.765C420.564 83.2552 422.337 83.7513 423.85 84.7259C425.364 85.7005 426.549 87.1085 427.251 88.7664C427.953 90.4242 428.139 92.255 427.785 94.0202C427.431 95.7854 426.554 97.4031 425.267 98.6624L424.96 98.56ZM353.28 144.64L389.734 108.186C390.368 107.6 390.815 106.842 391.022 106.005C391.228 105.168 391.184 104.288 390.895 103.476C390.606 102.663 390.085 101.954 389.396 101.435C388.707 100.916 387.881 100.611 387.021 100.557H371.661C369.283 100.612 366.979 99.7309 365.245 98.1025C363.511 96.4742 362.487 94.2295 362.394 91.8528V76.9536C362.389 76.0718 362.126 75.2107 361.637 74.4769C361.148 73.7431 360.455 73.1689 359.643 72.8255C358.831 72.4821 357.935 72.3846 357.068 72.545C356.201 72.7054 355.4 73.1168 354.765 73.728L318.925 110.182C317.968 111.016 317.379 112.194 317.286 113.459V141.773C317.28 142.346 317.387 142.915 317.604 143.446C317.82 143.977 318.14 144.46 318.546 144.865C318.951 145.271 319.434 145.591 319.965 145.808C320.496 146.024 321.065 146.132 321.638 146.125H350.464C351.59 146.125 352.666 146.125 353.178 144.998L353.28 144.64ZM304.333 230.656C304.353 245.295 300.03 259.611 291.911 271.792C283.791 283.974 272.24 293.472 258.72 299.086C245.2 304.7 230.319 306.177 215.959 303.33C201.6 300.482 188.407 293.439 178.052 283.091C167.697 272.743 160.645 259.556 157.788 245.198C154.93 230.841 156.397 215.958 162.001 202.434C167.606 188.91 177.097 177.353 189.272 169.225C201.448 161.097 215.761 156.764 230.4 156.774C232.6 156.943 234.655 157.936 236.154 159.554C237.653 161.173 238.486 163.298 238.486 165.504C238.486 167.71 237.653 169.835 236.154 171.454C234.655 173.072 232.6 174.065 230.4 174.234C215.463 174.234 201.138 180.167 190.576 190.729C180.014 201.291 174.08 215.617 174.08 230.554C174.08 245.491 180.014 259.816 190.576 270.378C201.138 280.94 215.463 286.874 230.4 286.874C263.066 286.874 284.826 262.4 286.413 230.554C286.362 229.318 286.565 228.086 287.011 226.933C287.457 225.779 288.135 224.73 289.004 223.85C289.872 222.971 290.913 222.279 292.06 221.818C293.207 221.358 294.437 221.138 295.673 221.174C296.909 221.209 298.124 221.498 299.243 222.023C300.363 222.548 301.362 223.298 302.179 224.226C302.996 225.154 303.614 226.24 303.993 227.416C304.372 228.593 304.505 229.835 304.384 231.066L304.333 230.656Z" fill="white"/>
</svg>
