<svg width="784" height="349" viewBox="0 0 784 349" fill="none" xmlns="http://www.w3.org/2000/svg">
<path d="M392.887 118.571C399.836 118.571 406.108 119.344 410.628 120.585C412.891 121.207 414.687 121.937 415.905 122.728C417.144 123.532 417.663 124.314 417.663 125.009C417.663 125.704 417.144 126.486 415.905 127.29C414.687 128.081 412.891 128.812 410.628 129.433C406.108 130.674 399.836 131.447 392.887 131.448C385.939 131.448 379.666 130.674 375.146 129.433C372.883 128.812 371.088 128.081 369.87 127.29C368.63 126.486 368.111 125.704 368.111 125.009C368.111 124.314 368.63 123.532 369.87 122.728C371.088 121.937 372.883 121.207 375.146 120.585C379.666 119.344 385.939 118.571 392.887 118.571Z" stroke="#4297F3"/>
<path d="M392.887 98.7461C398.74 98.7461 404.02 99.4088 407.822 100.47C409.726 101.001 411.231 101.625 412.248 102.296C413.285 102.98 413.698 103.632 413.698 104.193C413.698 104.755 413.285 105.407 412.248 106.091C411.231 106.762 409.726 107.386 407.822 107.917C404.02 108.978 398.74 109.641 392.887 109.641C387.035 109.641 381.753 108.978 377.952 107.917C376.048 107.386 374.543 106.762 373.526 106.091C372.489 105.407 372.076 104.755 372.076 104.193C372.076 103.632 372.489 102.98 373.526 102.296C374.543 101.625 376.048 101.001 377.952 100.47C381.753 99.4088 387.035 98.7461 392.887 98.7461Z" stroke="#4297F3"/>
<path d="M392.887 81.8955C397.644 81.8955 401.932 82.4473 405.015 83.3281C406.56 83.7695 407.774 84.2856 408.591 84.8369C409.424 85.4 409.733 85.9211 409.733 86.3516C409.733 86.7821 409.424 87.3032 408.591 87.8662C407.774 88.4175 406.56 88.9336 405.015 89.375C401.932 90.2558 397.644 90.8076 392.887 90.8076C388.13 90.8076 383.842 90.2559 380.759 89.375C379.214 88.9336 377.999 88.4175 377.183 87.8662C376.35 87.3032 376.041 86.782 376.041 86.3516C376.041 85.9211 376.35 85.3999 377.183 84.8369C377.999 84.2856 379.214 83.7695 380.759 83.3281C383.842 82.4473 388.13 81.8955 392.887 81.8955Z" stroke="#4297F3"/>
<path d="M392.887 67.0273C397.1 67.0274 400.897 67.4687 403.626 68.1729C404.994 68.5259 406.065 68.9382 406.783 69.376C407.53 69.8315 407.751 70.2229 407.751 70.4922C407.751 70.7615 407.53 71.1529 406.783 71.6084C406.065 72.0461 404.994 72.4584 403.626 72.8115C400.897 73.5157 397.1 73.957 392.887 73.957C388.674 73.957 384.877 73.5157 382.148 72.8115C380.78 72.4584 379.708 72.0461 378.991 71.6084C378.244 71.1529 378.023 70.7615 378.023 70.4922C378.023 70.2229 378.244 69.8315 378.991 69.376C379.708 68.9382 380.78 68.5259 382.148 68.1729C384.877 67.4686 388.674 67.0273 392.887 67.0273Z" stroke="#4297F3"/>
<path d="M359.274 82.4253L300 99.7716L355.012 74L359.274 82.4253Z" fill="#D1D1D1"/>
<path d="M392.391 145.825L280.88 91.8033M280.88 91.8033L378.514 62.0668H392.391M280.88 91.8033L267.994 115.592" stroke="#4297F3" stroke-width="3"/>
<path d="M336.883 208.271L298.226 184.978L273.19 249.407L314.085 264.275L336.883 208.271Z" fill="white"/>
<path d="M314.085 265.266L323.006 291.038L354.098 316.314L391.896 265.266V347.042L354.098 316.314L323.006 291.038L272.95 249.902L314.085 265.266Z" fill="white"/>
<path d="M320.528 1.10706L360 82.5L357.699 82.8824L318.546 1.10706H320.528Z" fill="white"/>
<path d="M323.006 291.038L314.085 265.266L272.95 249.902L323.006 291.038ZM323.006 291.038L354.098 316.314M354.098 316.314L391.896 347.042V265.266L354.098 316.314ZM355.221 305.906L387.931 159.206M326.971 121.044L336.883 201.333M274.437 133.93L292.774 176.552M298.226 184.978L336.883 208.271L314.085 264.275L273.19 249.407L298.226 184.978ZM360 82.5L320.528 1.10706H318.546L357.699 82.8824L360 82.5Z" stroke="#4297F3"/>
<path d="M364.142 70.4922L360.5 81.5L320.528 1.10706L364.142 70.4922Z" fill="#D2E1FF" stroke="#4297F3"/>
<path d="M307.422 111.869C308.264 112.238 308.921 113.082 309.335 114.424C309.748 115.764 309.896 117.539 309.764 119.641C309.499 123.84 308.12 129.234 305.676 134.815C303.231 140.395 300.201 145.065 297.294 148.107C295.839 149.629 294.434 150.723 293.168 151.328C291.901 151.934 290.836 152.023 289.993 151.654C289.151 151.285 288.494 150.442 288.08 149.099C287.667 147.759 287.52 145.985 287.652 143.883C287.917 139.684 289.295 134.29 291.739 128.71C294.184 123.129 297.215 118.459 300.122 115.417C301.577 113.895 302.982 112.8 304.247 112.195C305.514 111.589 306.58 111.501 307.422 111.869Z" stroke="#4297F3"/>
<path d="M269.62 117.192L1 26L276.126 251.099L254.751 180.134L273.585 129.087L269.62 117.192Z" fill="#D2E1FF" stroke="#4297F3" stroke-width="2"/>
<line x1="339" y1="208.5" x2="396" y2="208.5" stroke="#4297F3" stroke-dasharray="2 2"/>
<mask id="mask0_3052_579" style="mask-type:alpha" maskUnits="userSpaceOnUse" x="1" y="26" width="276" height="226">
<path d="M269.62 117.192L1 26L276.126 251.099L254.751 180.134L273.585 129.087L269.62 117.192Z" fill="#D2E1FF"/>
</mask>
<g mask="url(#mask0_3052_579)">
<line x1="142.623" y1="399.466" x2="325.688" y2="189.721" stroke="#4297F3" stroke-dasharray="2 2"/>
<line x1="142.623" y1="385.189" x2="325.688" y2="175.444" stroke="#4297F3" stroke-dasharray="2 2"/>
<line x1="142.623" y1="368.533" x2="325.688" y2="158.788" stroke="#4297F3" stroke-dasharray="2 2"/>
<line x1="142.623" y1="354.256" x2="325.688" y2="144.511" stroke="#4297F3" stroke-dasharray="2 2"/>
<line x1="142.623" y1="337.6" x2="325.688" y2="127.855" stroke="#4297F3" stroke-dasharray="2 2"/>
<line x1="142.623" y1="323.323" x2="325.688" y2="113.578" stroke="#4297F3" stroke-dasharray="2 2"/>
<line x1="142.623" y1="306.667" x2="325.688" y2="96.9217" stroke="#4297F3" stroke-dasharray="2 2"/>
<line x1="142.623" y1="292.39" x2="325.688" y2="82.6448" stroke="#4297F3" stroke-dasharray="2 2"/>
<line x1="29.6233" y1="284.466" x2="212.688" y2="74.7211" stroke="#4297F3" stroke-dasharray="2 2"/>
<line x1="29.6233" y1="270.189" x2="212.688" y2="60.4444" stroke="#4297F3" stroke-dasharray="2 2"/>
<line x1="29.6233" y1="253.533" x2="212.688" y2="43.788" stroke="#4297F3" stroke-dasharray="2 2"/>
<line x1="29.6233" y1="239.256" x2="212.688" y2="29.5112" stroke="#4297F3" stroke-dasharray="2 2"/>
<line x1="29.6233" y1="222.6" x2="212.688" y2="12.8548" stroke="#4297F3" stroke-dasharray="2 2"/>
<line x1="29.6233" y1="208.323" x2="212.688" y2="-1.42194" stroke="#4297F3" stroke-dasharray="2 2"/>
<line x1="29.6233" y1="191.667" x2="212.688" y2="-18.0783" stroke="#4297F3" stroke-dasharray="2 2"/>
<line x1="29.6233" y1="177.39" x2="212.688" y2="-32.3552" stroke="#4297F3" stroke-dasharray="2 2"/>
<line x1="125.623" y1="298.492" x2="308.688" y2="88.7475" stroke="#4297F3" stroke-dasharray="2 2"/>
<line x1="125.623" y1="284.216" x2="308.688" y2="74.4706" stroke="#4297F3" stroke-dasharray="2 2"/>
<line x1="125.623" y1="267.559" x2="308.688" y2="57.8143" stroke="#4297F3" stroke-dasharray="2 2"/>
<line x1="125.623" y1="253.282" x2="308.688" y2="43.5374" stroke="#4297F3" stroke-dasharray="2 2"/>
<line x1="125.623" y1="236.626" x2="308.688" y2="26.8812" stroke="#4297F3" stroke-dasharray="2 2"/>
<line x1="125.623" y1="222.349" x2="308.688" y2="12.6043" stroke="#4297F3" stroke-dasharray="2 2"/>
<line x1="125.623" y1="205.693" x2="308.688" y2="-4.05195" stroke="#4297F3" stroke-dasharray="2 2"/>
<line x1="125.623" y1="191.416" x2="308.688" y2="-18.3288" stroke="#4297F3" stroke-dasharray="2 2"/>
<line x1="29.6233" y1="165.492" x2="212.688" y2="-44.2525" stroke="#4297F3" stroke-dasharray="2 2"/>
<line x1="29.6233" y1="151.216" x2="212.688" y2="-58.5294" stroke="#4297F3" stroke-dasharray="2 2"/>
<line x1="29.6233" y1="134.559" x2="212.688" y2="-75.1857" stroke="#4297F3" stroke-dasharray="2 2"/>
<line x1="29.6233" y1="120.282" x2="212.688" y2="-89.4626" stroke="#4297F3" stroke-dasharray="2 2"/>
<line x1="29.6233" y1="103.626" x2="212.688" y2="-106.119" stroke="#4297F3" stroke-dasharray="2 2"/>
<line x1="29.6233" y1="89.3492" x2="212.688" y2="-120.396" stroke="#4297F3" stroke-dasharray="2 2"/>
<line x1="29.6233" y1="72.6929" x2="212.688" y2="-137.052" stroke="#4297F3" stroke-dasharray="2 2"/>
<line x1="29.6233" y1="58.4161" x2="212.688" y2="-151.329" stroke="#4297F3" stroke-dasharray="2 2"/>
<line x1="-133.377" y1="109.466" x2="49.6882" y2="-100.279" stroke="#4297F3" stroke-dasharray="2 2"/>
<line x1="-133.377" y1="95.1893" x2="49.6882" y2="-114.556" stroke="#4297F3" stroke-dasharray="2 2"/>
<line x1="-133.377" y1="78.5329" x2="49.6882" y2="-131.212" stroke="#4297F3" stroke-dasharray="2 2"/>
<line x1="-133.377" y1="64.2561" x2="49.6882" y2="-145.489" stroke="#4297F3" stroke-dasharray="2 2"/>
<line x1="-133.377" y1="47.5997" x2="49.6882" y2="-162.145" stroke="#4297F3" stroke-dasharray="2 2"/>
<line x1="-133.377" y1="33.323" x2="49.6882" y2="-176.422" stroke="#4297F3" stroke-dasharray="2 2"/>
<line x1="-37.3767" y1="123.492" x2="145.688" y2="-86.2525" stroke="#4297F3" stroke-dasharray="2 2"/>
<line x1="-37.3767" y1="109.216" x2="145.688" y2="-100.529" stroke="#4297F3" stroke-dasharray="2 2"/>
<line x1="-37.3767" y1="92.5592" x2="145.688" y2="-117.186" stroke="#4297F3" stroke-dasharray="2 2"/>
<line x1="-37.3767" y1="78.2823" x2="145.688" y2="-131.463" stroke="#4297F3" stroke-dasharray="2 2"/>
<line x1="-37.3767" y1="61.6261" x2="145.688" y2="-148.119" stroke="#4297F3" stroke-dasharray="2 2"/>
<line x1="-37.3767" y1="47.3492" x2="145.688" y2="-162.396" stroke="#4297F3" stroke-dasharray="2 2"/>
<line x1="-37.3767" y1="30.6929" x2="145.688" y2="-179.052" stroke="#4297F3" stroke-dasharray="2 2"/>
</g>
<line x1="315" y1="264.5" x2="394" y2="264.5" stroke="#4297F3" stroke-dasharray="2 2"/>
<path d="M424.726 82.4253L484 99.7716L428.988 74L424.726 82.4253Z" fill="#D1D1D1"/>
<path d="M391.609 145.825L503.12 91.8033M503.12 91.8033L405.486 62.0668H391.609M503.12 91.8033L516.006 115.592" stroke="#4297F3" stroke-width="3"/>
<path d="M447.117 208.271L485.774 184.978L510.81 249.407L469.915 264.275L447.117 208.271Z" fill="white"/>
<path d="M469.915 265.266L460.994 291.038L429.902 316.314L392.104 265.266V347.042L429.902 316.314L460.994 291.038L511.05 249.902L469.915 265.266Z" fill="white"/>
<path d="M463.472 1.10706L424 82.5L426.301 82.8824L465.454 1.10706H463.472Z" fill="white"/>
<path d="M460.994 291.038L469.915 265.266L511.05 249.902L460.994 291.038ZM460.994 291.038L429.902 316.314M429.902 316.314L392.104 347.042V265.266L429.902 316.314ZM428.779 305.906L396.069 159.206M457.029 121.044L447.117 201.333M509.563 133.93L491.226 176.552M485.774 184.978L447.117 208.271L469.915 264.275L510.81 249.407L485.774 184.978ZM424 82.5L463.472 1.10706H465.454L426.301 82.8824L424 82.5Z" stroke="#4297F3"/>
<path d="M419.858 70.4922L423.5 81.5L463.472 1.10706L419.858 70.4922Z" fill="#D2E1FF" stroke="#4297F3"/>
<path d="M476.578 111.869C475.736 112.238 475.079 113.082 474.665 114.424C474.252 115.764 474.104 117.539 474.236 119.641C474.501 123.84 475.88 129.234 478.324 134.815C480.769 140.395 483.799 145.065 486.706 148.107C488.161 149.629 489.566 150.723 490.832 151.328C492.099 151.934 493.164 152.023 494.007 151.654C494.849 151.285 495.506 150.442 495.92 149.099C496.333 147.759 496.48 145.985 496.348 143.883C496.083 139.684 494.705 134.29 492.261 128.71C489.816 123.129 486.785 118.459 483.878 115.417C482.423 113.895 481.018 112.8 479.753 112.195C478.486 111.589 477.42 111.501 476.578 111.869Z" stroke="#4297F3"/>
<path d="M514.38 117.192L783 26L507.874 251.099L529.249 180.134L510.415 129.087L514.38 117.192Z" fill="#D2E1FF" stroke="#4297F3" stroke-width="2"/>
<line y1="-0.5" x2="57" y2="-0.5" transform="matrix(-1 0 0 1 445 209)" stroke="#4297F3" stroke-dasharray="2 2"/>
<mask id="mask1_3052_579" style="mask-type:alpha" maskUnits="userSpaceOnUse" x="507" y="26" width="276" height="226">
<path d="M514.38 117.192L783 26L507.874 251.099L529.249 180.134L510.415 129.087L514.38 117.192Z" fill="#D2E1FF"/>
</mask>
<g mask="url(#mask1_3052_579)">
<line y1="-0.5" x2="278.398" y2="-0.5" transform="matrix(-0.657565 -0.753398 -0.753398 0.657565 641 399.795)" stroke="#4297F3" stroke-dasharray="2 2"/>
<line y1="-0.5" x2="278.398" y2="-0.5" transform="matrix(-0.657565 -0.753398 -0.753398 0.657565 641 385.518)" stroke="#4297F3" stroke-dasharray="2 2"/>
<line y1="-0.5" x2="278.398" y2="-0.5" transform="matrix(-0.657565 -0.753398 -0.753398 0.657565 641 368.862)" stroke="#4297F3" stroke-dasharray="2 2"/>
<line y1="-0.5" x2="278.398" y2="-0.5" transform="matrix(-0.657565 -0.753398 -0.753398 0.657565 641 354.585)" stroke="#4297F3" stroke-dasharray="2 2"/>
<line y1="-0.5" x2="278.398" y2="-0.5" transform="matrix(-0.657565 -0.753398 -0.753398 0.657565 641 337.928)" stroke="#4297F3" stroke-dasharray="2 2"/>
<line y1="-0.5" x2="278.398" y2="-0.5" transform="matrix(-0.657565 -0.753398 -0.753398 0.657565 641 323.652)" stroke="#4297F3" stroke-dasharray="2 2"/>
<line y1="-0.5" x2="278.398" y2="-0.5" transform="matrix(-0.657565 -0.753398 -0.753398 0.657565 641 306.995)" stroke="#4297F3" stroke-dasharray="2 2"/>
<line y1="-0.5" x2="278.398" y2="-0.5" transform="matrix(-0.657565 -0.753398 -0.753398 0.657565 641 292.719)" stroke="#4297F3" stroke-dasharray="2 2"/>
<line y1="-0.5" x2="278.398" y2="-0.5" transform="matrix(-0.657565 -0.753398 -0.753398 0.657565 754 284.795)" stroke="#4297F3" stroke-dasharray="2 2"/>
<line y1="-0.5" x2="278.398" y2="-0.5" transform="matrix(-0.657565 -0.753398 -0.753398 0.657565 754 270.518)" stroke="#4297F3" stroke-dasharray="2 2"/>
<line y1="-0.5" x2="278.398" y2="-0.5" transform="matrix(-0.657565 -0.753398 -0.753398 0.657565 754 253.862)" stroke="#4297F3" stroke-dasharray="2 2"/>
<line y1="-0.5" x2="278.398" y2="-0.5" transform="matrix(-0.657565 -0.753398 -0.753398 0.657565 754 239.585)" stroke="#4297F3" stroke-dasharray="2 2"/>
<line y1="-0.5" x2="278.398" y2="-0.5" transform="matrix(-0.657565 -0.753398 -0.753398 0.657565 754 222.928)" stroke="#4297F3" stroke-dasharray="2 2"/>
<line y1="-0.5" x2="278.398" y2="-0.5" transform="matrix(-0.657565 -0.753398 -0.753398 0.657565 754 208.652)" stroke="#4297F3" stroke-dasharray="2 2"/>
<line y1="-0.5" x2="278.398" y2="-0.5" transform="matrix(-0.657565 -0.753398 -0.753398 0.657565 754 191.995)" stroke="#4297F3" stroke-dasharray="2 2"/>
<line y1="-0.5" x2="278.398" y2="-0.5" transform="matrix(-0.657565 -0.753398 -0.753398 0.657565 754 177.719)" stroke="#4297F3" stroke-dasharray="2 2"/>
<line y1="-0.5" x2="278.398" y2="-0.5" transform="matrix(-0.657565 -0.753398 -0.753398 0.657565 658 298.821)" stroke="#4297F3" stroke-dasharray="2 2"/>
<line y1="-0.5" x2="278.398" y2="-0.5" transform="matrix(-0.657565 -0.753398 -0.753398 0.657565 658 284.544)" stroke="#4297F3" stroke-dasharray="2 2"/>
<line y1="-0.5" x2="278.398" y2="-0.5" transform="matrix(-0.657565 -0.753398 -0.753398 0.657565 658 267.888)" stroke="#4297F3" stroke-dasharray="2 2"/>
<line y1="-0.5" x2="278.398" y2="-0.5" transform="matrix(-0.657565 -0.753398 -0.753398 0.657565 658 253.611)" stroke="#4297F3" stroke-dasharray="2 2"/>
<line y1="-0.5" x2="278.398" y2="-0.5" transform="matrix(-0.657565 -0.753398 -0.753398 0.657565 658 236.955)" stroke="#4297F3" stroke-dasharray="2 2"/>
<line y1="-0.5" x2="278.398" y2="-0.5" transform="matrix(-0.657565 -0.753398 -0.753398 0.657565 658 222.678)" stroke="#4297F3" stroke-dasharray="2 2"/>
<line y1="-0.5" x2="278.398" y2="-0.5" transform="matrix(-0.657565 -0.753398 -0.753398 0.657565 658 206.022)" stroke="#4297F3" stroke-dasharray="2 2"/>
<line y1="-0.5" x2="278.398" y2="-0.5" transform="matrix(-0.657565 -0.753398 -0.753398 0.657565 658 191.745)" stroke="#4297F3" stroke-dasharray="2 2"/>
<line y1="-0.5" x2="278.398" y2="-0.5" transform="matrix(-0.657565 -0.753398 -0.753398 0.657565 754 165.821)" stroke="#4297F3" stroke-dasharray="2 2"/>
<line y1="-0.5" x2="278.398" y2="-0.5" transform="matrix(-0.657565 -0.753398 -0.753398 0.657565 754 151.544)" stroke="#4297F3" stroke-dasharray="2 2"/>
<line y1="-0.5" x2="278.398" y2="-0.5" transform="matrix(-0.657565 -0.753398 -0.753398 0.657565 754 134.888)" stroke="#4297F3" stroke-dasharray="2 2"/>
<line y1="-0.5" x2="278.398" y2="-0.5" transform="matrix(-0.657565 -0.753398 -0.753398 0.657565 754 120.611)" stroke="#4297F3" stroke-dasharray="2 2"/>
<line y1="-0.5" x2="278.398" y2="-0.5" transform="matrix(-0.657565 -0.753398 -0.753398 0.657565 754 103.955)" stroke="#4297F3" stroke-dasharray="2 2"/>
<line y1="-0.5" x2="278.398" y2="-0.5" transform="matrix(-0.657565 -0.753398 -0.753398 0.657565 754 89.678)" stroke="#4297F3" stroke-dasharray="2 2"/>
<line y1="-0.5" x2="278.398" y2="-0.5" transform="matrix(-0.657565 -0.753398 -0.753398 0.657565 754 73.0217)" stroke="#4297F3" stroke-dasharray="2 2"/>
<line y1="-0.5" x2="278.398" y2="-0.5" transform="matrix(-0.657565 -0.753398 -0.753398 0.657565 754 58.7449)" stroke="#4297F3" stroke-dasharray="2 2"/>
<line y1="-0.5" x2="278.398" y2="-0.5" transform="matrix(-0.657565 -0.753398 -0.753398 0.657565 917 109.795)" stroke="#4297F3" stroke-dasharray="2 2"/>
<line y1="-0.5" x2="278.398" y2="-0.5" transform="matrix(-0.657565 -0.753398 -0.753398 0.657565 917 95.5181)" stroke="#4297F3" stroke-dasharray="2 2"/>
<line y1="-0.5" x2="278.398" y2="-0.5" transform="matrix(-0.657565 -0.753398 -0.753398 0.657565 917 78.8617)" stroke="#4297F3" stroke-dasharray="2 2"/>
<line y1="-0.5" x2="278.398" y2="-0.5" transform="matrix(-0.657565 -0.753398 -0.753398 0.657565 917 64.5848)" stroke="#4297F3" stroke-dasharray="2 2"/>
<line y1="-0.5" x2="278.398" y2="-0.5" transform="matrix(-0.657565 -0.753398 -0.753398 0.657565 917 47.9285)" stroke="#4297F3" stroke-dasharray="2 2"/>
<line y1="-0.5" x2="278.398" y2="-0.5" transform="matrix(-0.657565 -0.753398 -0.753398 0.657565 917 33.6517)" stroke="#4297F3" stroke-dasharray="2 2"/>
<line y1="-0.5" x2="278.398" y2="-0.5" transform="matrix(-0.657565 -0.753398 -0.753398 0.657565 821 123.821)" stroke="#4297F3" stroke-dasharray="2 2"/>
<line y1="-0.5" x2="278.398" y2="-0.5" transform="matrix(-0.657565 -0.753398 -0.753398 0.657565 821 109.544)" stroke="#4297F3" stroke-dasharray="2 2"/>
<line y1="-0.5" x2="278.398" y2="-0.5" transform="matrix(-0.657565 -0.753398 -0.753398 0.657565 821 92.8879)" stroke="#4297F3" stroke-dasharray="2 2"/>
<line y1="-0.5" x2="278.398" y2="-0.5" transform="matrix(-0.657565 -0.753398 -0.753398 0.657565 821 78.6111)" stroke="#4297F3" stroke-dasharray="2 2"/>
<line y1="-0.5" x2="278.398" y2="-0.5" transform="matrix(-0.657565 -0.753398 -0.753398 0.657565 821 61.9548)" stroke="#4297F3" stroke-dasharray="2 2"/>
<line y1="-0.5" x2="278.398" y2="-0.5" transform="matrix(-0.657565 -0.753398 -0.753398 0.657565 821 47.678)" stroke="#4297F3" stroke-dasharray="2 2"/>
<line y1="-0.5" x2="278.398" y2="-0.5" transform="matrix(-0.657565 -0.753398 -0.753398 0.657565 821 31.0217)" stroke="#4297F3" stroke-dasharray="2 2"/>
</g>
<line y1="-0.5" x2="79" y2="-0.5" transform="matrix(-1 0 0 1 469 265)" stroke="#4297F3" stroke-dasharray="2 2"/>
</svg>
