<svg width="512" height="512" viewBox="0 0 512 512" fill="none" xmlns="http://www.w3.org/2000/svg">
<g clip-path="url(#clip0_2247_2)">
<path d="M255.472 232.944H256.04C259.209 232.954 262.348 232.327 265.27 231.1C268.192 229.872 270.837 228.07 273.048 225.8C275.309 223.582 277.105 220.935 278.331 218.015C279.557 215.094 280.188 211.959 280.188 208.792C280.188 202.104 277.468 196.092 273.048 191.668C268.74 187.36 262.728 184.64 256.04 184.64C249.352 184.64 243.34 187.248 238.92 191.668C234.425 196.235 231.902 202.384 231.892 208.792C231.892 215.368 234.612 221.492 238.92 225.8C243.228 230.108 249.008 232.716 255.472 232.944ZM263.52 248.252V353.932C263.52 358.352 259.896 361.868 255.472 361.868C251.052 361.868 247.42 358.352 247.42 353.932V248.028C239.945 246.343 233.103 242.569 227.692 237.144C223.941 233.439 220.967 229.024 218.942 224.157C216.917 219.289 215.883 214.067 215.9 208.796C215.9 197.684 220.32 187.592 227.692 180.336C234.948 173.08 244.928 168.656 256.036 168.656C267.144 168.656 277.124 173.076 284.38 180.336C288.12 184.071 291.087 188.508 293.111 193.391C295.134 198.275 296.174 203.509 296.172 208.796C296.172 219.796 291.636 229.884 284.38 237.144C278.679 242.829 271.419 246.695 263.52 248.252ZM390.628 14.6676C386.884 12.2876 385.868 7.29964 388.248 3.55564C389.416 1.80961 391.224 0.593062 393.281 0.168714C395.339 -0.255635 397.48 0.146272 399.244 1.28764C426.697 19.0278 450.36 42.0355 468.864 68.9796C487.285 95.9314 500.193 126.26 506.848 158.22C517.388 209.031 511.676 261.871 490.52 309.256C469.432 356.196 433.94 396.116 388.472 422.42C384.616 424.576 379.736 423.328 377.58 419.472C377.044 418.567 376.695 417.565 376.553 416.523C376.412 415.481 376.48 414.422 376.755 413.407C377.03 412.392 377.505 411.443 378.153 410.615C378.801 409.787 379.609 409.098 380.528 408.588C423.052 384.096 456.276 346.672 475.888 302.68C495.052 259.928 501.4 210.944 491.196 161.508C484.736 130.664 472.488 102.544 455.708 78.0516C438.399 52.8452 416.283 31.3051 390.628 14.6676ZM112.828 1.28764C114.592 0.145021 116.735 -0.257603 118.793 0.16679C120.851 0.591183 122.66 1.8085 123.828 3.55564C126.208 7.29964 125.188 12.2876 121.444 14.6676C95.7897 31.3086 73.6724 52.8496 56.36 78.0556C39.58 102.548 27.332 130.668 20.868 161.512C10.548 210.948 17.012 259.936 36.176 302.684C55.792 346.676 89.016 384.1 131.536 408.592C135.392 410.744 136.64 415.62 134.484 419.476C132.328 423.332 127.452 424.58 123.596 422.424C78.132 396.116 42.64 356.2 21.552 309.256C0.287748 261.9 -5.42834 209.026 5.224 158.22C11.8785 126.26 24.7875 95.9314 43.208 68.9796C61.6808 42.0092 85.3496 18.9959 112.828 1.28764ZM144.124 49.5916C145.902 48.4617 148.054 48.0779 150.113 48.5234C152.172 48.9689 153.972 50.2078 155.124 51.9716C157.504 55.7156 156.484 60.5876 152.856 62.9716C133.591 75.4747 116.984 91.6589 103.988 110.596C91.0242 129.476 81.9654 150.757 77.344 173.188C69.8667 208.85 73.8757 245.965 88.796 279.208C103.687 312.543 128.728 340.323 160.344 358.584C164.2 360.848 165.56 365.728 163.292 369.472C162.782 370.391 162.092 371.198 161.264 371.846C160.436 372.494 159.487 372.969 158.472 373.244C157.457 373.518 156.398 373.587 155.356 373.444C154.315 373.302 153.312 372.952 152.408 372.416C117.6 352.344 90.388 321.732 74.172 285.672C57.9429 249.393 53.5769 208.917 61.696 170.012C66.916 144.724 77.004 121.596 90.724 101.636C105.004 80.7756 123.26 63.1956 144.124 49.5916ZM175.304 97.7836C178.932 95.2876 183.92 96.4236 186.304 100.052C188.684 103.796 187.664 108.668 183.924 111.164C171.074 119.519 159.981 130.305 151.268 142.916C142.876 155.276 136.64 169.336 133.464 184.872C128.414 208.74 131.074 233.596 141.06 255.856C151.063 278.181 167.843 296.788 189.02 309.036C189.925 309.545 190.72 310.229 191.36 311.048C191.999 311.867 192.469 312.804 192.743 313.806C193.017 314.808 193.09 315.854 192.957 316.885C192.824 317.915 192.488 318.908 191.968 319.808C189.7 323.664 184.936 325.024 181.084 322.752C156.704 308.808 137.768 287.372 126.544 262.316C115.154 237.008 112.096 208.737 117.812 181.58C121.312 164.503 128.214 148.307 138.108 133.956C147.948 119.52 160.599 107.217 175.304 97.7836ZM200.82 137.128C201.697 136.558 202.679 136.168 203.708 135.979C204.737 135.791 205.793 135.808 206.815 136.029C207.838 136.25 208.806 136.671 209.665 137.268C210.524 137.865 211.256 138.626 211.82 139.508C214.2 143.136 213.18 148.124 209.44 150.508C201.746 155.462 195.116 161.899 189.936 169.444C184.829 176.992 181.247 185.465 179.392 194.388C176.328 209.244 178.144 223.872 183.928 236.684C189.87 249.984 199.874 261.06 212.504 268.32C216.248 270.472 217.608 275.348 215.452 279.204C214.392 281.03 212.655 282.364 210.616 282.917C208.578 283.469 206.405 283.194 204.568 282.152C188.995 273.227 176.679 259.562 169.416 243.148C162.272 227.388 160.004 209.356 163.748 191.216C166.018 180.211 170.451 169.766 176.788 160.488C183.149 151.166 191.322 143.221 200.82 137.128ZM359.22 62.9716C357.456 61.8197 356.217 60.0195 355.771 57.9608C355.325 55.902 355.708 53.7504 356.836 51.9716C359.332 48.3436 364.208 47.2116 367.948 49.5916C388.816 63.1956 407.068 80.7756 421.244 101.64C434.964 121.596 445.052 144.728 450.38 170.016C458.772 210.496 453.556 250.636 437.796 285.676C421.54 322.133 394.149 352.501 359.556 372.42C355.812 374.688 350.94 373.328 348.784 369.476C346.52 365.732 347.876 360.856 351.62 358.588C383.295 340.366 408.383 312.578 423.284 279.212C438.204 245.969 442.213 208.854 434.736 173.192C429.86 150.06 420.672 128.968 408.088 110.6C395.094 91.6608 378.487 75.475 359.22 62.9716ZM328.04 111.164C326.289 109.972 325.073 108.143 324.649 106.068C324.226 103.993 324.629 101.834 325.772 100.052C328.156 96.4236 333.144 95.2916 336.772 97.7836C351.425 107.28 364.062 119.572 373.96 133.956C383.857 148.305 390.762 164.502 394.26 181.58C399.978 208.737 396.92 237.009 385.528 262.316C374.296 287.376 355.364 308.808 330.984 322.752C330.08 323.288 329.077 323.638 328.036 323.78C326.994 323.923 325.935 323.854 324.92 323.58C323.905 323.305 322.956 322.83 322.128 322.182C321.3 321.534 320.61 320.727 320.1 319.808C319.58 318.909 319.244 317.915 319.11 316.885C318.977 315.855 319.049 314.809 319.323 313.807C319.597 312.805 320.067 311.868 320.706 311.049C321.344 310.23 322.139 309.545 323.044 309.036C344.36 296.676 361.028 277.852 371.008 255.856C380.532 234.312 383.82 209.708 378.6 184.872C375.428 169.34 369.188 155.28 360.8 142.916C352.084 130.272 340.949 119.481 328.04 111.164ZM302.64 150.508C301.758 149.945 300.996 149.213 300.398 148.354C299.801 147.495 299.379 146.527 299.157 145.504C298.936 144.482 298.919 143.425 299.107 142.396C299.296 141.367 299.686 140.385 300.256 139.508C300.82 138.626 301.552 137.865 302.411 137.268C303.27 136.671 304.238 136.25 305.261 136.029C306.283 135.808 307.339 135.791 308.368 135.979C309.397 136.168 310.379 136.558 311.256 137.128C320.755 143.222 328.929 151.167 335.292 160.488C341.631 169.766 346.063 180.21 348.332 191.216C352.076 209.36 349.808 227.388 342.664 243.148C335.366 259.537 323.06 273.193 307.516 282.152C305.679 283.194 303.505 283.469 301.466 282.917C299.427 282.365 297.688 281.03 296.628 279.204C294.476 275.348 295.836 270.472 299.576 268.32C312.177 261.024 322.171 249.959 328.152 236.684C334.049 223.406 335.635 208.614 332.688 194.388C330.84 185.443 327.215 176.961 322.028 169.444C316.89 161.905 310.298 155.467 302.64 150.508Z" fill="white"/>
<path fill-rule="evenodd" clip-rule="evenodd" d="M256.036 216.731C258.139 216.725 260.154 215.887 261.64 214.4C263.127 212.913 263.966 210.898 263.972 208.795C263.972 204.375 260.46 200.743 256.036 200.743C253.903 200.752 251.86 201.603 250.352 203.111C248.843 204.619 247.992 206.662 247.984 208.795C247.988 213.099 251.616 216.731 256.036 216.731Z" fill="white"/>
<path d="M240.732 345.884H271.344C277.924 345.884 283.928 348.608 288.352 352.916V353.028C292.843 357.505 295.372 363.582 295.384 369.924V496.012C295.364 500.219 293.695 504.25 290.736 507.24H290.624C289.165 508.743 287.42 509.939 285.492 510.756C283.563 511.574 281.49 511.997 279.396 512H232.68C230.584 512.007 228.509 511.589 226.58 510.771C224.65 509.953 222.907 508.752 221.456 507.24H221.344C218.508 504.292 216.692 500.324 216.692 496.012V369.92C216.692 363.34 219.416 357.336 223.724 353.024V352.912C228.144 348.604 234.156 345.884 240.732 345.884ZM279.396 473.788H232.68V496.012H279.396V473.788ZM232.68 457.796H279.396V369.92C279.399 368.863 279.19 367.816 278.78 366.841C278.371 365.867 277.769 364.985 277.012 364.248C276.275 363.491 275.394 362.891 274.42 362.482C273.446 362.073 272.4 361.864 271.344 361.868H240.732C238.464 361.868 236.424 362.776 235.064 364.248H234.952C233.592 365.724 232.684 367.652 232.684 369.92V457.796H232.68Z" fill="white"/>
</g>
<defs>
<clipPath id="clip0_2247_2">
<rect width="512" height="512" fill="white"/>
</clipPath>
</defs>
</svg>
