<svg width="480" height="480" viewBox="0 0 480 480" fill="none" xmlns="http://www.w3.org/2000/svg">
<path d="M91.712 278.4C83.077 274.2 73.6023 272.012 64 272C28.712 272 0 300.712 0 336C0 371.288 28.712 400 64 400C74.5213 399.996 84.8792 397.397 94.1561 392.433C103.433 387.47 111.342 380.295 117.184 371.544L177.64 401.808C176.564 406.462 176.014 411.223 176 416C176 451.288 204.712 480 240 480C275.288 480 304 451.288 304 416C304.016 403.225 300.183 390.741 293 380.176L377.952 291.352C388.941 299.556 402.286 303.993 416 304C451.288 304 480 275.288 480 240C480 204.712 451.288 176 416 176C401.798 176.002 388.004 180.755 376.816 189.504L290.496 103.184C299.245 91.996 303.998 78.2025 304 64C304 28.712 275.288 0 240 0C204.712 0 176 28.712 176 64C176 68.864 176.592 73.592 177.632 78.152L120.896 98.824C110.256 78.176 88.776 64 64 64C28.712 64 0 92.712 0 128C0 163.288 28.712 192 64 192C72.8146 192.003 81.5332 190.169 89.6 186.616L119.048 236.176L91.712 278.4ZM64 384C37.528 384 16 362.472 16 336C16 309.528 37.528 288 64 288C90.472 288 112 309.528 112 336C112 362.472 90.472 384 64 384ZM124.312 357.208C126.737 350.399 127.984 343.227 128 336C127.999 326.67 125.954 317.453 122.008 308.999C118.062 300.544 112.311 293.057 105.16 287.064L128.168 251.528L197.536 368.256C191.666 373.469 186.802 379.713 183.184 386.68L124.312 357.208ZM240 128C254.202 127.998 267.996 123.245 279.184 114.496L365.512 200.824C360.268 207.562 356.432 215.286 354.232 223.536L303.976 216.624C303.968 216.416 304 216.208 304 216C304 180.712 275.288 152 240 152C229.479 152.004 219.12 154.602 209.843 159.566C200.566 164.53 192.657 171.705 186.816 180.456L177.272 175.688L212.296 121.6C220.688 125.656 230.064 128 240 128ZM248 352.552V279.44C260.613 277.829 272.461 272.502 282.037 264.136C291.614 255.771 298.485 244.746 301.776 232.464L352.032 239.376C352.032 239.584 352 239.792 352 240C352 255.28 357.392 269.304 366.36 280.32L282.36 368.152C272.744 359.603 260.766 354.164 248 352.552ZM240 168C266.472 168 288 189.528 288 216C288 242.472 266.472 264 240 264C213.528 264 192 242.472 192 216C192 189.528 213.528 168 240 168ZM179.688 194.792C177.263 201.601 176.016 208.773 176 216C176 248.576 200.48 275.488 232 279.448V352.56C224.579 353.487 217.38 355.719 210.736 359.152L137.872 236.536L168.52 189.208L179.688 194.792ZM240 464C213.528 464 192 442.472 192 416C192 389.528 213.528 368 240 368C266.472 368 288 389.528 288 416C288 442.472 266.472 464 240 464ZM416 192C442.472 192 464 213.528 464 240C464 266.472 442.472 288 416 288C389.528 288 368 266.472 368 240C368 213.528 389.528 192 416 192ZM240 16C266.472 16 288 37.528 288 64C288 90.472 266.472 112 240 112C213.528 112 192 90.472 192 64C192 37.528 213.528 16 240 16ZM183.104 93.176C186.994 100.736 192.342 107.452 198.84 112.936L162.872 168.488L124.312 149.208C126.737 142.399 127.984 135.227 128 128C128 123.136 127.408 118.408 126.368 113.848L183.104 93.176ZM16 128C16 101.528 37.528 80 64 80C90.472 80 112 101.528 112 128C112 154.472 90.472 176 64 176C37.528 176 16 154.472 16 128ZM103.32 178.392C108.696 174.206 113.376 169.194 117.184 163.544L154.12 182.008L128.752 221.184L103.32 178.392Z" fill="white"/>
</svg>
