<svg width="476" height="512" viewBox="0 0 476 512" fill="none" xmlns="http://www.w3.org/2000/svg">
<path d="M79.3905 341.177C35.614 341.177 0 376.792 0 420.567C0 464.343 35.614 499.958 79.3905 499.958C123.167 499.958 158.781 464.343 158.781 420.567C158.781 376.792 123.167 341.177 79.3905 341.177ZM79.3905 468.619C52.895 468.619 31.3384 447.063 31.3384 420.567C31.3384 394.072 52.895 372.515 79.3905 372.515C105.886 372.515 127.443 394.072 127.443 420.567C127.443 447.063 105.886 468.619 79.3905 468.619ZM395.908 187.619C352.133 187.619 316.518 223.234 316.518 267.009C316.518 310.785 352.133 346.4 395.908 346.4C439.684 346.4 475.299 310.785 475.299 267.009C475.299 223.234 439.684 187.619 395.908 187.619ZM395.908 315.061C369.413 315.061 347.856 293.505 347.856 267.009C347.856 240.514 369.413 218.957 395.908 218.957C422.404 218.957 443.96 240.514 443.96 267.009C443.96 293.505 422.404 315.061 395.908 315.061ZM189.186 121.398L227.725 82.8576L266.264 121.398L288.424 99.2382L249.885 60.6982L288.424 22.1594L266.264 0L227.725 38.5399L189.186 0L167.026 22.1594L205.566 60.6982L167.026 99.2382L189.186 121.398ZM255.437 338.476C221.409 310.49 198.033 278.809 187.839 246.857C184.796 237.319 183.346 229.055 182.701 222.553L205.508 245.36L227.667 223.2L167.837 163.37L108.007 223.2L130.166 245.36L151.37 224.156C153.952 253.597 168.778 307.779 235.531 362.679C288.132 405.941 306.226 441.107 312.141 462.991C318.217 485.474 312.946 498.129 312.719 498.656C312.804 498.46 312.857 498.362 312.857 498.362L341.072 511.999C342.095 509.884 350.849 490.413 343.392 458.758C334.094 419.299 304.502 378.83 255.437 338.476Z" fill="white"/>
</svg>
